<?xml version="1.0" encoding="utf-8"?>
<!-- Generator: Adobe Illustrator 27.5.0, SVG Export Plug-In . SVG Version: 6.00 Build 0)  -->
<svg version="1.1" id="PRINT" xmlns="http://www.w3.org/2000/svg" xmlns:xlink="http://www.w3.org/1999/xlink" x="0px" y="0px"
	 viewBox="0 0 595.28 841.89" style="enable-background:new 0 0 595.28 841.89;" xml:space="preserve">
<g>
	<g>
		<g>
			<polygon style="fill:#FFFFFF;" points="603.764,-8.504 603.764,850.524 -8.504,850.357 -8.504,-8.504 			"/>
			<path style="fill:#E2F1EE;" d="M-8.504,66.96C116.441,14.034,235.142,18.466,367.44,48.627
				c71.419,16.282,129.914,40.733,236.324,46.722V-8.504H-8.504V66.96z"/>
		</g>
		<g>
			<g>
				<path style="fill:#3EA76F;" d="M397.158,297.518c0,0,27.173-32.428,68.047-31.306c40.874,1.122,41.409,3.74,41.409,3.74
					s54.569,29.887,40.885,93.129C535.201,419.922,401.16,319.21,397.158,297.518z"/>
				<path style="fill:#E53C42;" d="M448.51,260.971c0,0-29.461,9.651-28.192,14.52c1.269,4.869,19.069-3.15,19.069-3.15
					s-12.136,12.316-8.094,16.325c4.042,4.01,21.664-12.888,21.664-12.888s-10.723,19.189-4.721,21.194
					c6.003,2.005,14.491-18,14.491-18s0.104,20.578,8.41,20.864c8.306,0.286,2.864-20.622,2.864-20.622s8.53,20.049,17.726,18.33
					c9.196-1.718-6.843-21.194-6.843-21.194s16.825,12.602,21.731,8.592c4.905-4.01-13.872-15.18-13.872-15.18
					s17.345,8.885,19.063,3.583c1.718-5.302-23.772-14.865-38.092-12.375C459.394,263.462,448.51,260.971,448.51,260.971z"/>
			</g>
			<g>
				<g>
					<path style="fill:#3EA76F;" d="M520.036,158.429l-130.067-40.316c6.302-6.523,12.226-14.289,16.309-22.765
						c3.062-6.324,5.081-13.047,5.503-19.947c0.089-1.465,0.111-2.929,0.044-4.415c-0.111-2.64-0.51-6.501-1.642-9.94
						c-0.932-2.862-2.374-5.392-4.548-6.679c-0.311-0.222-0.644-0.377-0.976-0.51c-1.82-0.71-3.906-0.288-5.658,0.555
						c-4.105,1.975-7.322,5.813-10.517,9.452c-1.509,1.753-3.04,3.461-4.638,4.903c-5.237,4.704-10.761,9.053-16.885,12.559
						c-0.776,0.444-1.575,0.888-2.396,1.309c-5.547,2.885-11.405,4.793-17.307,5.658c-7.566,1.132-15.288,0.51-22.743-2.108
						c-1.775-0.621-3.528-1.353-5.281-2.197c-5.348-2.618-10.251-6.435-13.49-11.405c-0.4-0.599-0.777-1.22-1.109-1.864
						c-3.195-5.924-2.751-14.888,0.51-22.077c3.373-7.411,9.74-12.913,18.283-11.249c0,0-7.122,5.192-8.543,14.156
						c-0.333,1.886-0.377,3.949-0.044,6.19c0.399,2.64,1.464,5.17,3.062,7.411c2.507,3.483,6.324,6.235,10.961,7.566
						c4.526,1.309,9.852,1.265,15.465-0.799c2.508-0.91,5.103-2.241,7.699-4.016c1.554-1.065,2.951-2.374,4.26-3.883
						c7.721-8.92,11.937-24.762,23.231-37.964c0,0,0,0,0.022-0.022c9.052-10.539,22.632-19.393,46.152-21.678
						c1.908-0.178,3.772-0.333,5.591-0.422c21.811-1.309,38.674,2.818,51.898,11.161c12.469,7.855,21.722,19.481,28.911,33.881
						c3.572,7.145,6.634,14.977,9.319,23.386c1.62,5.103,2.862,10.162,3.794,15.11C532.328,126.035,520.036,158.429,520.036,158.429
						z"/>
					<path style="fill:#FFFFFF;" d="M323.425,37.395c0,0-10.228-14.263-7.2-16.231s7.2,11.655,7.2,11.655s-2.962-21.192,3.093-22.1
						c6.055-0.908,2.119,19.981,2.119,19.981s8.931-21.04,15.742-16.651c6.812,4.39-8.325,18.164-8.325,18.164
						s14.531-7.871,17.71-3.633s-13.623,8.814-13.623,8.814s12.11-1.548,13.169,5.717c1.06,7.266-16.953,0.757-16.953,0.757
						s18.013,12.866,10.445,16.651c-7.568,3.784-14.38-14.077-14.38-14.077s5.903,15.742-0.151,15.742s-4.692-18.467-4.692-18.467
						s-1.211,11.958-4.995,10.899C318.798,53.557,323.425,37.395,323.425,37.395z"/>
					<path style="fill:#E53C42;" d="M525.206,87.472c-56.247-22.588-103.73-0.688-118.928,7.877
						c3.062-6.324,5.081-13.047,5.503-19.947c39.561-32.04,81.852-29.577,100.313-26.426c3.572,7.145,6.634,14.977,9.319,23.386
						C523.031,77.465,524.274,82.523,525.206,87.472z"/>
					<path style="fill:#E53C42;" d="M483.181,15.094c-41.026-1.087-64.346,30.952-72.999,45.951
						c-0.932-2.862-2.374-5.392-4.548-6.679c3.883-29.444,15.687-43.644,25.65-50.434C453.094,2.624,469.957,6.751,483.181,15.094z"
						/>
					<path style="fill:#E53C42;" d="M388.483,63.863c-1.509,1.753-3.04,3.461-4.638,4.903c-5.237,4.704-10.761,9.053-16.885,12.559
						c-6.989-5.325-9.718-11.982-10.672-17.307c7.721-8.92,11.937-24.762,23.231-37.964
						C376.634,48.265,384.977,60.025,388.483,63.863z"/>
					<path style="fill:#E53C42;" d="M347.257,88.293c-7.566,1.132-15.288,0.51-22.743-2.108c0.311-3.883,1.287-9.43,4.349-13.468
						c4.526,1.309,9.852,1.265,15.465-0.799C343.84,75.601,343.862,81.636,347.257,88.293z"/>
					<path style="fill:#E53C42;" d="M317.902,65.15c-6.834,0.71-10.384,4.415-12.159,7.433c-0.4-0.599-0.777-1.22-1.109-1.864
						c-3.195-5.924-2.751-14.888,0.51-22.077c4.26-0.177,7.433,1.176,9.74,2.907c-0.333,1.886-0.377,3.949-0.044,6.19
						C315.24,60.38,316.305,62.909,317.902,65.15z"/>
				</g>
				<g>
					<path style="fill:#E53C42;" d="M536.149,127.242l-6.783,44.619l-129.5,7.541l-11.898-14.039l-6.707-41.891l-0.644-4.017
						c0,0,0,0,0.018-0.019c0.398-0.208,5.04-2.653,12.733-5.76c0.416-0.17,0.852-0.341,1.307-0.512
						c4.377-1.724,9.643-3.619,15.593-5.4c0.455-0.133,0.909-0.284,1.364-0.398c3.525-1.042,7.276-2.046,11.236-2.956
						c0.455-0.095,0.909-0.189,1.383-0.303c3.903-0.853,7.996-1.629,12.221-2.274c0.474-0.057,0.928-0.133,1.402-0.189
						c4.775-0.682,9.739-1.175,14.817-1.402c0.474-0.019,0.947-0.057,1.44-0.057c2.823-0.114,5.703-0.152,8.621-0.076
						c0.474,0,0.947,0.019,1.421,0.038c5.115,0.152,10.325,0.606,15.573,1.421c0.474,0.057,0.929,0.133,1.383,0.227
						c3.562,0.568,7.143,1.326,10.724,2.255c0.454,0.114,0.909,0.246,1.383,0.36c4.699,1.307,9.397,2.918,14.058,4.888
						c0.436,0.189,0.871,0.379,1.307,0.568c5.76,2.52,11.463,5.627,17.033,9.379c0.398,0.265,0.814,0.549,1.212,0.815
						C529.992,122.24,533.099,124.627,536.149,127.242z"/>
					<path style="fill-rule:evenodd;clip-rule:evenodd;fill:#D32E39;" d="M454.129,100.186c-0.056,11.103-0.114,22.224-0.17,33.308
						c0,0.928-1.421,0.928-1.421,0c0.056-11.065,0.114-22.167,0.152-33.251C453.164,100.224,453.637,100.186,454.129,100.186z"/>
					<path style="fill-rule:evenodd;clip-rule:evenodd;fill:#D32E39;" d="M464.172,100.148c-0.19,9.341-0.645,18.682-1.345,28.003
						c-0.076,0.909-1.497,0.909-1.421,0c0.7-9.341,1.156-18.681,1.345-28.041C463.224,100.11,463.698,100.129,464.172,100.148z"/>
					<path style="fill-rule:evenodd;clip-rule:evenodd;fill:#D32E39;" d="M481.128,101.796c-1.365,11.008-2.52,22.054-3.505,33.1
						c-0.094,0.909-1.515,0.909-1.421,0c0.985-11.122,2.16-22.243,3.543-33.327C480.219,101.626,480.674,101.701,481.128,101.796z"
						/>
					<path style="fill-rule:evenodd;clip-rule:evenodd;fill:#D32E39;" d="M493.235,104.411c-2.71,11.16-5.38,22.3-8.072,33.46
						c-0.208,0.89-1.572,0.511-1.364-0.379c2.69-11.159,5.362-22.281,8.052-33.441C492.307,104.164,492.762,104.297,493.235,104.411
						z"/>
					<path style="fill-rule:evenodd;clip-rule:evenodd;fill:#D32E39;" d="M508.601,109.868c-2.577,10.136-5.513,20.14-8.828,30.068
						c-0.285,0.872-1.649,0.493-1.365-0.379c3.334-9.985,6.29-20.064,8.886-30.258C507.729,109.489,508.165,109.678,508.601,109.868
						z"/>
					<path style="fill-rule:evenodd;clip-rule:evenodd;fill:#D32E39;" d="M526.846,120.061c-3.278,9.777-6.082,19.667-8.469,29.727
						c-0.208,0.891-1.592,0.512-1.365-0.379c2.406-10.193,5.286-20.254,8.621-30.163
						C526.032,119.511,526.448,119.796,526.846,120.061z"/>
					<path style="fill-rule:evenodd;clip-rule:evenodd;fill:#D32E39;" d="M441.094,137.226c0.018,0.909-1.402,0.909-1.421,0
						c-0.284-11.88-1.327-23.645-3.202-35.392c0.474-0.057,0.928-0.133,1.402-0.189C439.73,113.429,440.829,125.271,441.094,137.226
						z"/>
					<path style="fill-rule:evenodd;clip-rule:evenodd;fill:#D32E39;" d="M429.291,136.203c-2.614-10.515-4.756-21.107-6.423-31.792
						c0.455-0.095,0.909-0.189,1.383-0.303c1.667,10.667,3.809,21.22,6.423,31.717C430.882,136.715,429.518,137.075,429.291,136.203
						z"/>
					<path style="fill-rule:evenodd;clip-rule:evenodd;fill:#D32E39;" d="M417.639,137.188c-2.672-9.738-5.135-19.553-7.371-29.424
						c0.455-0.133,0.909-0.284,1.364-0.398c2.236,9.871,4.7,19.686,7.37,29.443C419.249,137.7,417.865,138.079,417.639,137.188z"/>
					<path style="fill-rule:evenodd;clip-rule:evenodd;fill:#D32E39;" d="M403.637,140.845c-3.07-9.189-6.499-18.246-10.269-27.17
						c0.416-0.17,0.852-0.341,1.307-0.512c3.808,8.962,7.237,18.056,10.345,27.302C405.304,141.338,403.94,141.717,403.637,140.845z
						"/>
					<path style="fill-rule:evenodd;clip-rule:evenodd;fill:#D32E39;" d="M396.21,150.224c-4.964-8.924-9.966-17.848-14.949-26.753
						l-0.644-4.017c0,0,0,0,0.018-0.019c5.608,10.023,11.198,20.027,16.806,30.068C397.896,150.299,396.664,151.02,396.21,150.224z"
						/>
				</g>
			</g>
			<g>
				<path style="fill:#F7B38C;" d="M524.407,174.271c-0.378,4.704-0.91,9.807-1.686,15.132
					c-3.461,23.586-18.904,47.505-54.051,48.57c-35.168,1.065-56.735-12.78-66.853-37.809c-3.795-9.408-5.836-20.125-6.901-29.843
					c-1.753-16.153-0.821-29.555-0.821-29.555c14.467-5.813,27.868-9.43,40.094-11.449c21.611-3.572,39.65-2.13,53.784,1.132
					c24.074,5.48,36.877,16.175,36.877,16.175S525.649,158.118,524.407,174.271z"/>
				<g>
					<circle style="fill:#2C303D;" cx="421.965" cy="185.366" r="3.727"/>
					<circle style="fill:#2C303D;" cx="494.575" cy="187.944" r="3.727"/>
				</g>
				<g>
					<circle style="opacity:0.45;fill:#E53C42;" cx="500.176" cy="206.877" r="9.328"/>
					<circle style="opacity:0.45;fill:#E53C42;" cx="421.965" cy="203.289" r="9.328"/>
					<path style="opacity:0.45;fill:#E53C42;" d="M457.061,177.1c-0.763,1.21-1.428,2.482-1.986,3.8
						c-0.419,0.99-0.81,2.052-1.634,2.743c-0.681,0.572-1.57,0.814-2.43,1.041c-1.145,0.302-2.291,0.605-3.436,0.908
						c-1.257,0.332-2.662,0.781-3.231,1.949c-0.533,1.093-0.105,2.431,0.606,3.417c1.245,1.728,3.299,2.778,5.411,3.047
						c2.932,0.374,6.615-0.442,8.695-2.651c2.791-2.963,3.331-8.955,2.19-12.695C460.536,176.325,458.96,174.089,457.061,177.1z"/>
				</g>
				<g>
					<path style="fill:#2C303D;" d="M479.385,210.398c-3.676,2.52-8.924,4.32-15.707,4.528c-3.922,0.114-7.427-0.512-10.515-1.61
						c-11.236-4.017-16.408-14.305-12.467-17.696c3.316-2.88,7.237-0.872,10.439,1.061c1.933,1.175,3.941,1.989,5.987,2.368
						c2.69,0.493,5.438,0.189,8.09-1.08c0.455-0.227,0.929-0.493,1.402-0.777c0.644-0.398,1.269-0.834,1.895-1.27
						c2.405-1.705,4.737-3.581,7.579-4.434c3.694-1.118,6.953,0.038,8.867,3.467C487.513,199.58,485.675,206.059,479.385,210.398z"
						/>
					<path style="fill:#E53C42;" d="M479.387,210.394c-3.683,2.529-8.92,4.327-15.709,4.526c-3.927,0.111-7.433-0.51-10.517-1.598
						c2.285-2.951,6.945-7.721,13.268-7.988C472.021,205.091,476.614,208.042,479.387,210.394z"/>
				</g>
				<g>
					<path style="fill:#924632;" d="M416.101,166.011c-1.01,0.911-1.754,2.18-1.802,3.539c-0.007,0.185,0.001,0.375,0.074,0.545
						c0.097,0.225,0.299,0.388,0.51,0.511c0.959,0.558,2.169,0.443,3.231,0.122c1.062-0.321,2.07-0.83,3.161-1.028
						c1.737-0.315,3.677-0.065,4.691-1.853c0.697-1.23,0.387-2.432-0.682-3.307C422.667,162.398,418.301,164.028,416.101,166.011z"
						/>
					<path style="fill:#924632;" d="M493.314,163.775c-0.568,0.3-1.142,0.675-1.417,1.256c-0.47,0.994,0.109,2.165,0.807,3.016
						c2.593,3.161,7.142,4.565,11.065,3.413c1.298-0.381,2.676-1.226,2.832-2.569c0.106-0.912-0.396-1.783-0.975-2.495
						C502.664,162.755,497.489,161.567,493.314,163.775z"/>
				</g>
				<g>
					<path style="fill:#924632;" d="M434.19,129.318c-7.433,25.516-29.91,37.165-39.273,41.004
						c-1.753-16.153-0.821-29.555-0.821-29.555C408.563,134.954,421.964,131.337,434.19,129.318z"/>
					<path style="fill:#924632;" d="M524.407,174.271c-28.179-9.253-34.858-32.927-36.433-43.822
						c24.074,5.48,36.877,16.175,36.877,16.175S525.649,158.118,524.407,174.271z"/>
				</g>
				<g>
					<path style="fill:#F7B38C;" d="M397.964,174.271c0,0-6.755-11.608-38.781-21.911c0,0,8.006,64.372,52.042,57.766
						L397.964,174.271z"/>
					<path style="fill:#F7B38C;" d="M518.06,175.646c0,0,9.257-19.913,32.026-27.919c0,0,3.002,62.396-34.528,57.594L518.06,175.646
						z"/>
					<g style="opacity:0.45;">
						<path style="fill:#E53C42;" d="M520.025,190.11c0.752-3.576,2.002-7.047,3.573-10.363c1.564-3.324,3.495-6.484,5.741-9.424
							c2.318-2.884,4.985-5.513,8.022-7.652c3.068-2.109,6.568-3.522,10.138-4.238c-3.372,1.431-6.464,3.218-9.257,5.425
							c-2.727,2.285-5.204,4.837-7.413,7.633c-2.193,2.811-4.13,5.824-5.924,8.936C523.149,183.559,521.473,186.764,520.025,190.11z
							"/>
						<path style="fill:#E53C42;" d="M525.483,178.986c1.981-2.234,4.7-3.686,7.541-4.532c2.855-0.798,5.932-1.012,8.796-0.168
							c-2.891,0.664-5.594,1.193-8.273,1.987C530.857,177.02,528.284,178.008,525.483,178.986z"/>
						<path style="fill:#E53C42;" d="M367.44,161.262c3.738,1.738,7.215,3.995,10.534,6.451c3.329,2.453,6.401,5.251,9.259,8.259
							c2.811,3.054,5.326,6.398,7.398,10.001c2.047,3.623,3.549,7.544,4.37,11.576c-0.898-1.869-1.493-3.816-2.566-5.565
							c-0.858-1.84-1.971-3.541-3.046-5.249c-2.305-3.323-4.771-6.523-7.543-9.475c-2.754-2.965-5.719-5.735-8.779-8.416
							c-1.53-1.341-3.108-2.633-4.727-3.875C370.763,163.666,369.102,162.476,367.44,161.262z"/>
						<path style="fill:#E53C42;" d="M373.802,179.006c2.721-0.948,5.618-1.043,8.432-0.718c1.407,0.199,2.799,0.482,4.148,0.949
							c1.339,0.445,2.803,1.159,3.589,2.412c-1.301-0.626-2.581-0.79-3.925-0.972l-4.049-0.51
							C379.3,179.796,376.619,179.553,373.802,179.006z"/>
					</g>
				</g>
				<path style="fill:#F7B38C;" d="M449.694,233.757l-1.458,33.523c0,0,17.282,14.575,33.939-1.457l-10.619-38.312L449.694,233.757z
					"/>
			</g>
		</g>
		<text transform="matrix(1 0 0 1 38.7739 144.1412)" style="fill:#2C303D; font-family:'BlackJack'; font-size:64.6811px;">Dear Santa</text>
		<g>
			<path style="fill:#E53C42;" d="M603.77,326.408v523.949H-8.504c0,0,0-53.413,0-128.744v-476.65
				c0-3.941,36.979-17.286,41.602-19.275c12.505-5.4,25.237-10.25,38.216-14.343c22.641-7.124,46.059-11.842,69.799-13.092
				c52.691-2.728,107.067,10.307,152.786,36.586c45.547,26.203,85.316,59.094,136.32,74.801
				C486.092,326.844,545.642,332.376,603.77,326.408z"/>
			<g>
				<g>
					<rect x="19.012" y="321.078" style="fill:#D32E39;" width="316.874" height="1.895"/>
				</g>
				<g>
					<rect x="19.012" y="354.942" style="fill:#D32E39;" width="387.265" height="1.895"/>
				</g>
				<g>
					<rect x="19.012" y="386.472" style="fill:#D32E39;" width="387.265" height="1.895"/>
				</g>
				<g>
					<rect x="19.012" y="413.149" style="fill:#D32E39;" width="387.265" height="1.895"/>
				</g>
				<g>
					<rect x="19.012" y="445.439" style="fill:#D32E39;" width="387.265" height="1.895"/>
				</g>
				<g>
					<rect x="19.012" y="477.73" style="fill:#D32E39;" width="539.462" height="1.895"/>
				</g>
				<g>
					<rect x="19.012" y="510.02" style="fill:#D32E39;" width="539.462" height="1.895"/>
				</g>
				<g>
					<rect x="19.012" y="542.311" style="fill:#D32E39;" width="539.462" height="1.895"/>
				</g>
				<g>
					<rect x="120.827" y="574.601" style="fill:#D32E39;" width="437.647" height="1.895"/>
				</g>
				<g>
					<rect x="120.827" y="606.892" style="fill:#D32E39;" width="437.647" height="1.895"/>
				</g>
				<g>
					<rect x="120.827" y="639.181" style="fill:#D32E39;" width="437.647" height="1.895"/>
				</g>
				<g>
					<rect x="227.339" y="671.471" style="fill:#D32E39;" width="331.135" height="1.895"/>
				</g>
				<g>
					<rect x="227.339" y="703.762" style="fill:#D32E39;" width="331.135" height="1.895"/>
				</g>
				<g>
					<rect x="227.339" y="736.053" style="fill:#D32E39;" width="331.135" height="1.895"/>
				</g>
			</g>
			<g>
				<g>
					<path style="fill:#FFFFFF;" d="M-6.629,274.293c-0.335,0-0.661-0.178-0.833-0.495c-0.25-0.46-0.08-1.035,0.381-1.285
						c1.112-0.604,2.228-1.204,3.342-1.798c0.459-0.244,1.032-0.075,1.282,0.389c0.246,0.461,0.072,1.035-0.39,1.281
						c-1.11,0.593-2.222,1.191-3.33,1.793C-6.32,274.256-6.475,274.293-6.629,274.293z"/>
					<path style="fill:#FFFFFF;" d="M569.79,366.195c-0.522,0-0.947-0.424-0.947-0.946c0-0.524,0.424-0.948,0.947-0.948
						c2.509-0.002,5.02-0.022,7.529-0.061c0.463,0.028,0.955,0.409,0.962,0.933c0.007,0.524-0.409,0.954-0.933,0.962
						C574.828,366.173,572.31,366.194,569.79,366.195z M562.246,366.145c-0.004,0-0.009,0-0.013,0
						c-1.414-0.02-2.825-0.046-4.237-0.078c-1.108-0.025-2.215-0.054-3.321-0.086c-0.524-0.016-0.934-0.452-0.919-0.975
						c0.015-0.523,0.435-0.895,0.975-0.92c1.103,0.032,2.206,0.061,3.308,0.086c1.406,0.031,2.814,0.057,4.22,0.078
						c0.524,0.007,0.942,0.438,0.934,0.961C563.186,365.73,562.762,366.145,562.246,366.145z M584.873,365.966
						c-0.511,0-0.932-0.406-0.947-0.92c-0.015-0.523,0.396-0.959,0.92-0.975c2.509-0.073,5.016-0.165,7.525-0.273
						c0.465-0.054,0.964,0.383,0.988,0.906c0.022,0.523-0.383,0.965-0.907,0.987c-2.516,0.108-5.035,0.2-7.551,0.275
						C584.891,365.966,584.882,365.966,584.873,365.966z M547.168,365.696c-0.015,0-0.03,0-0.044-0.001
						c-2.518-0.117-5.033-0.254-7.545-0.412c-0.522-0.032-0.92-0.483-0.886-1.005c0.033-0.522,0.444-0.918,1.005-0.886
						c2.502,0.157,5.009,0.293,7.516,0.41c0.522,0.024,0.927,0.468,0.901,0.99C548.092,365.3,547.672,365.696,547.168,365.696z
						 M532.117,364.749c-0.026,0-0.052-0.001-0.078-0.003c-2.513-0.201-5.02-0.421-7.527-0.663c-0.522-0.05-0.903-0.513-0.853-1.033
						c0.05-0.522,0.526-0.906,1.034-0.852c2.496,0.241,4.996,0.461,7.497,0.66c0.522,0.042,0.91,0.499,0.868,1.02
						C533.02,364.372,532.605,364.749,532.117,364.749z M517.104,363.299c-0.037,0-0.072-0.002-0.109-0.006
						c-2.503-0.284-5.005-0.59-7.501-0.917c-0.52-0.068-0.884-0.543-0.818-1.062c0.069-0.518,0.557-0.888,1.062-0.816
						c2.489,0.325,4.979,0.629,7.471,0.913c0.52,0.058,0.894,0.528,0.834,1.048C517.988,362.942,517.577,363.299,517.104,363.299z
						 M502.15,361.342c-0.046,0-0.094-0.004-0.141-0.01c-2.494-0.369-4.983-0.76-7.468-1.173c-0.516-0.085-0.864-0.574-0.779-1.09
						c0.085-0.516,0.566-0.87,1.09-0.779c2.474,0.411,4.951,0.8,7.434,1.168c0.518,0.077,0.875,0.558,0.797,1.076
						C503.016,361.004,502.611,361.342,502.15,361.342z M487.268,358.873c-0.057,0-0.115-0.005-0.174-0.016
						c-2.477-0.456-4.951-0.932-7.421-1.43c-0.513-0.104-0.846-0.603-0.742-1.116c0.104-0.514,0.609-0.848,1.116-0.742
						c2.459,0.496,4.922,0.97,7.392,1.425c0.514,0.094,0.855,0.588,0.76,1.103C488.114,358.554,487.716,358.873,487.268,358.873z
						 M472.477,355.889c-0.067,0-0.135-0.007-0.203-0.022c-2.459-0.541-4.916-1.105-7.368-1.689
						c-0.509-0.121-0.823-0.633-0.701-1.142c0.12-0.509,0.627-0.828,1.142-0.701c2.44,0.583,4.887,1.142,7.334,1.682
						c0.511,0.113,0.834,0.618,0.722,1.129C473.304,355.588,472.914,355.889,472.477,355.889z M457.805,352.389
						c-0.078,0-0.157-0.009-0.237-0.03c-2.439-0.628-4.874-1.278-7.303-1.949c-0.505-0.14-0.801-0.661-0.662-1.166
						c0.139-0.504,0.672-0.797,1.166-0.66c2.418,0.668,4.842,1.315,7.273,1.94c0.505,0.13,0.81,0.647,0.681,1.154
						C458.612,352.105,458.227,352.389,457.805,352.389z M443.264,348.372c-0.089,0-0.18-0.012-0.268-0.039
						c-2.416-0.715-4.827-1.452-7.233-2.208c-0.5-0.157-0.775-0.689-0.618-1.189c0.155-0.498,0.692-0.773,1.188-0.619
						c2.394,0.755,4.794,1.488,7.199,2.199c0.501,0.149,0.788,0.675,0.64,1.178C444.05,348.105,443.673,348.372,443.264,348.372z
						 M428.874,343.836c-0.1,0-0.202-0.016-0.302-0.049c-2.389-0.8-4.772-1.623-7.147-2.466c-0.494-0.175-0.751-0.717-0.576-1.21
						c0.176-0.492,0.727-0.747,1.208-0.575c2.365,0.84,4.737,1.659,7.118,2.455c0.496,0.166,0.762,0.703,0.598,1.199
						C429.64,343.586,429.27,343.836,428.874,343.836z M414.655,338.784c-0.111,0-0.224-0.019-0.333-0.06
						c-2.361-0.885-4.713-1.794-7.057-2.724c-0.487-0.193-0.724-0.744-0.531-1.23c0.194-0.486,0.746-0.724,1.23-0.531
						c2.333,0.926,4.674,1.83,7.023,2.711c0.49,0.184,0.738,0.73,0.553,1.22C415.399,338.55,415.038,338.784,414.655,338.784z
						 M400.627,333.222c-0.122,0-0.246-0.023-0.365-0.073c-2.324-0.971-4.642-1.964-6.951-2.98c-0.479-0.21-0.698-0.769-0.487-1.248
						c0.213-0.479,0.773-0.693,1.249-0.486c2.298,1.01,4.605,1.999,6.918,2.965c0.483,0.202,0.711,0.757,0.509,1.24
						C401.348,333.004,400.997,333.222,400.627,333.222z M386.811,327.15c-0.133,0-0.268-0.028-0.396-0.087
						c-1.295-0.598-2.589-1.202-3.878-1.814c-0.99-0.47-1.978-0.945-2.962-1.426c-0.47-0.23-0.664-0.798-0.435-1.268
						c0.233-0.47,0.799-0.661,1.267-0.435c0.977,0.477,1.958,0.95,2.942,1.416c1.284,0.609,2.57,1.211,3.858,1.805
						c0.475,0.219,0.683,0.782,0.464,1.257C387.512,326.946,387.168,327.15,386.811,327.15z M373.256,320.524
						c-0.148,0-0.298-0.034-0.437-0.106c-2.237-1.163-4.461-2.352-6.67-3.564c-0.459-0.252-0.627-0.827-0.376-1.286
						c0.252-0.461,0.833-0.626,1.286-0.376c2.198,1.204,4.407,2.388,6.633,3.543c0.464,0.241,0.646,0.813,0.403,1.278
						C373.927,320.338,373.598,320.524,373.256,320.524z M360.026,313.278c-0.161,0-0.322-0.041-0.472-0.126
						c-2.185-1.254-4.359-2.528-6.522-3.819c-0.45-0.267-0.598-0.849-0.329-1.299c0.27-0.451,0.853-0.597,1.299-0.327
						c2.156,1.285,4.318,2.553,6.496,3.802c0.453,0.26,0.611,0.839,0.35,1.293C360.672,313.107,360.354,313.278,360.026,313.278z
						 M347.067,305.559c-0.17,0-0.342-0.045-0.496-0.141c-2.144-1.32-4.281-2.653-6.411-3.997c-0.442-0.278-0.575-0.864-0.296-1.306
						c0.279-0.444,0.866-0.574,1.306-0.296c2.126,1.34,4.256,2.669,6.393,3.986c0.446,0.275,0.585,0.858,0.311,1.303
						C347.694,305.399,347.384,305.559,347.067,305.559z M334.302,297.518c-0.176,0-0.353-0.048-0.513-0.151
						c-2.115-1.359-4.228-2.725-6.339-4.096c-0.439-0.285-0.563-0.872-0.277-1.311c0.287-0.439,0.875-0.561,1.31-0.278
						c2.107,1.369,4.217,2.734,6.332,4.093c0.44,0.282,0.568,0.869,0.285,1.309C334.918,297.364,334.613,297.518,334.302,297.518z
						 M321.645,289.304c-0.178,0-0.359-0.05-0.518-0.155l-6.315-4.126c-0.439-0.286-0.561-0.872-0.276-1.311
						c0.287-0.439,0.879-0.559,1.312-0.275l6.315,4.126c0.438,0.286,0.561,0.872,0.276,1.311
						C322.257,289.154,321.954,289.304,321.645,289.304z M309.008,281.065c-0.178,0-0.357-0.049-0.516-0.153
						c-2.108-1.367-4.219-2.729-6.335-4.083c-0.44-0.282-0.57-0.868-0.287-1.309c0.281-0.441,0.866-0.566,1.308-0.288
						c2.12,1.357,4.235,2.721,6.346,4.09c0.438,0.285,0.563,0.871,0.279,1.31C309.62,280.914,309.317,281.065,309.008,281.065z
						 M296.294,272.94c-0.17,0-0.346-0.046-0.501-0.145c-2.126-1.333-4.261-2.657-6.404-3.966c-0.446-0.273-0.586-0.856-0.314-1.303
						c0.276-0.447,0.857-0.588,1.303-0.315c2.15,1.313,4.289,2.64,6.422,3.979c0.444,0.277,0.577,0.862,0.3,1.305
						C296.92,272.783,296.611,272.94,296.294,272.94z M3.388,268.995c-0.342,0-0.673-0.187-0.842-0.513
						c-0.241-0.465-0.057-1.036,0.407-1.276c2.246-1.157,4.496-2.294,6.752-3.412c0.466-0.232,1.034-0.042,1.269,0.427
						c0.231,0.469,0.041,1.037-0.429,1.269c-2.244,1.114-4.487,2.247-6.722,3.399C3.684,268.962,3.534,268.995,3.388,268.995z
						 M283.419,265.078c-0.165,0-0.331-0.042-0.483-0.132c-2.159-1.278-4.33-2.538-6.511-3.777
						c-0.455-0.258-0.614-0.836-0.355-1.292c0.257-0.456,0.834-0.616,1.291-0.355c2.193,1.245,4.37,2.511,6.541,3.794
						c0.45,0.266,0.6,0.847,0.333,1.297C284.057,264.912,283.742,265.078,283.419,265.078z M16.912,262.286
						c-0.353,0-0.692-0.199-0.855-0.539c-0.226-0.473-0.026-1.038,0.448-1.263c2.279-1.088,4.564-2.155,6.853-3.2
						c0.479-0.216,1.038-0.007,1.256,0.468c0.216,0.475,0.007,1.038-0.468,1.254c-2.281,1.042-4.555,2.105-6.827,3.187
						C17.188,262.257,17.049,262.286,16.912,262.286z M270.298,257.631c-0.154,0-0.307-0.037-0.451-0.115
						c-2.204-1.194-4.42-2.365-6.654-3.511c-0.464-0.239-0.649-0.809-0.411-1.276c0.241-0.467,0.81-0.648,1.277-0.41
						c2.244,1.152,4.476,2.33,6.69,3.531c0.461,0.249,0.631,0.824,0.381,1.284C270.959,257.451,270.633,257.631,270.298,257.631z
						 M30.648,256.016c-0.365,0-0.712-0.212-0.868-0.568c-0.209-0.48,0.009-1.038,0.489-1.248c2.316-1.01,4.637-1.998,6.959-2.965
						c0.487-0.197,1.038,0.027,1.24,0.512c0.2,0.483-0.028,1.037-0.511,1.238c-2.315,0.962-4.624,1.946-6.929,2.953
						C30.903,255.991,30.776,256.016,30.648,256.016z M256.867,250.755c-0.139,0-0.277-0.03-0.409-0.092
						c-2.272-1.089-4.548-2.136-6.824-3.142c-0.479-0.212-0.696-0.772-0.483-1.25c0.209-0.478,0.775-0.692,1.249-0.484
						c2.294,1.015,4.585,2.07,6.876,3.166c0.472,0.227,0.672,0.792,0.446,1.264C257.559,250.557,257.221,250.755,256.867,250.755z
						 M44.59,250.224c-0.377,0-0.734-0.228-0.881-0.6c-0.192-0.487,0.046-1.036,0.533-1.229c2.352-0.926,4.707-1.828,7.066-2.707
						c0.492-0.178,1.036,0.068,1.219,0.558c0.181,0.49-0.067,1.035-0.557,1.218c-2.348,0.873-4.692,1.772-7.033,2.694
						C44.823,250.203,44.706,250.224,44.59,250.224z M58.741,244.963c-0.392,0-0.759-0.244-0.894-0.635
						c-0.174-0.494,0.087-1.034,0.581-1.207c2.389-0.833,4.777-1.641,7.17-2.422c0.509-0.159,1.032,0.111,1.195,0.608
						c0.161,0.497-0.109,1.031-0.607,1.194c-2.381,0.775-4.759,1.579-7.133,2.409C58.95,244.947,58.844,244.963,58.741,244.963z
						 M243.072,244.658c-0.119,0-0.239-0.022-0.355-0.069c-2.335-0.947-4.672-1.852-7.007-2.716c-0.49-0.181-0.74-0.726-0.559-1.217
						c0.181-0.49,0.727-0.742,1.217-0.56c2.354,0.87,4.707,1.782,7.059,2.737c0.487,0.197,0.72,0.749,0.522,1.234
						C243.801,244.435,243.446,244.658,243.072,244.658z M73.093,240.284c-0.407,0-0.783-0.264-0.907-0.673
						c-0.152-0.501,0.131-1.03,0.633-1.181c2.418-0.732,4.842-1.435,7.27-2.11c0.5-0.148,1.025,0.154,1.166,0.658
						c0.141,0.504-0.154,1.027-0.659,1.167c-2.413,0.671-4.822,1.37-7.229,2.098C73.276,240.271,73.184,240.284,73.093,240.284z
						 M228.923,239.43c-0.1,0-0.2-0.016-0.3-0.049c-2.387-0.797-4.774-1.551-7.159-2.264c-0.501-0.15-0.786-0.677-0.638-1.179
						c0.152-0.499,0.685-0.786,1.179-0.637c2.407,0.718,4.812,1.478,7.218,2.282c0.496,0.166,0.764,0.702,0.6,1.198
						C229.689,239.179,229.319,239.43,228.923,239.43z M87.636,236.243c-0.424,0-0.81-0.286-0.918-0.715
						c-0.13-0.507,0.178-1.022,0.685-1.151c2.451-0.621,4.905-1.211,7.36-1.77c0.527-0.117,1.018,0.204,1.134,0.714
						c0.117,0.51-0.204,1.018-0.712,1.133c-2.44,0.556-4.879,1.143-7.316,1.76C87.791,236.234,87.712,236.243,87.636,236.243z
						 M214.478,235.118c-0.079,0-0.161-0.01-0.24-0.031c-2.433-0.64-4.863-1.238-7.294-1.794c-0.511-0.117-0.829-0.624-0.712-1.134
						c0.117-0.509,0.62-0.832,1.134-0.712c2.45,0.56,4.901,1.163,7.353,1.809c0.507,0.133,0.809,0.651,0.675,1.157
						C215.283,234.837,214.898,235.118,214.478,235.118z M102.351,232.897c-0.44,0-0.836-0.311-0.927-0.76
						c-0.104-0.512,0.229-1.012,0.742-1.116c2.477-0.499,4.959-0.966,7.44-1.399c0.511-0.086,1.005,0.255,1.095,0.771
						c0.091,0.515-0.255,1.007-0.77,1.096c-2.466,0.429-4.929,0.894-7.392,1.39C102.477,232.891,102.414,232.897,102.351,232.897z
						 M199.778,231.756c-0.061,0-0.122-0.005-0.183-0.018c-2.463-0.479-4.929-0.916-7.392-1.312
						c-0.516-0.083-0.868-0.569-0.785-1.086c0.081-0.517,0.568-0.869,1.084-0.785c2.485,0.4,4.97,0.84,7.455,1.323
						c0.512,0.1,0.849,0.597,0.749,1.11C200.618,231.442,200.222,231.756,199.778,231.756z M117.216,230.303
						c-0.461,0-0.866-0.339-0.936-0.809c-0.076-0.518,0.283-0.999,0.799-1.075c2.5-0.367,5.001-0.701,7.505-0.999
						c0.516-0.064,0.99,0.307,1.053,0.829c0.063,0.52-0.309,0.991-0.829,1.053c-2.487,0.296-4.97,0.626-7.451,0.992
						C117.308,230.3,117.262,230.303,117.216,230.303z M184.889,229.365c-0.041,0-0.081-0.003-0.122-0.007
						c-2.489-0.318-4.977-0.594-7.464-0.829c-0.522-0.049-0.903-0.511-0.855-1.032c0.05-0.523,0.542-0.912,1.033-0.854
						c2.509,0.237,5.016,0.514,7.527,0.834c0.518,0.067,0.886,0.541,0.82,1.06C185.766,229.017,185.359,229.365,184.889,229.365z
						 M132.199,228.522c-0.485,0-0.897-0.37-0.942-0.862c-0.046-0.521,0.337-0.982,0.859-1.029c2.514-0.228,5.031-0.419,7.551-0.572
						c0.592-0.034,0.971,0.367,1.003,0.888c0.031,0.522-0.366,0.971-0.888,1.003c-2.502,0.153-4.999,0.342-7.495,0.568
						C132.257,228.521,132.229,228.522,132.199,228.522z M169.878,227.946c-0.02,0-0.041-0.001-0.061-0.002
						c-2.503-0.156-5.003-0.272-7.505-0.348c-0.522-0.017-0.933-0.453-0.918-0.976c0.017-0.523,0.361-0.913,0.977-0.919
						c2.52,0.078,5.042,0.193,7.564,0.352c0.522,0.032,0.92,0.483,0.886,1.005C170.79,227.561,170.374,227.946,169.878,227.946z
						 M147.258,227.604c-0.511,0-0.931-0.405-0.947-0.918c-0.017-0.523,0.394-0.96,0.918-0.976c2.522-0.08,5.048-0.12,7.571-0.121
						c0.524,0,0.947,0.424,0.947,0.947c0,0.523-0.424,0.947-0.947,0.947c-2.505,0.001-5.009,0.042-7.512,0.119
						C147.279,227.604,147.268,227.604,147.258,227.604z"/>
					<path style="fill:#FFFFFF;" d="M599.982,365.316c-0.5,0-0.918-0.39-0.945-0.894c-0.03-0.523,0.37-0.97,0.892-0.999
						c1.258-0.071,2.518-0.146,3.776-0.226c0.585-0.012,0.973,0.365,1.005,0.885c0.033,0.523-0.365,0.972-0.886,1.006
						c-1.262,0.08-2.526,0.154-3.787,0.226C600.017,365.315,599.999,365.316,599.982,365.316z"/>
				</g>
				<path style="fill:#D32E39;" d="M582.863,826.639h-7.579c-0.524,0-0.947-0.424-0.947-0.947s0.424-0.947,0.947-0.947h7.579
					c0.524,0,0.947,0.424,0.947,0.947S583.387,826.639,582.863,826.639z M567.706,826.639h-7.579c-0.524,0-0.947-0.424-0.947-0.947
					s0.424-0.947,0.947-0.947h7.579c0.524,0,0.947,0.424,0.947,0.947S568.23,826.639,567.706,826.639z M552.549,826.639h-7.579
					c-0.524,0-0.947-0.424-0.947-0.947s0.424-0.947,0.947-0.947h7.579c0.524,0,0.947,0.424,0.947,0.947
					S553.073,826.639,552.549,826.639z M537.392,826.639h-7.579c-0.524,0-0.947-0.424-0.947-0.947s0.424-0.947,0.947-0.947h7.579
					c0.524,0,0.947,0.424,0.947,0.947S537.915,826.639,537.392,826.639z M522.234,826.639h-7.579c-0.524,0-0.947-0.424-0.947-0.947
					s0.424-0.947,0.947-0.947h7.579c0.524,0,0.947,0.424,0.947,0.947S522.758,826.639,522.234,826.639z M507.077,826.639h-7.579
					c-0.524,0-0.947-0.424-0.947-0.947s0.424-0.947,0.947-0.947h7.579c0.524,0,0.947,0.424,0.947,0.947
					S507.601,826.639,507.077,826.639z M491.92,826.639h-7.579c-0.524,0-0.947-0.424-0.947-0.947s0.424-0.947,0.947-0.947h7.579
					c0.524,0,0.947,0.424,0.947,0.947S492.443,826.639,491.92,826.639z M476.763,826.639h-7.579c-0.524,0-0.947-0.424-0.947-0.947
					s0.424-0.947,0.947-0.947h7.579c0.524,0,0.947,0.424,0.947,0.947S477.286,826.639,476.763,826.639z M461.605,826.639h-7.579
					c-0.524,0-0.947-0.424-0.947-0.947s0.424-0.947,0.947-0.947h7.579c0.524,0,0.947,0.424,0.947,0.947
					S462.129,826.639,461.605,826.639z M446.448,826.639h-7.579c-0.524,0-0.947-0.424-0.947-0.947s0.424-0.947,0.947-0.947h7.579
					c0.524,0,0.947,0.424,0.947,0.947S446.972,826.639,446.448,826.639z M431.291,826.639h-7.579c-0.524,0-0.947-0.424-0.947-0.947
					s0.424-0.947,0.947-0.947h7.579c0.524,0,0.947,0.424,0.947,0.947S431.814,826.639,431.291,826.639z M416.133,826.639h-7.579
					c-0.524,0-0.947-0.424-0.947-0.947s0.424-0.947,0.947-0.947h7.579c0.524,0,0.947,0.424,0.947,0.947
					S416.657,826.639,416.133,826.639z M400.976,826.639h-7.579c-0.524,0-0.947-0.424-0.947-0.947s0.424-0.947,0.947-0.947h7.579
					c0.524,0,0.947,0.424,0.947,0.947S401.5,826.639,400.976,826.639z M385.819,826.639h-7.579c-0.524,0-0.947-0.424-0.947-0.947
					s0.424-0.947,0.947-0.947h7.579c0.524,0,0.947,0.424,0.947,0.947S386.343,826.639,385.819,826.639z M370.662,826.639h-7.579
					c-0.524,0-0.947-0.424-0.947-0.947s0.424-0.947,0.947-0.947h7.579c0.524,0,0.947,0.424,0.947,0.947
					S371.185,826.639,370.662,826.639z M355.504,826.639h-7.579c-0.524,0-0.947-0.424-0.947-0.947s0.424-0.947,0.947-0.947h7.579
					c0.524,0,0.947,0.424,0.947,0.947S356.028,826.639,355.504,826.639z M340.347,826.639h-7.579c-0.524,0-0.947-0.424-0.947-0.947
					s0.424-0.947,0.947-0.947h7.579c0.524,0,0.947,0.424,0.947,0.947S340.871,826.639,340.347,826.639z M325.19,826.639h-7.579
					c-0.524,0-0.947-0.424-0.947-0.947s0.424-0.947,0.947-0.947h7.579c0.524,0,0.947,0.424,0.947,0.947
					S325.714,826.639,325.19,826.639z M310.033,826.639h-7.579c-0.524,0-0.947-0.424-0.947-0.947s0.424-0.947,0.947-0.947h7.579
					c0.524,0,0.947,0.424,0.947,0.947S310.556,826.639,310.033,826.639z M584.547,820.744c-0.524,0-0.947-0.424-0.947-0.947v-7.579
					c0-0.524,0.424-0.947,0.947-0.947c0.524,0,0.947,0.424,0.947,0.947v7.579C585.495,820.321,585.071,820.744,584.547,820.744z
					 M584.547,805.587c-0.524,0-0.947-0.424-0.947-0.947v-7.579c0-0.524,0.424-0.947,0.947-0.947c0.524,0,0.947,0.424,0.947,0.947
					v7.579C585.495,805.163,585.071,805.587,584.547,805.587z M584.547,790.43c-0.524,0-0.947-0.424-0.947-0.947v-7.579
					c0-0.524,0.424-0.947,0.947-0.947c0.524,0,0.947,0.424,0.947,0.947v7.579C585.495,790.006,585.071,790.43,584.547,790.43z
					 M584.547,775.273c-0.524,0-0.947-0.424-0.947-0.947v-7.579c0-0.524,0.424-0.947,0.947-0.947c0.524,0,0.947,0.424,0.947,0.947
					v7.579C585.495,774.849,585.071,775.273,584.547,775.273z M584.547,760.115c-0.524,0-0.947-0.424-0.947-0.947v-7.579
					c0-0.524,0.424-0.947,0.947-0.947c0.524,0,0.947,0.424,0.947,0.947v7.579C585.495,759.692,585.071,760.115,584.547,760.115z
					 M584.547,744.958c-0.524,0-0.947-0.424-0.947-0.947v-7.579c0-0.524,0.424-0.947,0.947-0.947c0.524,0,0.947,0.424,0.947,0.947
					v7.579C585.495,744.534,585.071,744.958,584.547,744.958z M584.547,729.801c-0.524,0-0.947-0.424-0.947-0.947v-7.579
					c0-0.524,0.424-0.947,0.947-0.947c0.524,0,0.947,0.424,0.947,0.947v7.579C585.495,729.377,585.071,729.801,584.547,729.801z
					 M584.547,714.643c-0.524,0-0.947-0.424-0.947-0.947v-7.579c0-0.524,0.424-0.947,0.947-0.947c0.524,0,0.947,0.424,0.947,0.947
					v7.579C585.495,714.22,585.071,714.643,584.547,714.643z M584.547,699.486c-0.524,0-0.947-0.424-0.947-0.947v-7.579
					c0-0.524,0.424-0.947,0.947-0.947c0.524,0,0.947,0.424,0.947,0.947v7.579C585.495,699.062,585.071,699.486,584.547,699.486z
					 M584.547,684.329c-0.524,0-0.947-0.424-0.947-0.947v-7.579c0-0.524,0.424-0.947,0.947-0.947c0.524,0,0.947,0.424,0.947,0.947
					v7.579C585.495,683.905,585.071,684.329,584.547,684.329z M584.547,669.172c-0.524,0-0.947-0.424-0.947-0.947v-7.579
					c0-0.524,0.424-0.947,0.947-0.947c0.524,0,0.947,0.424,0.947,0.947v7.579C585.495,668.748,585.071,669.172,584.547,669.172z
					 M584.547,654.014c-0.524,0-0.947-0.424-0.947-0.947v-7.579c0-0.524,0.424-0.947,0.947-0.947c0.524,0,0.947,0.424,0.947,0.947
					v7.579C585.495,653.591,585.071,654.014,584.547,654.014z M584.547,638.857c-0.524,0-0.947-0.424-0.947-0.947v-7.579
					c0-0.524,0.424-0.947,0.947-0.947c0.524,0,0.947,0.424,0.947,0.947v7.579C585.495,638.433,585.071,638.857,584.547,638.857z
					 M584.547,623.7c-0.524,0-0.947-0.424-0.947-0.947v-7.579c0-0.524,0.424-0.947,0.947-0.947c0.524,0,0.947,0.424,0.947,0.947
					v7.579C585.495,623.276,585.071,623.7,584.547,623.7z M584.547,608.542c-0.524,0-0.947-0.424-0.947-0.947v-7.579
					c0-0.524,0.424-0.947,0.947-0.947c0.524,0,0.947,0.424,0.947,0.947v7.579C585.495,608.119,585.071,608.542,584.547,608.542z
					 M584.547,593.385c-0.524,0-0.947-0.424-0.947-0.947v-7.579c0-0.524,0.424-0.947,0.947-0.947c0.524,0,0.947,0.424,0.947,0.947
					v7.579C585.495,592.961,585.071,593.385,584.547,593.385z M584.547,578.228c-0.524,0-0.947-0.424-0.947-0.947v-7.579
					c0-0.524,0.424-0.947,0.947-0.947c0.524,0,0.947,0.424,0.947,0.947v7.579C585.495,577.804,585.071,578.228,584.547,578.228z
					 M584.547,563.071c-0.524,0-0.947-0.424-0.947-0.947v-7.579c0-0.524,0.424-0.947,0.947-0.947c0.524,0,0.947,0.424,0.947,0.947
					v7.579C585.495,562.647,585.071,563.071,584.547,563.071z M584.547,547.913c-0.524,0-0.947-0.424-0.947-0.947v-7.579
					c0-0.524,0.424-0.947,0.947-0.947c0.524,0,0.947,0.424,0.947,0.947v7.579C585.495,547.49,585.071,547.913,584.547,547.913z
					 M584.547,532.756c-0.524,0-0.947-0.424-0.947-0.947v-7.579c0-0.524,0.424-0.947,0.947-0.947c0.524,0,0.947,0.424,0.947,0.947
					v7.579C585.495,532.332,585.071,532.756,584.547,532.756z M584.547,517.599c-0.524,0-0.947-0.424-0.947-0.947v-7.579
					c0-0.524,0.424-0.947,0.947-0.947c0.524,0,0.947,0.424,0.947,0.947v7.579C585.495,517.175,585.071,517.599,584.547,517.599z
					 M584.547,502.442c-0.524,0-0.947-0.424-0.947-0.947v-7.579c0-0.524,0.424-0.947,0.947-0.947c0.524,0,0.947,0.424,0.947,0.947
					v7.579C585.495,502.018,585.071,502.442,584.547,502.442z M584.547,487.284c-0.524,0-0.947-0.424-0.947-0.947v-7.579
					c0-0.524,0.424-0.947,0.947-0.947c0.524,0,0.947,0.424,0.947,0.947v7.579C585.495,486.861,585.071,487.284,584.547,487.284z
					 M584.547,472.127c-0.524,0-0.947-0.424-0.947-0.947v-7.579c0-0.524,0.424-0.947,0.947-0.947c0.524,0,0.947,0.424,0.947,0.947
					v7.579C585.495,471.703,585.071,472.127,584.547,472.127z M584.547,456.97c-0.524,0-0.947-0.424-0.947-0.947v-7.579
					c0-0.524,0.424-0.947,0.947-0.947c0.524,0,0.947,0.424,0.947,0.947v7.579C585.495,456.546,585.071,456.97,584.547,456.97z
					 M584.547,441.813c-0.524,0-0.947-0.424-0.947-0.947v-7.579c0-0.524,0.424-0.947,0.947-0.947c0.524,0,0.947,0.424,0.947,0.947
					v7.579C585.495,441.389,585.071,441.813,584.547,441.813z M584.547,426.655c-0.524,0-0.947-0.424-0.947-0.947v-7.579
					c0-0.524,0.424-0.947,0.947-0.947c0.524,0,0.947,0.424,0.947,0.947v7.579C585.495,426.232,585.071,426.655,584.547,426.655z
					 M584.547,411.498c-0.524,0-0.947-0.424-0.947-0.947v-7.579c0-0.524,0.424-0.947,0.947-0.947c0.524,0,0.947,0.424,0.947,0.947
					v7.579C585.495,411.074,585.071,411.498,584.547,411.498z M584.547,396.341c-0.524,0-0.947-0.424-0.947-0.947v-7.579
					c0-0.524,0.424-0.947,0.947-0.947c0.524,0,0.947,0.424,0.947,0.947v7.579C585.495,395.917,585.071,396.341,584.547,396.341z"/>
			</g>
			<g>
				<g>
					<g>
						<g>
							<path style="fill:#FFFFFF;" d="M248.345,800.184l-0.6-5.538c-0.805-7.442-4.404-44.634,3.819-46.005
								c0.89-0.142,1.693,0.122,2.313,0.781c4.911,5.234-3.314,41.248-4.267,45.337L248.345,800.184z M252.029,750.498
								c-0.048,0-0.098,0.004-0.154,0.013c-4.23,0.705-4.23,20.993-2.814,37.976c3.168-14.982,6.226-34.792,3.436-37.767
								C252.351,750.566,252.212,750.498,252.029,750.498z"/>
						</g>
						<g>
							<path style="fill:#FFFFFF;" d="M248.723,796.948l1.314-2.805c0.649-1.386,16.058-33.98,29.208-37.921
								c2.394-0.722,4.615-0.475,6.585,0.733c1.874,1.149,2.818,2.725,2.809,4.683c-0.063,11.34-35.738,32.81-37.257,33.719
								L248.723,796.948z M281.848,757.714c-0.655,0-1.34,0.107-2.059,0.324c-10.149,3.042-22.453,25.802-26.597,33.989
								c11.427-7.146,33.51-22.566,33.553-30.4c0.005-1.266-0.616-2.267-1.906-3.055
								C283.903,757.998,282.913,757.714,281.848,757.714z"/>
						</g>
					</g>
					<g>
						<path style="fill:#FFFFFF;" d="M344.229,808.625c-1.641,0-3.286-0.749-4.304-1.969c-1.504-1.8-2.035-4.507-1.493-7.623
							c0.672-3.856,2.433-7.081,4.82-9.771c-2.335-3.721-5.671-7.049-9.773-9.577c-7.103-4.38-15.983-6.544-27.946-6.813
							c-24.264-0.531-44.828,8.045-54.773,22.995l-1.577-1.051c10.306-15.49,31.388-24.403,56.394-23.839
							c12.143,0.274,21.596,2.594,28.897,7.094c4.202,2.59,7.651,5.984,10.125,9.788c5.987-5.767,14.846-8.787,20.86-10.265
							c16.926-4.161,34.267-5.114,51.554-2.831c13.07,1.728,25.959,5.342,38.424,8.835c5.775,1.619,11.744,3.294,17.648,4.755
							c15.838,3.922,36.568,7.753,56.503,2.551c20.121-5.253,35.462-19.724,39.079-36.866l1.854,0.392
							c-3.765,17.838-19.644,32.875-40.456,38.306c-20.344,5.308-41.381,1.43-57.436-2.544c-5.932-1.469-11.916-3.147-17.703-4.77
							c-12.402-3.477-25.226-7.072-38.161-8.779c-17.046-2.252-34.158-1.312-50.854,2.79c-5.887,1.449-14.643,4.424-20.305,10.091
							c2.439,4.363,3.626,9.17,3.255,13.877c-0.094,1.199-0.311,2.57-1.188,3.669c-0.788,0.986-1.991,1.539-3.384,1.554
							C344.27,808.625,344.249,808.625,344.229,808.625z M344.257,791c-1.963,2.354-3.393,5.116-3.96,8.359
							c-0.257,1.48-0.457,4.239,1.082,6.084c0.664,0.794,1.784,1.38,2.888,1.288c0.472-0.006,1.349-0.122,1.924-0.844
							c0.559-0.698,0.707-1.723,0.781-2.635C347.299,799.117,346.31,794.889,344.257,791z"/>
					</g>
					<g>
						<path style="fill:#35B18C;" d="M287.248,850.357H167.904l0.341-3.695l0.133-1.421l0.284-2.975l0.133-1.421l0.455-4.85
							l0.151-1.421l0.36-3.846l0.132-1.421l0.455-4.831l0.133-1.402l0.266-2.956l0.132-1.421l0.341-3.581l0.132-1.421l0.379-3.922
							l0.132-1.421l0.379-4.074l0.133-1.421l0.379-3.903l0.133-1.421l0.246-2.747l0.133-1.421l0.436-4.547
							c0.398-0.531,5.343-0.436,12.941,0.038c11.918,0.758,30.353,2.482,47.992,4.263c3.941,0.379,7.825,0.777,11.595,1.175h0.019
							c11.842,1.232,22.49,2.368,29.424,3.126c5.191,0.568,8.318,0.909,8.318,0.909l0.037,0.493l0.228,3.714l0.095,1.402l0.208,3.41
							l0.076,1.421l0.209,3.05l0.075,1.402l0.303,4.85l0.095,1.402l0.284,4.509l0.076,1.421l0.246,3.865l0.095,1.421l0.171,2.577
							l0.076,1.421l0.246,3.808l0.076,1.402l0.322,5.078l0.095,1.421L287.248,850.357z"/>
						<path style="fill:#FBC26C;" d="M287.002,846.397c-39.579,0.095-79.178,0.171-118.757,0.265l0.133-1.421
							c39.503-0.095,79.026-0.17,118.53-0.265L287.002,846.397z"/>
						<polygon style="fill:#FBC26C;" points="286.585,839.899 168.661,842.267 168.794,840.846 286.509,838.497 						"/>
						<path style="fill:#FBC26C;" d="M286.263,834.688c-39.011,0.265-78.022,0.701-117.014,1.307l0.151-1.421
							c38.916-0.606,77.852-1.042,116.787-1.307L286.263,834.688z"/>
						<path style="fill:#FBC26C;" d="M286.016,830.691c-38.746,0.227-77.51,0.227-116.256,0.038l0.132-1.421
							c38.67,0.189,77.359,0.189,116.029-0.038L286.016,830.691z"/>
						<path style="fill:#FBC26C;" d="M285.6,823.984c-38.367-0.076-76.753-0.379-115.119-0.909l-0.133,1.402
							c38.443,0.549,76.885,0.853,115.328,0.928L285.6,823.984z"/>
						<path style="fill:#FBC26C;" d="M285.315,819.474c-38.178,1.535-76.393,1.175-114.57,0.644l0.132-1.421
							c38.102,0.531,76.241,0.891,114.343-0.625L285.315,819.474z"/>
						<path style="fill:#FBC26C;" d="M284.917,813.222c-37.874,2.179-75.786,2.823-113.698,1.895l0.132-1.421
							c37.836,0.928,75.692,0.284,113.49-1.876L284.917,813.222z"/>
						<path style="fill:#FBC26C;" d="M284.633,808.769c-37.571,2.406-75.237,1.838-112.903,1.004l0.132-1.421
							c37.59,0.834,75.18,1.402,112.694-1.004L284.633,808.769z"/>
						<path style="fill:#FBC26C;" d="M284.349,803.938c-37.192,2.709-74.858,0.947-112.107,0.341l0.133-1.421
							c37.173,0.606,74.763,2.349,111.88-0.322L284.349,803.938z"/>
						<path style="fill:#FBC26C;" d="M284.027,798.822c-37.097,0.057-74.176,0.095-111.273,0.133l0.133-1.421
							c34.275-0.038,68.511-0.076,102.785-0.114c5.191,0.568,8.318,0.909,8.318,0.909L284.027,798.822z"/>
						<path style="fill:#FBC26C;" d="M246.229,794.294c-24.347,0.568-48.731,0.739-73.096,0.493l0.133-1.421
							c20.463,0.208,40.925,0.133,61.368-0.246C238.574,793.498,242.458,793.896,246.229,794.294z"/>
					</g>
				</g>
				<g>
					<g>
						<g>
							<g>
								<path style="fill:#FBC26C;" d="M143.991,738.506l-0.392-6.635c-0.111-1.868-2.579-45.914,8.907-58.022
									c2.093-2.207,4.542-3.325,7.284-3.325c3.353,0,5.081,1.703,5.941,3.132c6.829,11.358-15.953,54.154-18.573,58.996
									L143.991,738.506z M159.79,674.29c-1.68,0-3.16,0.701-4.528,2.141c-7.804,8.228-8.341,35.091-8.117,48.073
									c8.981-17.772,19.161-42.549,15.333-48.915C162.114,674.984,161.481,674.29,159.79,674.29z"/>
							</g>
							<g>
								<path style="fill:#FBC26C;" d="M139.321,735.33l4.814-4.886c1.63-1.653,40.082-40.459,57.961-39.036
									c3.021,0.248,5.384,1.552,7.022,3.878c1.602,2.275,1.954,4.827,1.012,7.382c-5.564,15.116-58.176,29.341-64.156,30.913
									L139.321,735.33z M201.006,695.131c-11.879,0-35.862,20.402-48.941,32.835c18.582-5.456,50.891-16.768,54.507-26.594
									c0.518-1.405,0.34-2.652-0.559-3.928c-0.975-1.383-2.357-2.13-4.228-2.284C201.532,695.141,201.273,695.131,201.006,695.131
									z"/>
							</g>
						</g>
						<path style="fill:#2C303D;" d="M177.409,739.781c0,0-0.098,7.578-0.294,18.908c-0.016,1.717-0.049,3.506-0.065,5.382
							c-0.147,8.498-0.311,18.483-0.507,28.717c-0.408,22.024-0.964,45.235-1.568,57.469H36.734l56.45-103.943l0.425-1.186
							l1.781-4.993l7.744-21.688l42.072,12.092l4.754,1.363L177.409,739.781z"/>
					</g>
					<path style="fill:#FBC26C;" d="M177.115,759.23c-0.016,1.728-0.049,3.527-0.065,5.415c-11.241-2.227-22.482-4.578-33.674-7.072
						c-8.12,31.262-16.224,62.524-24.361,93.785h-5.081c8.218-31.618,16.42-63.236,24.622-94.854
						c-15.031-3.402-30.014-7.018-44.947-10.919l1.781-5.023c14.786,3.848,29.622,7.428,44.506,10.795
						c1.764-6.822,3.545-13.627,5.31-20.449l4.754,1.372c-1.765,6.715-3.513,13.431-5.245,20.146
						C155.499,754.812,166.283,757.092,177.115,759.23z"/>
				</g>
				<g>
					<g>
						<path style="fill:#FFFFFF;" d="M64.036,731.934l0.363-3.208c0.13-1.14,3.269-28.018,11.871-34.742
							c1.599-1.255,3.319-1.774,5.107-1.536c2.115,0.279,3.007,1.462,3.38,2.405c3.025,7.616-16.451,31.841-18.682,34.578
							L64.036,731.934z M80.54,694.289c-1.066,0-2.085,0.39-3.105,1.186c-6.265,4.9-9.549,22.562-10.685,30.061
							c6.668-8.576,18.225-24.999,16.245-29.983c-0.176-0.444-0.561-1.053-1.867-1.225C80.931,694.302,80.734,694.289,80.54,694.289
							z"/>
					</g>
					<g>
						<path style="fill:#FFFFFF;" d="M62.23,729.964l2.546-1.891c3.188-2.368,31.393-23.039,40.563-19.326
							c1.584,0.644,2.583,1.982,2.886,3.865c0.32,1.993-0.218,3.876-1.599,5.595c-7.631,9.503-39.864,11.492-41.231,11.572
							L62.23,729.964z M102.636,710.168c-7.741,0-24.978,11.041-34.013,17.455c8.52-0.775,30.786-3.453,36.526-10.602
							c1.047-1.303,1.441-2.646,1.204-4.109c-0.2-1.245-0.749-2.011-1.728-2.409C104.064,710.275,103.395,710.168,102.636,710.168z"
							/>
					</g>
					<g>
						<path style="fill:#31886F;" d="M133.515,769.19l-8.166,13.054l-1.496,2.387l-6.651,10.629l-1.515,2.425l-6.783,10.837
							l-1.497,2.406l-3.183,5.078l-1.497,2.406l-5.362,8.564l-1.497,2.406l-6.215,9.928l-1.516,2.406l-5.172,8.261l-0.228,0.379
							H-8.504c0,0,0-13.35,0-35.689V672.411l24.55,15.65l73.93,51.061L133.515,769.19z"/>
						<path style="fill:#FFFFFF;" d="M125.349,782.244l-1.496,2.387c-44.771-29.746-88.651-60.875-130.485-94.638v-3.657
							C35.637,720.611,80.048,752.119,125.349,782.244z"/>
						<path style="fill:#FFFFFF;" d="M117.202,795.26l-1.515,2.425C73.739,769.304,33.553,738.629-6.633,707.86v-3.524
							C34.065,735.465,74.743,766.537,117.202,795.26z"/>
						<path style="fill:#FFFFFF;" d="M108.904,808.523l-1.497,2.406C69.4,783.419,31.374,755.89-6.633,728.398v-3.505
							C31.886,752.782,70.404,780.653,108.904,808.523z"/>
						<path style="fill:#FFFFFF;" d="M104.224,816.007l-1.497,2.406c-36.889-24.744-73.342-50.095-109.36-76.089v-3.467
							C29.878,765.192,66.823,790.922,104.224,816.007z"/>
						<path style="fill:#FFFFFF;" d="M97.365,826.977l-1.497,2.406c-19.402-13.149-38.803-26.298-58.223-39.466
							C22.772,779.838,7.71,769.929-6.633,759.11v-3.543c15.745,12.031,32.399,22.887,48.787,33.99
							C60.571,802.043,78.968,814.51,97.365,826.977z"/>
						<path style="fill:#FFFFFF;" d="M89.654,839.311l-1.516,2.406c-31.414-21.789-62.77-43.729-94.771-64.646v-3.373
							C25.899,794.919,57.748,817.182,89.654,839.311z"/>
						<path style="fill:#FFFFFF;" d="M82.966,849.978l-0.228,0.379h-4.452l-84.919-54.396v-3.391
							C23.227,811.706,53.106,830.842,82.966,849.978z"/>
						<path style="fill:#FFFFFF;" d="M55.323,850.357h-5.513c-19.041-11.444-37.855-23.266-56.442-35.449v-3.372
							C13.754,824.893,34.405,837.852,55.323,850.357z"/>
					</g>
				</g>
				<g>
					<g>
						<g>
							<path style="fill:#FFFFFF;" d="M19.67,601.909l1.208-3.871c0.451-1.445,11.172-35.466,21.307-40.572
								c1.482-0.747,2.925-0.886,4.282-0.416c1.325,0.461,2.191,1.393,2.505,2.696c2.145,8.874-23.565,36.148-26.505,39.229
								L19.67,601.909z M44.859,558.672c-0.573,0-1.177,0.161-1.822,0.487c-7.449,3.752-15.771,26.009-18.984,35.338
								c8.931-9.773,24.512-28.374,23.078-34.307c-0.165-0.681-0.561-1.097-1.286-1.349
								C45.525,558.728,45.196,558.672,44.859,558.672z"/>
						</g>
						<g>
							<path style="fill:#FFFFFF;" d="M32.616,599.646c-5.932,0-10.356-0.337-10.909-0.381l-3.367-0.268l3.018-1.521
								c3.963-2,38.955-19.38,45.916-13.945c0.844,0.657,1.734,1.95,1.192,4.374C66.2,598,45.729,599.646,32.616,599.646z
								 M25.383,597.596c13.351,0.627,39.016-0.226,41.231-10.106c0.355-1.578-0.12-2.163-0.507-2.466
								C61.854,581.703,40.526,590.236,25.383,597.596z"/>
						</g>
					</g>
					<polygon style="fill:#2C303D;" points="59.889,623.623 16.046,688.061 -8.504,724.138 -8.504,568.887 					"/>
					<g>
						<path style="fill:#FFFFFF;" d="M4.353,592.069c-1.046-0.67-2.326-0.143-3.466,0.646c0.566-1.19,1.001-3.055-0.48-3.482
							c-2.042-0.589-2.464,2.676-2.713,3.918c-0.161,0.801-0.734,2.156-0.192,2.915c0.478,0.671,1.4,0.493,2.089,0.353
							c2.066-0.419,3.811-1.678,5.017-3.379C4.837,592.719,4.654,592.261,4.353,592.069z"/>
						<path style="fill:#FFFFFF;" d="M28.249,609.253c-0.979,0.322-1.941,0.69-2.874,1.129c-0.312,0.147-1.428,0.886-2.185,1.271
							c1.141-1.209,1.904-2.625,2.239-4.267c0.119-0.582-0.485-1.143-1.044-0.802c-1.38,0.84-2.473,2.023-3.125,3.51
							c-0.462,1.054-1.143,2.948,0.145,3.667c1.166,0.65,3.05,0.174,4.183-0.31c1.493-0.638,2.679-1.739,3.463-3.154
							C29.338,609.78,28.859,609.052,28.249,609.253z"/>
						<path style="fill:#FFFFFF;" d="M8.97,613.247c-0.702,0.254-1.356,0.582-1.977,0.959c0.164-0.823,0.182-1.672,0.04-2.555
							c-0.105-0.654-0.993-0.624-1.299-0.17c-1.147,1.703-1.946,3.579-2.381,5.585c-0.096,0.442,0.202,0.906,0.685,0.899
							c2.455-0.033,4.699-1.436,5.735-3.676C10.006,613.786,9.609,613.015,8.97,613.247z"/>
						<path style="fill:#FFFFFF;" d="M32.948,628.01c0.706-1.155,0.949-2.462-0.08-3.664c-0.261-0.305-0.734-0.237-1.005,0
							c-2.015,1.764-3.453,3.997-4.261,6.547c-0.111,0.35,0.131,0.796,0.496,0.874c1.408,0.3,2.821,0.215,4.158-0.343
							c0.936-0.391,2.683-1.328,2.844-2.473C35.268,627.769,34.254,627.679,32.948,628.01z"/>
						<path style="fill:#FFFFFF;" d="M15.003,636.411c-1.068,0.331-2.076,0.771-3.025,1.315c0.425-0.981,0.73-2.002,0.885-3.083
							c0.061-0.427-0.175-0.925-0.685-0.9c-1.528,0.077-2.47,2.2-2.969,3.425c-0.403,0.989-1.412,3.428-0.181,4.195
							c1.121,0.698,3.012,0.113,4.066-0.476c1.388-0.775,2.377-2.071,2.783-3.602C16.013,636.776,15.53,636.248,15.003,636.411z"/>
						<path style="fill:#FFFFFF;" d="M37.292,649.793c-1.171,0.234-2.285,0.617-3.35,1.121c0.098-0.919,0.162-1.839,0.147-2.769
							c-0.01-0.605-0.776-0.951-1.213-0.502c-0.86,0.884-1.245,1.976-1.372,3.189c-0.086,0.825-0.396,2.661,0.531,3.111
							c0.901,0.437,2.451-0.198,3.27-0.597c1.155-0.563,2.084-1.442,2.788-2.508C38.462,650.281,37.858,649.68,37.292,649.793z"/>
						<path style="fill:#FFFFFF;" d="M19.115,658.151c-0.309-0.537-0.985-0.563-1.495-0.355c-0.511,0.208-1.008,0.527-1.493,0.87
							c0.129-0.836,0.217-1.677,0.211-2.531c-0.004-0.653-0.756-0.888-1.213-0.502c-1.328,1.123-1.244,3.386-1.323,4.969
							c-0.092,1.841,1.775,1.549,2.98,0.971C17.752,661.108,19.864,659.453,19.115,658.151z"/>
						<path style="fill:#FFFFFF;" d="M4.187,663.66c-0.159-0.371-0.663-0.405-0.972-0.255c-0.858,0.416-1.701,0.861-2.533,1.327
							c0.31-0.859,0.494-1.756,0.519-2.699c0.019-0.739-0.953-0.92-1.324-0.359c-0.69,1.043-3.337,6.188-0.424,6.063
							c1.224-0.053,2.595-0.885,3.595-1.528C3.981,665.607,4.665,664.781,4.187,663.66z"/>
					</g>
				</g>
			</g>
		</g>
		<g>
			<path style="fill:#3EA76F;" d="M552.046,365.893c-0.266,3.77-0.72,7.598-1.403,11.444c-1.061,6.006-2.652,12.088-4.85,18.17
				c-0.038,0.095-0.056,0.171-0.094,0.265c-1.857,5.059-3.809,9.568-5.836,13.604c-3.733,7.522-7.673,13.357-11.444,17.867
				c-3.732,4.471-7.313,7.654-10.383,9.89c-0.606,0.436-1.175,0.834-1.743,1.194c-4.964,3.259-8.28,3.96-8.28,3.96
				s-7.806,9.833-10.856,8.81c-2.974-0.985,3.563-10.364,3.885-10.838c-0.607,0.455-11.425,8.753-14.097,6.423
				c-2.671-2.293,10.137-8.772,10.857-9.132c-0.891,0.227-15.328,3.922-17.545-0.019c-2.16-3.827,14.418-6.48,16.37-6.783
				c-1.952,0.171-17.393,1.478-16.37-1.705c1.099-3.392,25.73-4.074,25.73-4.074s0.094-0.095,0.284-0.284
				c0.322-0.322,0.891-0.91,1.649-1.8c1.421-1.667,3.524-4.415,5.874-8.356c2.008-3.353,4.206-7.597,6.347-12.808
				c1.439-3.505,2.842-7.446,4.13-11.861c1.289-4.263,2.444-8.962,3.449-14.115c0.113-0.549,0.208-1.118,0.322-1.686
				c0.682-3.695,1.118-7.351,1.345-10.913c0.322-5.116,0.246-10.08-0.114-14.797c-0.379-4.623-1.005-9.037-1.819-13.13
				c-3.543-18.113-10.27-30.409-10.27-30.409l14.021-10.591c7.711,8.621,14.93,22.925,18.587,40.129
				c0.814,3.808,1.459,7.768,1.895,11.842C552.349,352.535,552.519,359.129,552.046,365.893z"/>
			<path style="fill:#F7B38C;" d="M518.036,437.132c-5.911,4.282-10.023,5.153-10.023,5.153s-7.806,9.833-10.856,8.81
				c-2.974-0.985,3.563-10.364,3.885-10.838c-0.607,0.455-11.425,8.753-14.097,6.423c-2.671-2.293,10.137-8.772,10.857-9.132
				c-0.891,0.227-15.328,3.922-17.545-0.019c-2.16-3.827,14.418-6.48,16.37-6.783c-1.952,0.171-17.393,1.478-16.37-1.705
				c1.099-3.392,25.73-4.074,25.73-4.074s0.72-0.663,1.933-2.084C510.268,424.703,513.697,428.663,518.036,437.132z"/>
			<path style="fill:#D32E39;" d="M528.419,427.242c-3.732,4.471-7.313,7.654-10.383,9.89c-0.606,0.436-1.175,0.834-1.743,1.194
				c-2.652-6.12-7.351-11.122-10.023-13.641c0.322-0.322,0.891-0.91,1.649-1.8c1.421-1.667,3.524-4.415,5.874-8.356
				C520.784,416.253,525.615,422.41,528.419,427.242z"/>
			<path style="fill:#D32E39;" d="M545.793,395.506c-0.038,0.095-0.056,0.171-0.094,0.265c-1.857,5.059-3.809,9.568-5.836,13.604
				c-7.275-7.408-14.74-8.242-19.723-7.654c1.439-3.505,2.842-7.446,4.13-11.861C534.52,387.928,541.719,392.039,545.793,395.506z"
				/>
			<path style="fill:#D32E39;" d="M552.046,365.893c-0.266,3.77-0.72,7.598-1.403,11.444c-10.363-4.812-18.056-3.657-22.925-1.591
				c0.113-0.549,0.208-1.118,0.322-1.686c0.682-3.695,1.118-7.351,1.345-10.913C540.356,359.773,547.971,363.07,552.046,365.893z"/>
			<path style="fill:#D32E39;" d="M551.686,346.188c-9.587-4.756-17.431-1.535-22.414,2.16c-0.379-4.623-1.005-9.037-1.819-13.13
				c10.837-4.888,18.605-2.671,22.338-0.871C550.605,338.155,551.25,342.115,551.686,346.188z"/>
		</g>
	</g>
</g>
</svg>
