<svg width="501" height="501" viewBox="0 0 501 501" fill="none" xmlns="http://www.w3.org/2000/svg">
<path d="M250.121 0.427734C248.069 0.427734 246.019 0.427734 243.968 0.427734C242.12 0.427734 240.55 1.94473 240.55 3.73773C240.55 15.0697 240.55 26.4007 240.55 37.7327C228.833 26.3107 217.306 14.5527 204.968 3.83473C199.12 -1.24527 189.118 1.80273 189.151 10.0817C189.168 13.9817 191.883 16.3767 194.493 18.8697C202.87 26.8667 211.246 34.8627 219.623 42.8597C226.598 49.5197 233.573 56.1797 240.55 62.8377C240.55 71.4557 240.55 80.0747 240.55 88.6907C228.606 76.8757 216.868 64.6957 204.261 53.6207C198.458 48.5227 188.424 51.5927 188.424 59.8177C188.424 63.6807 191.076 66.0827 193.649 68.5757C202.277 76.9287 210.904 85.2837 219.532 93.6387C226.537 100.422 233.542 107.206 240.549 113.989C240.549 122.376 240.549 130.761 240.549 139.146C228.85 127.571 217.35 115.636 204.995 104.796C199.18 99.6957 189.143 102.729 189.147 110.993C189.149 114.873 191.845 117.285 194.429 119.786C202.922 128.011 211.414 136.234 219.907 144.459C226.787 151.121 233.667 157.784 240.549 164.447C240.549 173.004 240.549 181.56 240.549 190.117C228.832 179.082 217.116 168.047 205.399 157.012C202.654 154.427 199.942 152.15 195.725 152.665C194.497 152.817 193.405 153.178 192.449 153.703C191.502 154.241 190.632 154.976 189.884 155.931C187.314 159.209 187.994 162.621 188.934 166.214C192.944 181.557 196.956 196.901 200.967 212.242C193.314 207.964 185.66 203.685 178.009 199.409C175.489 190.307 172.971 181.206 170.451 172.104C167.343 160.871 164.233 149.637 161.124 138.404C160.177 134.986 159.369 131.519 155.899 129.577C148.51 125.442 140.779 132.342 142.434 139.769C145.952 155.549 150.876 171.161 155.381 186.757C147.881 182.565 140.381 178.372 132.881 174.179C130.316 164.912 127.751 155.647 125.188 146.381C122.03 134.968 118.871 123.556 115.713 112.144C114.77 108.739 113.946 105.316 110.493 103.384C103.136 99.2717 95.3752 106.149 97.0312 113.566C100.633 129.674 105.658 145.608 110.254 161.531C102.546 157.221 94.8392 152.913 87.1312 148.604C84.6632 139.424 82.1942 130.246 79.7262 121.066C76.7632 110.044 73.7982 99.0207 70.8342 87.9977C69.9092 84.5627 69.1242 81.0877 65.6462 79.1257C58.2582 74.9577 50.5312 81.8207 52.1502 89.2637C55.5682 104.969 60.3212 120.516 64.6782 136.051C54.5432 130.386 44.4082 124.719 34.2732 119.054C32.6702 118.157 30.5282 118.716 29.6052 120.266C28.5782 121.986 27.5532 123.706 26.5272 125.426C25.5022 127.146 24.4753 128.868 23.4513 130.588C22.5273 132.136 23.0972 134.213 24.7022 135.11C34.8352 140.775 44.9702 146.442 55.1052 152.107C39.0322 156.222 22.7522 160.007 6.99716 164.995C-0.470841 167.36 -2.74479 177.27 4.67721 181.382C8.17021 183.319 11.6722 182.239 15.2052 181.295C26.5472 178.27 37.8872 175.243 49.2282 172.218C58.6712 169.698 68.1152 167.178 77.5582 164.66C85.2672 168.968 92.9752 173.277 100.681 177.587C84.1432 181.694 67.3792 185.447 51.1712 190.482C43.7092 192.799 41.4392 202.747 48.7962 206.859C52.2502 208.791 55.7242 207.769 59.2392 206.857C71.0262 203.799 82.8113 200.742 94.5973 197.684C104.167 195.201 113.737 192.719 123.307 190.236C130.807 194.429 138.307 198.623 145.807 202.814C129.604 206.836 113.18 210.512 97.3092 215.454C89.8392 217.779 87.5342 227.712 94.9262 231.841C98.3982 233.779 101.903 232.724 105.433 231.808C117.034 228.8 128.636 225.79 140.238 222.78C149.638 220.342 159.036 217.905 168.436 215.467C176.089 219.745 183.741 224.022 191.394 228.3C175.666 232.608 159.939 236.917 144.211 241.223C140.526 242.233 137.136 243.368 135.488 247.163C135.008 248.268 134.786 249.365 134.78 250.428C134.787 251.493 135.008 252.588 135.488 253.695C137.136 257.488 140.526 258.623 144.211 259.633C159.939 263.941 175.666 268.248 191.394 272.556C183.741 276.834 176.089 281.113 168.436 285.391C159.036 282.953 149.638 280.514 140.238 278.076C128.636 275.066 117.035 272.058 105.433 269.048C101.903 268.131 98.3982 267.076 94.9262 269.015C87.5342 273.143 89.8392 283.077 97.3092 285.403C113.181 290.343 129.604 294.02 145.807 298.041C138.307 302.234 130.807 306.426 123.307 310.619C113.737 308.136 104.167 305.654 94.5973 303.171C82.8103 300.114 71.0252 297.056 59.2392 293.999C55.7242 293.086 52.2492 292.064 48.7962 293.996C41.4392 298.109 43.7092 308.056 51.1712 310.374C67.3792 315.407 84.1432 319.161 100.681 323.269C92.9742 327.577 85.2662 331.886 77.5582 336.196C68.1152 333.676 58.6712 331.156 49.2282 328.636C37.8862 325.611 26.5462 322.584 15.2052 319.559C11.6722 318.616 8.17021 317.537 4.67721 319.472C-2.74479 323.584 -0.470841 333.495 6.99716 335.859C22.7522 340.847 39.0322 344.634 55.1052 348.747C44.9702 354.414 34.8352 360.079 24.7022 365.745C23.0972 366.642 22.5273 368.717 23.4513 370.267C24.4763 371.987 25.5022 373.707 26.5272 375.427C27.5542 377.147 28.5792 378.869 29.6052 380.589C30.5282 382.137 32.6702 382.697 34.2732 381.801C44.4082 376.134 54.5432 370.469 64.6782 364.803C60.3212 380.338 55.5682 395.885 52.1502 411.59C50.5312 419.035 58.2582 425.897 65.6462 421.73C69.1242 419.767 69.9092 416.292 70.8342 412.857C73.7972 401.834 76.7622 390.812 79.7262 379.789C82.1942 370.609 84.6632 361.431 87.1312 352.252C94.8392 347.942 102.546 343.634 110.254 339.325C105.657 355.247 100.633 371.18 97.0312 387.29C95.3742 394.705 103.136 401.583 110.493 397.47C113.946 395.538 114.77 392.115 115.713 388.71C118.871 377.298 122.03 365.887 125.188 354.475C127.751 345.208 130.317 335.942 132.881 326.675C140.381 322.482 147.881 318.29 155.381 314.097C150.876 329.695 145.953 345.305 142.434 361.085C140.779 368.512 148.511 375.412 155.899 371.277C159.369 369.335 160.177 365.869 161.124 362.45C164.233 351.217 167.342 339.983 170.451 328.75C172.971 319.648 175.489 310.547 178.009 301.447C185.661 297.169 193.314 292.89 200.967 288.612C196.955 303.955 192.944 319.297 188.934 334.64C187.994 338.233 187.314 341.645 189.884 344.923C190.633 345.878 191.502 346.613 192.449 347.151C193.405 347.678 194.497 348.039 195.725 348.189C199.942 348.704 202.653 346.427 205.399 343.844C217.116 332.809 228.832 321.774 240.549 310.739C240.549 319.296 240.549 327.851 240.549 336.407C233.667 343.07 226.787 349.734 219.907 356.397C211.414 364.62 202.922 372.845 194.429 381.069C191.846 383.572 189.149 385.982 189.147 389.864C189.144 398.126 199.18 401.161 204.995 396.059C217.35 385.219 228.85 373.286 240.549 361.709C240.549 370.094 240.549 378.481 240.549 386.866C233.542 393.649 226.537 400.433 219.532 407.218C210.903 415.571 202.277 423.926 193.649 432.281C191.075 434.773 188.424 437.176 188.424 441.038C188.424 449.263 198.457 452.333 204.261 447.235C216.868 436.162 228.606 423.98 240.55 412.165C240.55 420.783 240.55 429.4 240.55 438.018C233.573 444.678 226.598 451.336 219.623 457.996C211.246 465.993 202.87 473.989 194.493 481.988C191.883 484.48 189.168 486.876 189.151 490.775C189.118 499.053 199.119 502.102 204.968 497.022C217.306 486.304 228.833 474.545 240.55 463.124C240.55 474.456 240.55 485.787 240.55 497.119C240.55 498.912 242.12 500.429 243.968 500.429C246.02 500.429 248.07 500.429 250.121 500.429C252.173 500.429 254.224 500.429 256.276 500.429C258.124 500.429 259.694 498.912 259.694 497.119C259.694 485.787 259.694 474.456 259.694 463.124C271.411 474.546 282.937 486.304 295.276 497.022C301.124 502.102 311.124 499.054 311.091 490.775C311.076 486.877 308.361 484.48 305.75 481.988C297.375 473.99 288.998 465.993 280.621 457.996C273.644 451.336 266.669 444.678 259.694 438.018C259.694 429.4 259.694 420.783 259.694 412.165C271.637 423.98 283.376 436.162 295.983 447.235C301.786 452.333 311.818 449.263 311.818 441.038C311.818 437.176 309.168 434.773 306.595 432.281C297.967 423.926 289.338 415.571 280.712 407.218C273.707 400.433 266.701 393.65 259.695 386.866C259.695 378.481 259.695 370.094 259.695 361.709C271.393 373.286 282.893 385.219 295.248 396.059C301.063 401.161 311.1 398.126 311.096 389.864C311.093 385.982 308.398 383.572 305.813 381.069C297.321 372.846 288.828 364.621 280.336 356.397C273.456 349.734 266.574 343.07 259.694 336.407C259.694 327.85 259.694 319.295 259.694 310.739C271.411 321.774 283.127 332.809 294.844 343.844C297.589 346.427 300.301 348.704 304.517 348.189C305.745 348.039 306.837 347.677 307.792 347.151C308.74 346.613 309.61 345.878 310.359 344.923C312.927 341.645 312.249 338.233 311.309 334.64C307.297 319.297 303.287 303.955 299.276 288.612C306.929 292.89 314.581 297.169 322.234 301.447C324.752 310.547 327.272 319.649 329.791 328.75C332.901 339.983 336.009 351.217 339.119 362.45C340.066 365.868 340.872 369.335 344.342 371.277C351.73 375.412 359.462 368.512 357.807 361.085C354.29 345.305 349.367 329.695 344.862 314.097C352.362 318.29 359.862 322.482 367.362 326.675C369.927 335.942 372.49 345.208 375.055 354.475C378.213 365.887 381.372 377.298 384.53 388.71C385.472 392.115 386.295 395.538 389.75 397.47C397.107 401.583 404.868 394.705 403.21 387.29C399.608 371.18 394.583 355.247 389.988 339.325C397.695 343.633 405.403 347.942 413.11 352.252C415.578 361.43 418.047 370.609 420.515 379.789C423.48 390.812 426.443 401.834 429.408 412.857C430.332 416.292 431.116 419.767 434.596 421.73C441.983 425.897 449.711 419.035 448.091 411.59C444.674 395.885 439.921 380.338 435.565 364.803C445.7 370.47 455.833 376.135 465.968 381.801C467.573 382.698 469.715 382.138 470.638 380.589C471.663 378.869 472.69 377.147 473.715 375.427C474.741 373.707 475.766 371.987 476.793 370.267C477.716 368.717 477.145 366.642 475.541 365.745C465.406 360.078 455.271 354.413 445.136 348.747C461.209 344.634 477.491 340.847 493.246 335.859C500.713 333.496 502.986 323.584 495.566 319.472C492.071 317.537 488.571 318.615 485.036 319.559C473.696 322.584 462.354 325.611 451.015 328.636C441.571 331.156 432.126 333.676 422.683 336.196C414.976 331.886 407.268 327.578 399.561 323.269C416.099 319.161 432.863 315.407 449.071 310.374C456.531 308.056 458.803 298.109 451.446 293.996C447.991 292.064 444.518 293.086 441.001 293.999C429.216 297.056 417.429 300.114 405.644 303.171C396.074 305.654 386.504 308.136 376.934 310.619C369.434 306.426 361.934 302.234 354.434 298.041C370.636 294.019 387.059 290.343 402.932 285.403C410.402 283.076 412.707 273.143 405.315 269.015C401.842 267.077 398.338 268.132 394.808 269.048C383.206 272.058 371.605 275.066 360.003 278.076C350.603 280.514 341.203 282.953 331.805 285.391C324.152 281.113 316.498 276.834 308.847 272.556C324.573 268.248 340.302 263.941 356.03 259.633C359.713 258.623 363.105 257.488 364.751 253.695C365.231 252.588 365.454 251.493 365.461 250.428C365.454 249.365 365.231 248.268 364.751 247.163C363.104 243.368 359.713 242.233 356.03 241.223C340.301 236.916 324.573 232.608 308.847 228.3C316.498 224.022 324.152 219.745 331.805 215.467C341.203 217.905 350.603 220.342 360.003 222.78C371.605 225.79 383.206 228.8 394.808 231.808C398.338 232.725 401.841 233.78 405.315 231.841C412.707 227.713 410.402 217.779 402.932 215.454C387.059 210.512 370.635 206.836 354.434 202.814C361.934 198.622 369.434 194.429 376.934 190.236C386.504 192.719 396.074 195.201 405.644 197.684C417.429 200.742 429.216 203.799 441.001 206.857C444.518 207.769 447.991 208.79 451.446 206.859C458.803 202.747 456.531 192.799 449.071 190.482C432.863 185.447 416.099 181.694 399.561 177.587C407.268 173.277 414.976 168.969 422.683 164.66C432.126 167.178 441.571 169.698 451.015 172.218C462.355 175.243 473.696 178.27 485.036 181.295C488.571 182.238 492.071 183.318 495.566 181.382C502.986 177.27 500.713 167.36 493.246 164.995C477.491 160.007 461.209 156.222 445.136 152.107C455.271 146.442 465.406 140.775 475.541 135.11C477.144 134.213 477.716 132.137 476.793 130.588C475.766 128.868 474.741 127.146 473.715 125.426C472.69 123.706 471.663 121.986 470.638 120.266C469.715 118.716 467.573 118.158 465.968 119.054C455.833 124.719 445.7 130.386 435.565 136.051C439.921 120.516 444.675 104.969 448.091 89.2637C449.711 81.8207 441.983 74.9567 434.596 79.1257C431.116 81.0877 430.331 84.5627 429.408 87.9977C426.443 99.0207 423.48 110.045 420.515 121.066C418.046 130.246 415.578 139.424 413.11 148.604C405.403 152.912 397.695 157.221 389.988 161.531C394.583 145.608 399.608 129.674 403.21 113.566C404.868 106.149 397.107 99.2727 389.75 103.384C386.295 105.316 385.472 108.739 384.53 112.144C381.372 123.556 378.213 134.967 375.055 146.381C372.49 155.648 369.927 164.913 367.362 174.179C359.862 178.372 352.362 182.566 344.862 186.757C349.367 171.16 354.29 155.549 357.807 139.769C359.462 132.342 351.73 125.442 344.342 129.577C340.872 131.519 340.066 134.985 339.119 138.404C336.009 149.637 332.901 160.871 329.791 172.104C327.273 181.206 324.753 190.307 322.234 199.409C314.581 203.686 306.929 207.964 299.276 212.242C303.288 196.9 307.298 181.557 311.309 166.214C312.249 162.621 312.927 159.209 310.359 155.931C309.611 154.976 308.741 154.241 307.792 153.703C306.837 153.178 305.745 152.816 304.517 152.665C300.3 152.15 297.589 154.427 294.844 157.012C283.127 168.047 271.411 179.082 259.694 190.117C259.694 181.56 259.694 173.004 259.694 164.447C266.574 157.784 273.456 151.12 280.336 144.459C288.828 136.234 297.321 128.011 305.813 119.786C308.398 117.284 311.093 114.873 311.096 110.993C311.1 102.73 301.063 99.6957 295.248 104.796C282.893 115.636 271.393 127.571 259.695 139.146C259.695 130.761 259.695 122.376 259.695 113.989C266.7 107.206 273.707 100.422 280.712 93.6387C289.339 85.2837 297.967 76.9287 306.595 68.5757C309.168 66.0827 311.818 63.6807 311.818 59.8177C311.818 51.5927 301.786 48.5227 295.983 53.6207C283.376 64.6957 271.638 76.8757 259.694 88.6907C259.694 80.0737 259.694 71.4557 259.694 62.8377C266.669 56.1797 273.644 49.5197 280.621 42.8597C288.998 34.8627 297.374 26.8667 305.75 18.8697C308.361 16.3767 311.076 13.9817 311.091 10.0817C311.124 1.80373 301.124 -1.24527 295.276 3.83473C282.938 14.5527 271.411 26.3117 259.694 37.7327C259.694 26.4007 259.694 15.0697 259.694 3.73773C259.694 1.94473 258.124 0.427734 256.276 0.427734C254.225 0.427734 252.173 0.427734 250.121 0.427734ZM214.211 190.2C222.989 198.472 231.769 206.742 240.55 215.012C240.55 221.054 240.55 227.094 240.55 233.134C240.298 232.994 240.046 232.852 239.795 232.712C239.687 232.65 239.575 232.597 239.462 232.549C239.447 232.669 239.44 232.789 239.44 232.911C239.44 233.191 239.44 233.473 239.44 233.754C234.038 230.734 228.635 227.714 223.234 224.694C220.225 213.195 217.218 201.698 214.211 190.2ZM286.033 190.2C283.026 201.698 280.018 213.195 277.011 224.693C271.608 227.713 266.206 230.733 260.804 233.753C260.804 233.471 260.804 233.19 260.804 232.91C260.804 232.788 260.796 232.668 260.783 232.548C260.669 232.596 260.558 232.65 260.45 232.711C260.198 232.851 259.946 232.993 259.695 233.133C259.695 227.093 259.695 221.053 259.695 215.011C268.475 206.742 277.253 198.472 286.033 190.2ZM321.945 250.428C310.158 253.655 298.372 256.881 286.585 260.108C281.182 257.088 275.78 254.068 270.377 251.048C270.629 250.908 270.88 250.766 271.132 250.626C271.24 250.566 271.345 250.499 271.444 250.428C271.346 250.356 271.241 250.291 271.132 250.23C270.88 250.09 270.629 249.948 270.377 249.808C275.78 246.788 281.182 243.768 286.585 240.748C298.371 243.975 310.158 247.202 321.945 250.428ZM286.033 310.657C277.253 302.387 268.474 294.115 259.694 285.845C259.694 279.805 259.694 273.763 259.694 267.723C259.946 267.865 260.197 268.005 260.449 268.145C260.557 268.207 260.669 268.26 260.782 268.308C260.795 268.19 260.803 268.068 260.803 267.948C260.803 267.666 260.803 267.385 260.803 267.103C266.205 270.123 271.606 273.143 277.01 276.165C280.018 287.662 283.026 299.16 286.033 310.657ZM214.211 310.657C217.218 299.16 220.224 287.662 223.233 276.165C228.634 273.143 234.038 270.123 239.439 267.103C239.439 267.385 239.439 267.666 239.439 267.948C239.439 268.068 239.446 268.19 239.461 268.308C239.574 268.26 239.686 268.206 239.794 268.145C240.046 268.005 240.297 267.865 240.549 267.723C240.549 273.763 240.549 279.805 240.549 285.845C231.77 294.115 222.99 302.387 214.211 310.657ZM178.3 250.428C190.086 247.201 201.873 243.975 213.66 240.748C219.062 243.768 224.465 246.788 229.867 249.808C229.615 249.948 229.363 250.09 229.112 250.23C229.004 250.292 228.901 250.357 228.801 250.428C228.901 250.5 229.004 250.566 229.112 250.626C229.364 250.766 229.615 250.908 229.867 251.048C224.465 254.068 219.062 257.088 213.66 260.108C201.873 256.882 190.086 253.655 178.3 250.428Z" fill="white"/>
</svg>
