<svg width="520" height="579" viewBox="0 0 520 579" fill="none" xmlns="http://www.w3.org/2000/svg">
<path d="M260.381 0.767002C259.211 0.362002 257.973 0.128953 256.7 0.0919535C251.341 -0.0650465 246.443 3.46199 244.701 8.48899C243.893 10.822 243.869 13.222 244.463 15.451C244.417 15.406 244.37 15.359 244.323 15.314C242.53 13.547 240.736 11.781 238.943 10.014C237.195 8.29195 235.367 6.74395 232.733 6.69095C227.488 6.58095 223.661 11.879 225.531 16.804C226.174 18.497 227.418 19.641 228.666 20.869C232.442 24.587 236.221 28.306 239.997 32.024C242.917 34.899 245.837 37.774 248.757 40.649C248.757 42.146 248.757 43.644 248.757 45.142C247.349 43.755 245.94 42.369 244.532 40.982C241.317 37.815 237.44 32.344 232.377 32.929C227.609 33.482 224.542 38.469 226.252 42.971C226.9 44.678 228.157 45.814 229.412 47.051C233.104 50.688 236.795 54.323 240.489 57.959C243.246 60.674 246.001 63.389 248.757 66.104C248.757 73.576 248.757 81.0489 248.757 88.5219C248.757 101.159 248.757 113.795 248.757 126.43C248.757 127.55 248.757 128.668 248.757 129.787C239.716 124.015 230.674 118.244 221.632 112.472C205.967 102.474 190.304 92.474 174.639 82.475C172.627 81.19 170.614 79.905 168.602 78.62C166.595 77.34 164.59 76.152 162.09 77.348C156.997 79.783 160.067 87.353 161.025 91.488C164.323 105.718 167.622 119.95 170.92 134.181C160.245 124.209 149.57 114.238 138.893 104.264C135.791 101.367 130.773 94.924 126.116 98.116C123.829 99.684 123.856 102.014 123.963 104.393C124.068 106.778 124.175 109.163 124.281 111.548C125.108 130.113 125.936 148.678 126.763 167.243C127.24 177.96 127.718 188.676 128.195 199.393C127.227 198.833 126.258 198.273 125.29 197.715C114.347 191.397 103.403 185.078 92.4602 178.76C85.9882 175.023 79.5171 171.287 73.0431 167.55C72.0711 163.807 71.0981 160.062 70.1251 156.318C68.8221 151.301 67.5201 146.286 66.2171 141.27C65.7741 139.565 65.4172 137.91 64.2642 136.493C61.2212 132.761 55.3671 132.925 52.5061 136.778C49.4681 140.87 52.2681 146.963 53.4031 151.331C53.9001 153.244 54.3962 155.156 54.8932 157.069C53.5952 156.321 52.2982 155.571 51.0012 154.822C49.9712 150.855 48.9411 146.889 47.9111 142.924C46.5791 137.792 45.2481 132.662 43.9161 127.532C43.4761 125.837 43.1091 124.187 41.9641 122.784C38.6341 118.702 32.1331 119.367 29.6041 123.964C28.3341 126.272 28.7611 128.631 29.3771 131.004C30.0101 133.441 30.6441 135.877 31.2771 138.314C31.2941 138.377 31.3101 138.441 31.3251 138.504C29.6921 136.876 27.6021 135.696 25.1771 135.229C19.9541 134.224 14.4501 136.702 11.9051 141.422C11.3021 142.542 10.8831 143.732 10.6491 144.947C9.71615 145.759 8.89414 146.714 8.22514 147.797C5.41014 152.362 6.01514 158.365 9.49914 162.387C11.1141 164.254 13.1801 165.474 15.4071 166.075C15.3441 166.092 15.2821 166.11 15.2191 166.127C12.7921 166.797 10.3661 167.467 7.93915 168.137C5.57415 168.79 3.31914 169.6 1.95614 171.854C-0.761855 176.341 1.91314 182.304 7.11414 183.147C8.90114 183.437 10.5121 182.93 12.2011 182.464C17.3111 181.052 22.4191 179.641 27.5281 178.229C31.4781 177.137 35.4282 176.046 39.3782 174.954C40.6752 175.702 41.9711 176.452 43.2701 177.201C41.3651 177.728 39.4601 178.254 37.5551 178.779C33.2031 179.982 26.5271 180.602 24.5031 185.281C22.5961 189.686 25.3831 194.836 30.1361 195.606C31.9391 195.898 33.5501 195.378 35.2481 194.909C40.2451 193.529 45.2401 192.151 50.2351 190.771C53.9651 189.741 57.6931 188.711 61.4221 187.681C67.8951 191.418 74.3671 195.154 80.8391 198.891C91.7821 205.209 102.726 211.528 113.669 217.846C114.637 218.404 115.606 218.964 116.576 219.524C107.056 224.467 97.5361 229.412 88.0182 234.357C71.5261 242.924 55.0351 251.489 38.5431 260.055C36.4251 261.155 34.3061 262.255 32.1881 263.357C30.0751 264.454 28.0431 265.597 27.8281 268.36C27.3911 273.988 35.4831 275.113 39.5411 276.352C53.5161 280.61 67.4891 284.87 81.4641 289.129C67.4891 293.389 53.5161 297.647 39.5411 301.907C35.4831 303.144 27.3911 304.269 27.8281 309.899C28.0431 312.662 30.0751 313.804 32.1881 314.902C34.3061 316.002 36.4251 317.102 38.5431 318.204C55.0351 326.769 71.5261 335.336 88.0182 343.902C97.5361 348.845 107.056 353.79 116.576 358.735C115.606 359.293 114.638 359.853 113.669 360.413C102.726 366.73 91.7821 373.048 80.8391 379.366C74.3681 383.103 67.8961 386.839 61.4221 390.576C57.6941 389.546 53.9651 388.516 50.2351 387.488C45.2401 386.108 40.2451 384.728 35.2481 383.35C33.5501 382.88 31.9401 382.362 30.1361 382.653C25.3831 383.423 22.5961 388.573 24.5031 392.978C26.5261 397.655 33.2031 398.276 37.5551 399.478C39.4601 400.005 41.3651 400.531 43.2701 401.056C41.9721 401.806 40.6752 402.554 39.3782 403.303C35.4282 402.213 31.4781 401.121 27.5281 400.03C22.4201 398.618 17.3111 397.207 12.2011 395.793C10.5131 395.328 8.90114 394.821 7.11414 395.111C1.91214 395.953 -0.762855 401.916 1.95614 406.404C3.31914 408.657 5.57415 409.467 7.93915 410.119C10.3661 410.789 12.7921 411.459 15.2191 412.129C15.2821 412.147 15.3441 412.164 15.4071 412.182C13.1801 412.784 11.1141 414.002 9.49914 415.869C6.01614 419.891 5.41014 425.896 8.22514 430.459C8.89314 431.542 9.71515 432.499 10.6491 433.311C10.8841 434.524 11.3021 435.714 11.9051 436.836C14.4501 441.554 19.9531 444.033 25.1771 443.028C27.6021 442.561 29.6921 441.381 31.3251 439.755C31.3101 439.818 31.2931 439.882 31.2771 439.945C30.6441 442.38 30.0101 444.817 29.3771 447.253C28.7601 449.628 28.3341 451.985 29.6041 454.293C32.1331 458.891 38.6341 459.556 41.9641 455.473C43.1091 454.07 43.4761 452.421 43.9161 450.726C45.2471 445.594 46.5791 440.464 47.9111 435.334C48.9411 431.367 49.9712 427.401 51.0012 423.436C52.2982 422.686 53.5942 421.938 54.8932 421.188C54.3962 423.101 53.9001 425.015 53.4031 426.926C52.2681 431.296 49.4681 437.389 52.5061 441.479C55.3681 445.332 61.2212 445.496 64.2642 441.764C65.4172 440.349 65.7741 438.692 66.2171 436.989C67.5201 431.972 68.8221 426.956 70.1251 421.941C71.0991 418.196 72.0721 414.453 73.0431 410.708C79.5161 406.971 85.9882 403.235 92.4602 399.498C103.403 393.18 114.347 386.863 125.29 380.545C126.258 379.985 127.227 379.427 128.195 378.867C127.718 389.584 127.24 400.299 126.763 411.015C125.936 429.58 125.108 448.145 124.281 466.71C124.174 469.095 124.067 471.48 123.963 473.867C123.856 476.245 123.83 478.575 126.116 480.142C130.773 483.335 135.791 476.89 138.893 473.994C149.57 464.022 160.245 454.049 170.92 444.077C167.622 458.309 164.323 472.541 161.025 486.772C160.067 490.907 156.997 498.475 162.09 500.912C164.59 502.107 166.595 500.92 168.602 499.639C170.614 498.354 172.627 497.069 174.639 495.786C190.304 485.786 205.967 475.788 221.632 465.788C230.674 460.016 239.715 454.246 248.757 448.473C248.757 449.593 248.757 450.711 248.757 451.83C248.757 464.467 248.757 477.102 248.757 489.738C248.757 497.211 248.757 504.685 248.757 512.158C246 514.873 243.245 517.586 240.489 520.301C236.796 523.938 233.104 527.574 229.412 531.211C228.157 532.448 226.9 533.583 226.252 535.291C224.542 539.791 227.609 544.779 232.377 545.331C237.44 545.916 241.317 540.446 244.532 537.278C245.94 535.891 247.349 534.505 248.757 533.12C248.757 534.617 248.757 536.115 248.757 537.613C245.837 540.488 242.917 543.361 239.997 546.236C236.22 549.954 232.442 553.674 228.666 557.393C227.417 558.621 226.174 559.765 225.531 561.456C223.661 566.383 227.488 571.679 232.733 571.571C235.366 571.516 237.194 569.968 238.943 568.246C240.736 566.479 242.53 564.714 244.323 562.948C244.37 562.901 244.417 562.856 244.463 562.81C243.87 565.04 243.893 567.438 244.701 569.772C246.443 574.799 251.341 578.325 256.7 578.169C257.973 578.132 259.211 577.899 260.381 577.496C261.551 577.899 262.789 578.133 264.063 578.169C269.421 578.326 274.32 574.799 276.061 569.772C276.869 567.439 276.893 565.04 276.3 562.81C276.346 562.857 276.393 562.902 276.44 562.948C278.234 564.715 280.027 566.48 281.82 568.246C283.568 569.968 285.397 571.516 288.03 571.571C293.275 571.679 297.102 566.383 295.232 561.456C294.589 559.764 293.345 558.621 292.097 557.393C288.32 553.675 284.542 549.955 280.765 546.236C277.845 543.361 274.925 540.488 272.005 537.613C272.005 536.115 272.005 534.616 272.005 533.12C273.413 534.505 274.822 535.892 276.23 537.278C279.445 540.446 283.322 545.916 288.385 545.331C293.153 544.779 296.22 539.791 294.51 535.291C293.862 533.583 292.605 532.447 291.35 531.211C287.658 527.574 283.967 523.938 280.273 520.301C277.517 517.586 274.761 514.873 272.005 512.158C272.005 504.685 272.005 497.211 272.005 489.738C272.005 477.101 272.005 464.466 272.005 451.83C272.005 450.712 272.005 449.593 272.005 448.473C281.047 454.246 290.088 460.016 299.13 465.788C314.795 475.788 330.458 485.786 346.123 495.786C348.135 497.069 350.148 498.354 352.16 499.639C354.167 500.921 356.172 502.107 358.672 500.912C363.765 498.475 360.695 490.907 359.737 486.772C356.439 472.54 353.14 458.309 349.842 444.077C360.517 454.049 371.192 464.022 381.869 473.994C384.971 476.891 389.989 483.336 394.646 480.142C396.933 478.575 396.906 476.245 396.799 473.867C396.694 471.48 396.587 469.095 396.481 466.71C395.654 448.145 394.826 429.58 393.999 411.015C393.522 400.298 393.044 389.583 392.566 378.867C393.536 379.427 394.504 379.985 395.473 380.545C406.416 386.863 417.36 393.18 428.303 399.498C434.775 403.235 441.246 406.971 447.72 410.708C448.692 414.453 449.665 418.196 450.638 421.941C451.941 426.956 453.243 431.973 454.546 436.989C454.989 438.692 455.346 440.349 456.499 441.764C459.542 445.496 465.396 445.332 468.257 441.479C471.295 437.389 468.495 431.296 467.36 426.926C466.863 425.014 466.367 423.101 465.87 421.188C467.168 421.938 468.465 422.686 469.762 423.436C470.792 427.401 471.822 431.368 472.852 435.334C474.184 440.464 475.515 445.594 476.847 450.726C477.287 452.421 477.654 454.069 478.799 455.473C482.129 459.556 488.631 458.891 491.159 454.293C492.429 451.985 492.002 449.628 491.386 447.253C490.753 444.816 490.119 442.38 489.486 439.945C489.469 439.882 489.453 439.818 489.438 439.755C491.071 441.382 493.161 442.562 495.586 443.028C500.809 444.033 506.313 441.555 508.858 436.836C509.461 435.714 509.878 434.524 510.115 433.311C511.048 432.499 511.87 431.543 512.538 430.459C515.353 425.896 514.748 419.891 511.265 415.869C509.65 414.002 507.583 412.784 505.357 412.182C505.42 412.164 505.482 412.147 505.545 412.129C507.972 411.459 510.398 410.789 512.825 410.119C515.19 409.467 517.445 408.657 518.808 406.404C521.526 401.916 518.852 395.952 513.65 395.111C511.863 394.821 510.252 395.328 508.563 395.793C503.453 397.206 498.345 398.618 493.236 400.03C489.286 401.122 485.336 402.213 481.386 403.303C480.089 402.555 478.793 401.806 477.494 401.056C479.399 400.531 481.304 400.004 483.209 399.478C487.561 398.276 494.237 397.655 496.261 392.978C498.168 388.573 495.381 383.423 490.628 382.653C488.825 382.361 487.215 382.88 485.516 383.35C480.519 384.728 475.524 386.108 470.529 387.488C466.799 388.516 463.071 389.546 459.342 390.576C452.869 386.839 446.397 383.103 439.925 379.366C428.982 373.048 418.038 366.729 407.095 360.413C406.127 359.853 405.158 359.293 404.188 358.735C413.708 353.79 423.228 348.845 432.746 343.902C449.238 335.335 465.729 326.769 482.221 318.204C484.339 317.102 486.458 316.002 488.576 314.902C490.689 313.804 492.721 312.662 492.936 309.899C493.373 304.269 485.281 303.144 481.223 301.907C467.248 297.647 453.275 293.389 439.3 289.129C453.275 284.871 467.248 280.611 481.223 276.352C485.281 275.114 493.373 273.989 492.936 268.36C492.721 265.597 490.689 264.453 488.576 263.357C486.458 262.255 484.339 261.155 482.221 260.055C465.729 251.488 449.238 242.923 432.746 234.357C423.228 229.412 413.708 224.467 404.188 219.524C405.158 218.964 406.126 218.404 407.095 217.846C418.038 211.528 428.982 205.209 439.925 198.891C446.397 195.154 452.868 191.418 459.342 187.681C463.07 188.711 466.799 189.741 470.529 190.771C475.524 192.151 480.519 193.529 485.516 194.909C487.214 195.377 488.824 195.897 490.628 195.606C495.381 194.836 498.168 189.686 496.261 185.281C494.238 180.603 487.561 179.983 483.209 178.779C481.304 178.254 479.399 177.727 477.494 177.201C478.792 176.453 480.089 175.703 481.386 174.954C485.336 176.046 489.286 177.137 493.236 178.229C498.344 179.641 503.453 181.052 508.563 182.464C510.252 182.931 511.863 183.437 513.65 183.147C518.852 182.304 521.527 176.34 518.808 171.854C517.445 169.601 515.19 168.791 512.825 168.137C510.398 167.467 507.972 166.797 505.545 166.127C505.482 166.11 505.42 166.092 505.357 166.075C507.584 165.473 509.65 164.253 511.265 162.387C514.748 158.365 515.353 152.362 512.538 147.797C511.87 146.714 511.048 145.759 510.115 144.947C509.878 143.732 509.462 142.542 508.858 141.422C506.313 136.702 500.81 134.224 495.586 135.229C493.161 135.696 491.071 136.876 489.438 138.504C489.453 138.441 489.47 138.377 489.486 138.314C490.119 135.877 490.753 133.441 491.386 131.004C492.003 128.631 492.429 126.272 491.159 123.964C488.631 119.367 482.129 118.702 478.799 122.784C477.654 124.187 477.287 125.837 476.847 127.532C475.515 132.662 474.184 137.792 472.852 142.924C471.822 146.889 470.792 150.856 469.762 154.822C468.465 155.57 467.169 156.32 465.87 157.069C466.367 155.156 466.863 153.244 467.36 151.331C468.495 146.963 471.295 140.869 468.257 136.778C465.395 132.925 459.542 132.761 456.499 136.493C455.346 137.91 454.989 139.565 454.546 141.27C453.243 146.287 451.941 151.302 450.638 156.318C449.665 160.061 448.691 163.806 447.72 167.55C441.247 171.287 434.775 175.023 428.303 178.76C417.36 185.078 406.416 191.397 395.473 197.715C394.505 198.273 393.536 198.833 392.566 199.393C393.044 188.676 393.523 177.96 393.999 167.243C394.826 148.678 395.654 130.113 396.481 111.548C396.588 109.163 396.694 106.778 396.799 104.393C396.906 102.015 396.932 99.685 394.646 98.116C389.989 94.924 384.971 101.368 381.869 104.264C371.192 114.237 360.518 124.209 349.842 134.181C353.14 119.949 356.439 105.718 359.737 91.488C360.695 87.353 363.765 79.783 358.672 77.348C356.172 76.151 354.167 77.34 352.16 78.62C350.148 79.905 348.135 81.19 346.123 82.475C330.458 92.473 314.795 102.473 299.13 112.472C290.088 118.244 281.047 124.015 272.005 129.787C272.005 128.669 272.005 127.55 272.005 126.43C272.005 113.795 272.005 101.158 272.005 88.5219C272.005 81.0489 272.005 73.575 272.005 66.104C274.762 63.389 277.517 60.674 280.273 57.959C283.967 54.322 287.658 50.687 291.35 47.051C292.605 45.814 293.861 44.678 294.51 42.971C296.22 38.469 293.153 33.483 288.385 32.929C283.322 32.344 279.445 37.816 276.23 40.982C274.822 42.369 273.413 43.755 272.005 45.142C272.005 43.644 272.005 42.145 272.005 40.649C274.925 37.774 277.845 34.899 280.765 32.024C284.542 28.306 288.32 24.587 292.097 20.869C293.345 19.641 294.589 18.497 295.232 16.804C297.102 11.879 293.275 6.58095 288.03 6.69095C285.397 6.74395 283.568 8.29295 281.82 10.014C280.027 11.781 278.234 13.547 276.44 15.314C276.393 15.359 276.347 15.406 276.3 15.451C276.893 13.223 276.87 10.823 276.061 8.48899C274.319 3.46199 269.421 -0.0640465 264.063 0.0919535C262.79 0.127953 261.551 0.362002 260.381 0.767002ZM188.703 164.982C187.785 161.015 186.865 157.05 185.946 153.085C183.679 143.307 181.413 133.528 179.146 123.748C177.196 115.336 175.246 106.923 173.294 98.51C172.884 96.74 172.509 94.95 172.124 93.162C172.912 93.665 173.701 94.169 174.489 94.672C181.179 98.942 187.867 103.214 194.556 107.484C202.65 112.652 210.743 117.819 218.834 122.987C225.834 127.455 232.834 131.925 239.833 136.394C242.133 137.862 244.433 139.331 246.733 140.799C247.404 141.229 248.074 141.702 248.758 142.147C248.758 144.995 248.758 147.845 248.758 150.695C242.733 146.85 236.708 143.003 230.683 139.158C219.13 131.783 207.576 124.41 196.023 117.036C193.746 115.583 191.44 113.693 188.941 112.626C185.434 111.131 182.366 113.683 181.638 117.054C181.44 117.966 181.57 118.851 181.761 119.742C182.019 120.947 182.326 122.144 182.608 123.344C185.551 135.857 188.495 148.372 191.438 160.886C192.606 165.853 193.775 170.819 194.943 175.786C191.225 172.291 187.508 168.796 183.791 165.301C174.424 156.496 165.059 147.689 155.693 138.884C154.796 138.039 153.913 137.174 152.998 136.349C152.321 135.737 151.621 135.182 150.731 134.897C147.446 133.844 143.703 135.225 143.244 139.009C142.919 141.704 143.402 144.649 143.522 147.346C144.13 161.039 144.74 174.731 145.35 188.424C145.667 195.564 145.985 202.706 146.303 209.846C143.835 208.421 141.366 206.996 138.9 205.571C138.857 204.758 138.782 203.941 138.745 203.144C138.623 200.417 138.502 197.692 138.38 194.966C138.01 186.669 137.638 178.374 137.268 170.078C136.84 160.485 136.41 150.893 135.982 141.3C135.628 133.373 135.273 125.445 134.92 117.517C134.878 116.584 134.835 115.649 134.793 114.714C136.15 115.942 137.513 117.162 138.84 118.402C145.152 124.297 151.462 130.192 157.773 136.089C165.108 142.941 172.443 149.794 179.778 156.646C182.755 159.423 185.73 162.202 188.703 164.982ZM332.06 164.982C335.033 162.202 338.008 159.424 340.983 156.645C348.318 149.793 355.653 142.94 362.988 136.088C369.3 130.191 375.61 124.296 381.921 118.401C383.248 117.161 384.611 115.941 385.968 114.713C385.926 115.648 385.883 116.583 385.841 117.516C385.488 125.444 385.133 133.373 384.779 141.299C384.351 150.892 383.921 160.484 383.492 170.077C383.122 178.374 382.75 186.669 382.38 194.965C382.258 197.692 382.137 200.417 382.015 203.143C381.978 203.94 381.903 204.756 381.86 205.57C379.393 206.995 376.925 208.42 374.457 209.845C374.775 202.705 375.094 195.563 375.41 188.423C376.02 174.73 376.63 161.038 377.238 147.345C377.358 144.648 377.841 141.703 377.516 139.008C377.058 135.225 373.315 133.843 370.029 134.896C369.139 135.181 368.439 135.736 367.762 136.348C366.847 137.173 365.964 138.038 365.067 138.883C355.7 147.688 346.335 156.495 336.969 165.3C333.252 168.795 329.536 172.29 325.817 175.785C326.985 170.818 328.154 165.852 329.322 160.885C332.265 148.372 335.209 135.857 338.152 123.343C338.434 122.143 338.74 120.946 338.999 119.741C339.191 118.849 339.321 117.964 339.122 117.053C338.394 113.681 335.325 111.13 331.819 112.625C329.321 113.692 327.014 115.582 324.737 117.035C313.184 124.408 301.631 131.782 290.077 139.157C284.052 143.002 278.027 146.849 272.002 150.694C272.002 147.844 272.002 144.994 272.002 142.146C272.685 141.701 273.355 141.228 274.027 140.798C276.327 139.33 278.627 137.861 280.927 136.393C287.925 131.925 294.925 127.455 301.925 122.986C310.017 117.818 318.11 112.651 326.203 107.483C332.891 103.213 339.58 98.941 346.27 94.671C347.058 94.168 347.847 93.664 348.635 93.161C348.25 94.949 347.875 96.7389 347.465 98.5089C345.514 106.922 343.564 115.336 341.614 123.747C339.347 133.527 337.081 143.305 334.814 153.084C333.898 157.05 332.978 161.015 332.06 164.982ZM403.736 289.13C407.629 290.317 411.524 291.503 415.418 292.69C425.02 295.617 434.621 298.543 444.223 301.47C452.485 303.987 460.746 306.505 469.006 309.022C470.744 309.552 472.481 310.122 474.223 310.684C473.393 311.114 472.563 311.546 471.733 311.977C464.69 315.634 457.648 319.29 450.605 322.947C442.084 327.372 433.562 331.797 425.04 336.224C417.67 340.051 410.3 343.877 402.93 347.704C400.508 348.962 398.087 350.219 395.665 351.477C394.957 351.844 394.212 352.187 393.485 352.557C391.018 351.132 388.55 349.707 386.082 348.282C392.425 344.987 398.769 341.692 405.11 338.397C417.273 332.079 429.437 325.76 441.598 319.442C443.995 318.197 446.786 317.144 448.958 315.514C452.005 313.226 451.33 309.292 448.775 306.974C448.084 306.347 447.253 306.017 446.385 305.737C445.213 305.359 444.023 305.025 442.843 304.67C430.533 300.962 418.225 297.253 405.915 293.545C401.03 292.073 396.145 290.602 391.26 289.13C396.145 287.658 401.03 286.187 405.915 284.715C418.225 281.007 430.534 277.3 442.843 273.592C444.023 273.235 445.213 272.904 446.385 272.524C447.253 272.244 448.083 271.916 448.775 271.287C451.33 268.97 452.005 265.037 448.958 262.749C446.786 261.117 443.995 260.064 441.598 258.821C429.436 252.501 417.273 246.183 405.11 239.864C398.768 236.569 392.425 233.274 386.082 229.979C388.551 228.554 391.019 227.129 393.485 225.706C394.212 226.074 394.957 226.418 395.665 226.786C398.087 228.043 400.508 229.301 402.93 230.558C410.3 234.385 417.67 238.213 425.04 242.04C433.562 246.465 442.084 250.89 450.605 255.315C457.648 258.972 464.69 262.63 471.733 266.287C472.563 266.719 473.393 267.149 474.223 267.58C472.481 268.14 470.745 268.71 469.006 269.24C460.746 271.758 452.484 274.275 444.223 276.793C434.621 279.72 425.02 282.645 415.418 285.571C411.525 286.757 407.63 287.943 403.736 289.13ZM332.06 413.28C332.978 417.245 333.898 421.21 334.817 425.177C337.084 434.955 339.35 444.734 341.617 454.512C343.567 462.925 345.517 471.339 347.468 479.752C347.878 481.52 348.253 483.312 348.638 485.1C347.85 484.597 347.061 484.093 346.273 483.588C339.583 479.318 332.895 475.048 326.206 470.776C318.113 465.609 310.019 460.441 301.928 455.274C294.928 450.804 287.928 446.336 280.93 441.866C278.63 440.398 276.33 438.929 274.03 437.461C273.358 437.033 272.688 436.558 272.005 436.114C272.005 433.264 272.005 430.414 272.005 427.566C278.03 431.411 284.055 435.256 290.08 439.103C301.634 446.476 313.187 453.85 324.74 461.225C327.017 462.677 329.323 464.568 331.822 465.633C335.329 467.128 338.397 464.578 339.125 461.205C339.323 460.293 339.193 459.408 339.002 458.518C338.744 457.311 338.437 456.115 338.155 454.915C335.212 442.402 332.268 429.888 329.325 417.373C328.157 412.406 326.988 407.44 325.82 402.473C329.538 405.968 333.255 409.463 336.972 412.958C346.339 421.765 355.704 430.57 365.07 439.376C365.967 440.219 366.85 441.084 367.765 441.911C368.442 442.521 369.142 443.076 370.032 443.361C373.317 444.416 377.06 443.034 377.519 439.251C377.844 436.554 377.361 433.609 377.241 430.913C376.633 417.221 376.023 403.528 375.413 389.836C375.096 382.694 374.778 375.554 374.46 368.413C376.928 369.838 379.397 371.263 381.863 372.688C381.906 373.501 381.981 374.32 382.018 375.116C382.139 377.841 382.261 380.568 382.383 383.293C382.753 391.59 383.125 399.886 383.495 408.181C383.923 417.774 384.353 427.368 384.782 436.959C385.136 444.887 385.49 452.814 385.844 460.742C385.886 461.677 385.929 462.612 385.971 463.545C384.614 462.317 383.251 461.098 381.924 459.858C375.612 453.961 369.303 448.066 362.991 442.171C355.656 435.318 348.321 428.466 340.986 421.614C338.008 418.837 335.033 416.058 332.06 413.28ZM188.703 413.28C185.73 416.058 182.755 418.837 179.78 421.617C172.445 428.469 165.11 435.32 157.775 442.174C151.463 448.069 145.153 453.964 138.842 459.861C137.515 461.101 136.152 462.319 134.795 463.548C134.837 462.615 134.88 461.68 134.922 460.745C135.275 452.817 135.63 444.89 135.984 436.962C136.412 427.37 136.842 417.777 137.27 408.184C137.64 399.889 138.012 391.592 138.382 383.296C138.504 380.571 138.625 377.844 138.747 375.119C138.784 374.322 138.859 373.504 138.902 372.691C141.369 371.266 143.837 369.841 146.305 368.416C145.987 375.558 145.668 382.698 145.352 389.839C144.742 403.531 144.132 417.224 143.524 430.916C143.404 433.613 142.921 436.558 143.246 439.254C143.704 443.037 147.448 444.419 150.733 443.364C151.623 443.079 152.323 442.524 153 441.914C153.915 441.087 154.798 440.222 155.695 439.379C165.062 430.572 174.427 421.767 183.793 412.961C187.51 409.466 191.226 405.971 194.945 402.476C193.777 407.443 192.608 412.409 191.44 417.376C188.497 429.891 185.553 442.404 182.61 454.918C182.328 456.118 182.022 457.315 181.763 458.521C181.571 459.411 181.441 460.296 181.64 461.208C182.369 464.581 185.437 467.131 188.943 465.636C191.441 464.571 193.748 462.679 196.025 461.228C207.578 453.853 219.132 446.48 230.685 439.106C236.71 435.259 242.735 431.414 248.76 427.569C248.76 430.417 248.76 433.267 248.76 436.117C248.077 436.56 247.407 437.035 246.735 437.464C244.435 438.932 242.135 440.401 239.835 441.869C232.836 446.339 225.836 450.807 218.836 455.277C210.744 460.444 202.651 465.612 194.558 470.779C187.87 475.051 181.181 479.321 174.491 483.591C173.703 484.096 172.914 484.599 172.126 485.103C172.511 483.315 172.886 481.523 173.296 479.755C175.248 471.342 177.198 462.928 179.148 454.515C181.415 444.737 183.681 434.958 185.948 425.18C186.865 421.21 187.785 417.245 188.703 413.28ZM117.026 289.13C113.133 287.943 109.238 286.757 105.344 285.57C95.7421 282.643 86.1411 279.718 76.5391 276.792C68.2771 274.274 60.0161 271.757 51.7561 269.239C50.0181 268.709 48.2811 268.139 46.5391 267.579C47.3691 267.147 48.1992 266.717 49.0292 266.286C56.0722 262.629 63.1141 258.971 70.1571 255.314C78.6791 250.889 87.2001 246.464 95.7221 242.039C103.092 238.212 110.462 234.384 117.832 230.557C120.254 229.3 122.675 228.042 125.097 226.785C125.805 226.417 126.55 226.073 127.277 225.705C129.744 227.128 132.212 228.553 134.68 229.978C128.337 233.273 121.993 236.568 115.652 239.863C103.489 246.181 91.3251 252.5 79.1641 258.82C76.7671 260.063 73.9761 261.117 71.8041 262.748C68.7571 265.036 69.4331 268.97 71.9871 271.286C72.6791 271.914 73.5091 272.243 74.3771 272.523C75.5491 272.903 76.7392 273.235 77.9192 273.591C90.2292 277.299 102.537 281.006 114.847 284.714C119.732 286.186 124.617 287.657 129.502 289.129C124.617 290.601 119.732 292.072 114.847 293.544C102.537 297.252 90.2292 300.961 77.9192 304.669C76.7392 305.024 75.5491 305.357 74.3771 305.736C73.5091 306.016 72.6791 306.346 71.9871 306.973C69.4321 309.291 68.7571 313.225 71.8041 315.513C73.9761 317.143 76.7671 318.196 79.1641 319.441C91.3261 325.759 103.489 332.078 115.652 338.396C121.994 341.691 128.337 344.986 134.68 348.281C132.212 349.706 129.743 351.131 127.277 352.556C126.55 352.186 125.805 351.843 125.097 351.476C122.675 350.218 120.254 348.961 117.832 347.703C110.462 343.876 103.092 340.05 95.7221 336.223C87.2001 331.796 78.6791 327.371 70.1571 322.946C63.1141 319.289 56.0722 315.633 49.0292 311.976C48.1992 311.544 47.3691 311.113 46.5391 310.683C48.2811 310.121 50.0171 309.551 51.7561 309.021C60.0161 306.504 68.2781 303.986 76.5391 301.469C86.1411 298.542 95.7421 295.616 105.344 292.689C109.238 291.503 113.133 290.317 117.026 289.13ZM209.14 190.835C207.547 184.055 205.952 177.277 204.357 170.497C202.102 160.905 199.845 151.314 197.589 141.72C201.214 146.653 204.839 151.585 208.464 156.517C218.796 170.577 229.129 184.635 239.462 198.695C240.104 199.568 240.744 200.44 241.385 201.312C231.852 198.214 222.318 195.117 212.783 192.019C211.57 191.623 210.355 191.228 209.14 190.835ZM149.635 284.358C142.967 282.35 136.298 280.341 129.63 278.331C120.195 275.489 110.76 272.648 101.325 269.804C107.408 269.132 113.492 268.459 119.575 267.786C136.918 265.868 154.26 263.948 171.603 262.029C172.678 261.911 173.755 261.791 174.83 261.672C167.38 268.379 159.932 275.087 152.482 281.794C151.531 282.65 150.583 283.503 149.635 284.358ZM200.875 382.655C195.802 387.425 190.728 392.195 185.655 396.965C178.475 403.715 171.297 410.465 164.118 417.215C166.576 411.61 169.035 406.005 171.493 400.4C178.503 384.422 185.513 368.443 192.523 352.465C192.956 351.473 193.391 350.483 193.826 349.492C195.911 359.297 197.994 369.102 200.078 378.907C200.345 380.157 200.61 381.405 200.875 382.655ZM311.621 387.427C313.216 394.205 314.811 400.985 316.406 407.764C318.661 417.356 320.918 426.949 323.174 436.541C319.549 431.609 315.924 426.678 312.299 421.746C301.967 407.686 291.634 393.626 281.3 379.566C280.658 378.694 280.018 377.823 279.377 376.949C288.91 380.048 298.444 383.146 307.977 386.242C309.193 386.637 310.408 387.032 311.621 387.427ZM371.128 293.902C377.796 295.912 384.465 297.92 391.133 299.929C400.568 302.771 410.003 305.614 419.438 308.456C413.355 309.129 407.271 309.803 401.188 310.476C383.845 312.394 366.503 314.313 349.16 316.231C348.085 316.351 347.008 316.469 345.933 316.589C353.383 309.881 360.831 303.174 368.281 296.466C369.231 295.612 370.18 294.757 371.128 293.902ZM319.888 195.607C324.961 190.837 330.035 186.065 335.108 181.295C342.288 174.545 349.467 167.795 356.645 161.045C354.187 166.65 351.728 172.255 349.27 177.86C342.26 193.838 335.25 209.817 328.24 225.795C327.807 226.787 327.372 227.778 326.937 228.77C324.852 218.963 322.769 209.158 320.685 199.353C320.418 198.105 320.153 196.855 319.888 195.607ZM307.978 192.018C298.445 195.116 288.911 198.213 279.378 201.311C280.02 200.439 280.66 199.568 281.301 198.694C291.634 184.634 301.968 170.576 312.3 156.516C315.925 151.584 319.55 146.653 323.175 141.719C320.918 151.312 318.662 160.904 316.407 170.496C314.812 177.276 313.217 184.054 311.622 190.834C310.408 191.228 309.193 191.623 307.978 192.018ZM200.078 199.353C197.995 209.158 195.911 218.963 193.826 228.77C193.391 227.778 192.956 226.787 192.523 225.795C185.513 209.817 178.503 193.838 171.493 177.86C169.035 172.255 166.576 166.65 164.118 161.045C171.296 167.795 178.475 174.545 185.655 181.295C190.728 186.065 195.802 190.837 200.875 195.607C200.61 196.855 200.345 198.105 200.078 199.353ZM152.481 296.465C159.931 303.173 167.379 309.88 174.829 316.588C173.754 316.468 172.677 316.35 171.602 316.23C154.259 314.312 136.917 312.393 119.574 310.475C113.491 309.802 107.407 309.128 101.324 308.455C110.759 305.613 120.194 302.77 129.629 299.928C136.297 297.92 142.966 295.911 149.634 293.901C150.583 294.757 151.531 295.612 152.481 296.465ZM212.783 386.242C222.318 383.145 231.851 380.047 241.385 376.949C240.743 377.822 240.103 378.694 239.462 379.566C229.129 393.626 218.795 407.686 208.464 421.746C204.839 426.678 201.214 431.609 197.589 436.541C199.846 426.949 202.102 417.356 204.357 407.764C205.952 400.986 207.547 394.206 209.14 387.427C210.355 387.032 211.57 386.637 212.783 386.242ZM320.685 378.907C322.768 369.102 324.852 359.297 326.937 349.492C327.372 350.484 327.807 351.474 328.24 352.465C335.25 368.443 342.26 384.422 349.27 400.4C351.728 406.005 354.187 411.61 356.645 417.215C349.467 410.465 342.288 403.715 335.108 396.965C330.035 392.195 324.961 387.425 319.888 382.655C320.153 381.405 320.418 380.157 320.685 378.907ZM368.281 281.795C360.831 275.088 353.383 268.38 345.933 261.673C347.008 261.791 348.085 261.911 349.16 262.03C366.503 263.948 383.845 265.868 401.188 267.787C407.271 268.46 413.355 269.134 419.438 269.805C410.003 272.648 400.568 275.49 391.133 278.332C384.465 280.342 377.796 282.35 371.128 284.359C370.18 283.503 369.231 282.65 368.281 281.795ZM213.515 207.953C220.355 210.176 227.195 212.4 234.037 214.621C229.367 216.158 224.695 217.694 220.025 219.231C216.36 222.508 212.693 225.784 209.028 229.059C210.523 222.025 212.018 214.99 213.515 207.953ZM307.248 207.953C308.745 214.99 310.24 222.025 311.735 229.06C308.07 225.785 304.403 222.508 300.738 219.232C296.067 217.695 291.396 216.159 286.726 214.622C293.567 212.4 300.408 210.177 307.248 207.953ZM354.117 289.13C348.77 293.943 343.425 298.757 338.08 303.568C339.085 298.756 340.09 293.943 341.093 289.13C340.09 284.318 339.085 279.505 338.08 274.692C343.425 279.505 348.77 284.318 354.117 289.13ZM307.248 370.307C300.408 368.084 293.567 365.862 286.726 363.639C291.396 362.102 296.066 360.566 300.738 359.031C304.403 355.754 308.07 352.478 311.735 349.201C310.24 356.235 308.745 363.272 307.248 370.307ZM213.515 370.307C212.018 363.272 210.523 356.235 209.028 349.2C212.693 352.477 216.36 355.753 220.025 359.03C224.695 360.565 229.367 362.102 234.037 363.638C227.195 365.862 220.355 368.083 213.515 370.307ZM166.646 289.13C171.993 284.318 177.338 279.505 182.683 274.692C181.678 279.505 180.673 284.319 179.67 289.13C180.673 293.943 181.678 298.757 182.683 303.568C177.338 298.757 171.993 293.943 166.646 289.13ZM234.798 174.89C225.198 161.828 215.6 148.768 206 135.707C208.111 137.055 210.223 138.404 212.335 139.752C222.607 146.309 232.877 152.867 243.148 159.424C245.018 160.619 246.888 161.812 248.758 163.007C248.758 173.299 248.758 183.592 248.758 193.885C244.105 187.553 239.451 181.222 234.798 174.89ZM148.655 254.167C132.543 255.949 116.434 257.732 100.323 259.514C102.546 258.361 104.77 257.206 106.993 256.051C117.806 250.434 128.621 244.819 139.435 239.203C141.405 238.181 143.375 237.158 145.343 236.136C154.256 241.281 163.171 246.428 172.085 251.574C164.275 252.437 156.465 253.302 148.655 254.167ZM174.238 368.407C167.726 383.25 161.215 398.094 154.703 412.937C154.815 410.435 154.926 407.932 155.038 405.429C155.581 393.256 156.126 381.082 156.67 368.909C156.768 366.692 156.868 364.476 156.967 362.259C165.88 357.112 174.793 351.966 183.708 346.821C180.551 354.015 177.395 361.212 174.238 368.407ZM285.965 403.372C295.565 416.432 305.163 429.494 314.762 442.554C312.652 441.206 310.54 439.857 308.429 438.509C298.157 431.952 287.887 425.394 277.616 418.837C275.746 417.644 273.876 416.449 272.006 415.255C272.006 404.962 272.006 394.668 272.006 384.377C276.658 390.708 281.311 397.04 285.965 403.372ZM372.108 324.095C388.22 322.312 404.33 320.53 420.44 318.747C418.217 319.902 415.993 321.057 413.77 322.21C402.957 327.827 392.142 333.443 381.327 339.058C379.359 340.081 377.389 341.103 375.42 342.126C366.507 336.979 357.592 331.833 348.678 326.686C356.488 325.823 364.298 324.958 372.108 324.095ZM346.525 209.853C353.037 195.01 359.548 180.166 366.06 165.323C365.948 167.826 365.837 170.33 365.725 172.831C365.182 185.004 364.637 197.178 364.093 209.351C363.995 211.568 363.895 213.784 363.796 216.001C354.883 221.148 345.969 226.294 337.054 231.441C340.211 224.245 343.368 217.05 346.525 209.853ZM272.005 193.885C272.005 183.592 272.005 173.298 272.005 163.007C273.875 161.812 275.745 160.619 277.615 159.424C287.887 152.867 298.157 146.309 308.428 139.752C310.54 138.404 312.651 137.055 314.761 135.707C305.163 148.769 295.564 161.829 285.964 174.89C281.311 181.222 276.658 187.553 272.005 193.885ZM183.708 231.442C174.793 226.295 165.88 221.149 156.967 216.002C156.868 213.785 156.768 211.569 156.67 209.352C156.127 197.179 155.582 185.005 155.038 172.832C154.926 170.33 154.815 167.827 154.703 165.324C161.215 180.167 167.726 195.011 174.238 209.854C177.395 217.05 180.551 224.245 183.708 231.442ZM172.085 326.687C163.172 331.834 154.257 336.98 145.343 342.127C143.375 341.104 141.405 340.082 139.435 339.059C128.622 333.444 117.807 327.827 106.993 322.211C104.77 321.058 102.546 319.903 100.323 318.748C116.433 320.531 132.543 322.313 148.655 324.096C156.465 324.958 164.275 325.823 172.085 326.687ZM248.758 384.377C248.758 394.669 248.758 404.962 248.758 415.255C246.888 416.448 245.018 417.643 243.148 418.837C232.876 425.394 222.606 431.952 212.335 438.509C210.223 439.857 208.112 441.206 206 442.554C215.6 429.494 225.198 416.432 234.798 403.372C239.451 397.04 244.105 390.708 248.758 384.377ZM337.055 346.82C345.97 351.965 354.883 357.112 363.797 362.258C363.895 364.475 363.995 366.691 364.094 368.908C364.637 381.081 365.182 393.255 365.726 405.428C365.838 407.931 365.949 410.435 366.061 412.936C359.549 398.093 353.038 383.249 346.526 368.406C343.368 361.212 340.211 354.015 337.055 346.82ZM348.678 251.573C357.591 246.426 366.506 241.28 375.42 236.135C377.388 237.157 379.358 238.18 381.327 239.202C392.142 244.819 402.957 250.434 413.77 256.05C415.993 257.205 418.217 258.36 420.44 259.513C404.33 257.731 388.22 255.948 372.108 254.166C364.298 253.302 356.488 252.437 348.678 251.573ZM225.325 228.412C229.045 227.187 232.765 225.964 236.485 224.739C237.59 224.376 238.7 224.019 239.81 223.664C236.612 228.067 233.412 232.472 230.212 236.876C224.799 237.444 219.385 238.014 213.972 238.583C214.834 237.8 215.697 237.016 216.565 236.241C219.485 233.63 222.405 231.02 225.325 228.412ZM295.438 228.412C298.358 231.02 301.278 233.63 304.198 236.24C305.067 237.015 305.93 237.798 306.791 238.582C301.378 238.014 295.964 237.444 290.551 236.875C287.351 232.472 284.151 228.067 280.953 223.663C282.063 224.018 283.173 224.375 284.278 224.738C287.998 225.963 291.718 227.187 295.438 228.412ZM330.493 289.13C329.695 292.963 328.895 296.797 328.095 300.632C327.857 301.77 327.612 302.91 327.363 304.049C325.15 299.077 322.935 294.104 320.72 289.131C322.935 284.159 325.15 279.186 327.363 274.213C327.611 275.353 327.856 276.491 328.095 277.631C328.895 281.463 329.695 285.297 330.493 289.13ZM295.438 349.85C291.718 351.073 287.998 352.298 284.278 353.522C283.173 353.885 282.063 354.242 280.953 354.599C284.151 350.194 287.351 345.791 290.551 341.386C295.964 340.818 301.378 340.249 306.791 339.681C305.929 340.464 305.066 341.246 304.198 342.023C301.278 344.63 298.358 347.24 295.438 349.85ZM225.325 349.85C222.405 347.24 219.485 344.63 216.565 342.022C215.697 341.245 214.834 340.464 213.972 339.68C219.385 340.248 224.799 340.817 230.212 341.385C233.412 345.79 236.612 350.193 239.81 354.598C238.7 354.241 237.59 353.885 236.485 353.521C232.765 352.298 229.045 351.073 225.325 349.85ZM190.27 289.13C191.068 285.297 191.868 281.463 192.668 277.63C192.906 276.49 193.151 275.352 193.4 274.212C195.613 279.185 197.828 284.159 200.043 289.13C197.828 294.103 195.613 299.077 193.4 304.048C193.151 302.91 192.906 301.77 192.668 300.631C191.868 296.797 191.068 292.963 190.27 289.13ZM238.373 251.012C242.343 245.549 246.311 240.085 250.281 234.622C250.241 242.415 250.203 250.209 250.163 258.004C250.141 262.441 250.12 266.879 250.096 271.317C246.241 269.117 242.388 266.917 238.533 264.719C231.763 260.856 224.995 256.992 218.224 253.129C224.941 252.423 231.656 251.717 238.373 251.012ZM282.39 251.012C289.107 251.717 295.822 252.424 302.538 253.129C295.768 256.992 289 260.856 282.23 264.719C278.375 266.917 274.522 269.117 270.667 271.317C270.643 266.879 270.622 262.44 270.6 258.004C270.56 250.209 270.521 242.416 270.481 234.622C274.451 240.085 278.42 245.548 282.39 251.012ZM304.398 289.13C307.145 295.3 309.891 301.468 312.638 307.638C305.908 303.706 299.178 299.776 292.448 295.845C288.615 293.607 284.783 291.368 280.95 289.13C284.783 286.892 288.615 284.653 292.448 282.415C299.178 278.485 305.908 274.553 312.638 270.623C309.891 276.792 307.145 282.962 304.398 289.13ZM282.39 327.25C278.42 332.713 274.452 338.177 270.482 343.64C270.522 335.847 270.56 328.052 270.601 320.258C270.622 315.82 270.644 311.381 270.668 306.943C274.523 309.143 278.376 311.343 282.231 313.543C289.001 317.406 295.769 321.27 302.539 325.131C295.821 325.838 289.106 326.543 282.39 327.25ZM238.373 327.25C231.656 326.543 224.941 325.838 218.225 325.132C224.995 321.27 231.763 317.407 238.534 313.544C242.389 311.344 246.242 309.144 250.097 306.944C250.12 311.382 250.142 315.821 250.164 320.259C250.204 328.052 250.242 335.847 250.282 343.641C246.311 338.177 242.343 332.713 238.373 327.25ZM216.365 289.13C213.618 282.962 210.872 276.792 208.125 270.623C214.855 274.553 221.585 278.485 228.315 282.415C232.148 284.653 235.98 286.892 239.813 289.13C235.98 291.368 232.148 293.607 228.315 295.845C221.585 299.777 214.855 303.707 208.125 307.638C210.871 301.468 213.618 295.3 216.365 289.13Z" fill="white"/>
</svg>
