<?xml version="1.0" encoding="utf-8"?>
<!-- Generator: Adobe Illustrator 27.5.0, SVG Export Plug-In . SVG Version: 6.00 Build 0)  -->
<svg version="1.1" xmlns="http://www.w3.org/2000/svg" xmlns:xlink="http://www.w3.org/1999/xlink" x="0px" y="0px"
	 viewBox="0 0 600 600" style="enable-background:new 0 0 600 600;" xml:space="preserve">
<g id="BACKGROUND">
	<rect style="fill:#FEC7D4;" width="600" height="600"/>
</g>
<g id="OBJECTS">
	<g>
		<path style="fill:#AA712B;" d="M226.18,146.084l-87.873-88.805l-81.812,88.862c-1.979,1.678-3.237,4.178-3.237,6.975v139.577
			c0,5.05,4.095,9.144,9.147,9.144h157.928c5.051,0,9.146-4.094,9.146-9.144V153.116
			C229.479,150.289,228.195,147.762,226.18,146.084z"/>
		<path style="fill:#7E4C13;" d="M171.009,165.969c0,16.629-13.48,30.108-30.107,30.108c-16.629,0-30.108-13.479-30.108-30.108
			c0-16.627,13.479-30.106,30.108-30.106C157.529,135.863,171.009,149.342,171.009,165.969z"/>
		<path style="opacity:0.5;fill:#AA712B;" d="M226.18,146.084l-70.395-71.142v-2.823c0-3.029-2.456-5.485-5.486-5.485
			c-0.803,0-1.56,0.182-2.247,0.492l-9.744-9.847l-81.812,88.862c-1.979,1.678-3.237,4.178-3.237,6.975v24.43
			c1.833-0.567,3.544-1.616,4.926-3.142l26.924-29.727v8.281c0,3.03,2.456,5.485,5.486,5.485c3.03,0,5.486-2.455,5.486-5.485
			v-20.393l26.605-29.374c0.895,1.815,2.744,3.075,4.905,3.075c3.03,0,5.486-2.455,5.486-5.485v-9.062l8.292-9.154l3.445,3.803
			v16.497c0,3.03,2.456,5.485,5.485,5.485c3.03,0,5.486-2.455,5.486-5.485v-4.383l29.087,32.113v7.864
			c0,3.03,2.455,5.485,5.485,5.485c1.857,0,3.493-0.929,4.485-2.341l29.711,32.802c1.382,1.526,3.093,2.575,4.926,3.142v-24.43
			C229.479,150.289,228.195,147.762,226.18,146.084z"/>
		<path style="fill:#F9F0DC;" d="M133.077,93.637c0,3.029-2.456,5.486-5.486,5.486l0,0c-3.03,0-5.485-2.457-5.485-5.486v-17.86
			c0-3.03,2.455-5.485,5.485-5.485l0,0c3.03,0,5.486,2.456,5.486,5.485V93.637z"/>
		<path style="fill:#F9F0DC;" d="M195.843,131.653c0,3.029-2.456,5.486-5.485,5.486l0,0c-3.03,0-5.485-2.457-5.485-5.486v-17.86
			c0-3.03,2.455-5.485,5.485-5.485l0,0c3.03,0,5.485,2.456,5.485,5.485V131.653z"/>
		<path style="fill:#F9F0DC;" d="M179.259,105.118c0,3.03-2.456,5.486-5.486,5.486l0,0c-3.03,0-5.486-2.456-5.486-5.486v-17.86
			c0-3.029,2.456-5.485,5.486-5.485l0,0c3.03,0,5.486,2.456,5.486,5.485V105.118z"/>
		<path style="fill:#F9F0DC;" d="M75.669,149.003c0,3.03-2.456,5.486-5.486,5.486l0,0c-3.03,0-5.485-2.456-5.485-5.486v-17.86
			c0-3.03,2.456-5.485,5.485-5.485l0,0c3.03,0,5.486,2.455,5.486,5.485V149.003z"/>
		<path style="fill:#F9F0DC;" d="M221.102,150.789c0,3.03-2.456,5.485-5.485,5.485l0,0c-3.03,0-5.486-2.455-5.486-5.485v-17.86
			c0-3.029,2.456-5.486,5.486-5.486l0,0c3.029,0,5.485,2.456,5.485,5.486V150.789z"/>
		<path style="fill:#F9F0DC;" d="M114.962,105.373c0,3.03-2.456,5.486-5.486,5.486l0,0c-3.03,0-5.485-2.456-5.485-5.486v-17.86
			c0-3.03,2.456-5.485,5.485-5.485l0,0c3.03,0,5.486,2.456,5.486,5.485V105.373z"/>
		<path style="fill:#F9F0DC;" d="M96.081,145.814c0,3.03-2.456,5.486-5.486,5.486l0,0c-3.03,0-5.486-2.456-5.486-5.486v-30.744
			c0-3.03,2.456-5.487,5.486-5.487l0,0c3.03,0,5.486,2.457,5.486,5.487V145.814z"/>
		<path style="fill:#F9F0DC;" d="M155.785,96.061c0,3.03-2.456,5.485-5.486,5.485l0,0c-3.029,0-5.485-2.456-5.485-5.485V65.315
			c0-3.03,2.456-5.486,5.485-5.486l0,0c3.03,0,5.486,2.456,5.486,5.486V96.061z"/>
		<path style="fill:#FEFEFC;" d="M240.984,145.914L149.673,45.103c-2.102-2.322-4.963-3.538-7.863-3.631
			c-0.11-0.005-0.22,0.001-0.33,0c-0.187-0.001-0.373-0.008-0.558,0c-2.898,0.095-5.755,1.313-7.855,3.631L41.754,145.914
			c-4.11,4.537-3.763,11.547,0.774,15.655c2.121,1.923,4.784,2.87,7.438,2.87c3.021,0,6.031-1.228,8.219-3.643l83.184-91.84
			l83.184,91.84c2.189,2.417,5.198,3.643,8.219,3.643c2.653,0,5.315-0.948,7.437-2.87
			C244.746,157.461,245.094,150.451,240.984,145.914z"/>
		<g>
			<g>
				<path style="fill:#FEFEFC;" d="M79.586,293.543c-3.457,0-6.258-2.801-6.258-6.258v-56.624c0-8.792-7.153-15.943-15.943-15.943
					c-8.792,0-15.944,7.152-15.944,15.943v0.745c0,3.456-2.802,6.258-6.258,6.258c-3.456,0-6.258-2.802-6.258-6.258v-0.745
					c0-15.693,12.767-28.46,28.461-28.46c15.693,0,28.46,12.767,28.46,28.46v56.624C85.845,290.741,83.043,293.543,79.586,293.543z"
					/>
			</g>
			<g>
				<defs>
					<path id="SVGID_1_" d="M79.586,293.543c-3.457,0-6.258-2.801-6.258-6.258v-56.624c0-8.792-7.153-15.943-15.943-15.943
						c-8.792,0-15.944,7.152-15.944,15.943v0.745c0,3.456-2.802,6.258-6.258,6.258c-3.456,0-6.258-2.802-6.258-6.258v-0.745
						c0-15.693,12.767-28.46,28.461-28.46c15.693,0,28.46,12.767,28.46,28.46v56.624C85.845,290.741,83.043,293.543,79.586,293.543z
						"/>
				</defs>
				<clipPath id="SVGID_00000045585406335602669280000016761674058167824568_">
					<use xlink:href="#SVGID_1_"  style="overflow:visible;"/>
				</clipPath>
				<g style="clip-path:url(#SVGID_00000045585406335602669280000016761674058167824568_);">
					<g>
						<path style="fill:#CC3207;" d="M43.889,242.293c-3.109-18.175-21.903-15.809-22.701-15.696l-1.218-8.859
							c9.729-1.339,29.089,1.759,32.73,23.047L43.889,242.293z"/>
					</g>
					<g>
						<path style="fill:#CC3207;" d="M58.4,226.833l-8.888-0.972c0.074-0.713,1.654-17.496-12.566-20.477l1.834-8.751
							C56.541,200.357,59.38,218.016,58.4,226.833z"/>
					</g>
					<g>
						<path style="fill:#CC3207;" d="M66.441,230.892l-5.741-6.855c0.548-0.463,13.306-11.481,5.109-23.477l7.381-5.044
							C83.429,210.499,73.252,225.207,66.441,230.892z"/>
					</g>
					<g>
						<path style="fill:#CC3207;" d="M60.843,242.192c-0.031-0.008-0.055-0.015-0.068-0.019l2.515-8.58l0,0
							c0.079,0.023,7.716,2.119,14.454-1.871c4.958-2.935,8.411-8.522,10.265-16.606l8.714,1.999
							c-2.437,10.63-7.332,18.158-14.55,22.375C72.347,245.231,61.875,242.485,60.843,242.192z"/>
					</g>
					<g>
						<path style="fill:#CC3207;" d="M75.194,262.208c-7.969,0-14.385-3.441-14.739-3.634l4.273-7.854
							c0.082,0.043,8.244,4.343,15.744,1.686c4.445-1.576,7.974-5.414,10.49-11.406l8.244,3.46
							c-3.547,8.45-8.874,13.968-15.835,16.404C80.584,261.838,77.805,262.208,75.194,262.208z"/>
					</g>
					<g>
						<path style="fill:#CC3207;" d="M79.415,283.433c-7.146,0-13.906-2.23-18.314-4.566l4.188-7.9l-2.093,3.95l2.083-3.955
							c0.857,0.448,21.114,10.794,30.999-6.327l7.743,4.471C97.728,280.005,88.275,283.433,79.415,283.433z"/>
					</g>
				</g>
			</g>
		</g>
		<g>
			<g>
				<path style="fill:#FEFEFC;" d="M201.11,293.543c3.457,0,6.259-2.801,6.259-6.258v-56.624c0-8.792,7.152-15.943,15.943-15.943
					c8.791,0,15.944,7.152,15.944,15.943v0.745c0,3.456,2.802,6.258,6.259,6.258c3.457,0,6.258-2.802,6.258-6.258v-0.745
					c0-15.693-12.767-28.46-28.46-28.46c-15.693,0-28.461,12.767-28.461,28.46v56.624
					C194.852,290.741,197.655,293.543,201.11,293.543z"/>
			</g>
			<g>
				<defs>
					<path id="SVGID_00000047743071422842977250000006934543497418864824_" d="M201.11,293.543c3.457,0,6.259-2.801,6.259-6.258
						v-56.624c0-8.792,7.152-15.943,15.943-15.943c8.791,0,15.944,7.152,15.944,15.943v0.745c0,3.456,2.802,6.258,6.259,6.258
						c3.457,0,6.258-2.802,6.258-6.258v-0.745c0-15.693-12.767-28.46-28.46-28.46c-15.693,0-28.461,12.767-28.461,28.46v56.624
						C194.852,290.741,197.655,293.543,201.11,293.543z"/>
				</defs>
				<clipPath id="SVGID_00000116202248098627342880000000304865592516099250_">
					<use xlink:href="#SVGID_00000047743071422842977250000006934543497418864824_"  style="overflow:visible;"/>
				</clipPath>
				<g style="clip-path:url(#SVGID_00000116202248098627342880000000304865592516099250_);">
					<g>
						<path style="fill:#CC3207;" d="M236.809,242.293c3.109-18.175,21.903-15.809,22.701-15.696l1.218-8.859
							c-9.729-1.339-29.09,1.759-32.73,23.047L236.809,242.293z"/>
					</g>
					<g>
						<path style="fill:#CC3207;" d="M222.297,226.833l8.887-0.972c-0.074-0.713-1.654-17.496,12.566-20.477l-1.834-8.751
							C224.157,200.357,221.318,218.016,222.297,226.833z"/>
					</g>
					<g>
						<path style="fill:#CC3207;" d="M214.256,230.892l5.741-6.855c-0.548-0.463-13.306-11.481-5.109-23.477l-7.381-5.044
							C197.269,210.499,207.445,225.207,214.256,230.892z"/>
					</g>
					<g>
						<path style="fill:#CC3207;" d="M219.854,242.192c0.032-0.008,0.055-0.015,0.068-0.019l-2.515-8.58l0,0
							c-0.08,0.023-7.717,2.119-14.454-1.871c-4.958-2.935-8.411-8.522-10.265-16.606l-8.714,1.999
							c2.438,10.63,7.332,18.158,14.55,22.375C208.351,245.231,218.823,242.485,219.854,242.192z"/>
					</g>
					<g>
						<path style="fill:#CC3207;" d="M205.504,262.208c7.969,0,14.385-3.441,14.739-3.634l-4.273-7.854
							c-0.082,0.043-8.244,4.343-15.744,1.686c-4.445-1.576-7.974-5.414-10.49-11.406l-8.244,3.46
							c3.546,8.45,8.874,13.968,15.835,16.404C200.114,261.838,202.893,262.208,205.504,262.208z"/>
					</g>
					<g>
						<path style="fill:#CC3207;" d="M201.282,283.433c7.145,0,13.906-2.23,18.314-4.566l-4.188-7.9l2.094,3.95l-2.084-3.955
							c-0.857,0.448-21.113,10.794-30.999-6.327l-7.742,4.471C182.97,280.005,192.422,283.433,201.282,283.433z"/>
					</g>
				</g>
			</g>
		</g>
		<path style="fill:#F9F0DC;" d="M240.209,150.684c-2.122,1.922-4.784,2.869-7.437,2.869c-3.021,0-6.031-1.228-8.219-3.643
			l-83.184-91.84l-83.184,91.84c-2.188,2.415-5.198,3.643-8.219,3.643c-2.654,0-5.316-0.946-7.438-2.869
			c-0.906-0.821-1.638-1.761-2.208-2.772c-2.494,4.413-1.707,10.112,2.208,13.657c2.121,1.923,4.784,2.87,7.438,2.87
			c3.021,0,6.031-1.228,8.219-3.643l83.184-91.84l83.184,91.84c2.189,2.417,5.198,3.643,8.219,3.643c2.653,0,5.315-0.948,7.437-2.87
			c3.914-3.545,4.701-9.245,2.208-13.657C241.847,148.923,241.116,149.863,240.209,150.684z"/>
		<path style="fill:#7E4C13;" d="M174.223,297.796v-50.878c0-18.873-15.299-34.172-34.172-34.172
			c-18.872,0-34.172,15.299-34.172,34.172v50.878H174.223z"/>
		<path style="fill:#FEFEFC;" d="M222.649,270.428c-12.292-1.934-23.963,4.236-29.653,14.531c-2.131-1.185-4.488-2.042-7.037-2.443
			c-8.744-1.376-17.083,2.763-21.477,9.837c-2.276-2.021-5.129-3.446-8.36-3.955c-6.023-0.948-11.784,1.503-15.363,5.923
			c-3.58-4.42-9.341-6.871-15.364-5.923c-3.23,0.509-6.082,1.934-8.359,3.955c-4.395-7.074-12.734-11.213-21.477-9.837
			c-2.548,0.402-4.905,1.259-7.037,2.443c-5.69-10.294-17.362-16.465-29.654-14.531c-15.216,2.396-25.723,16.304-24.12,31.451
			h102.577h6.868H246.77C248.373,286.732,237.865,272.824,222.649,270.428z"/>
		<path style="fill:none;stroke:#FEFEFC;stroke-width:6;stroke-miterlimit:10;" d="M174.223,297.796v-50.878
			c0-18.873-15.299-34.172-34.172-34.172c-18.872,0-34.172,15.299-34.172,34.172v50.878H174.223z"/>
		<path style="fill:#FEFEFC;" d="M129.505,258.588c0,3.664-2.971,6.634-6.634,6.634c-3.664,0-6.634-2.97-6.634-6.634
			c0-3.664,2.97-6.634,6.634-6.634C126.535,251.954,129.505,254.924,129.505,258.588z"/>
		<path style="fill:#F9F0DC;" d="M234.943,275.475c4.567,31.511-43.438,15.516-43.438,15.516s-12.503,10.971-50.519,5.869
			c-8.42,5.102-35.21,4.592-52.56-5.102c-21.719,8.604-37.95,0.024-48.347-9.807c-4.046,5.582-6.105,12.608-5.331,19.928h102.577
			h6.868H246.77C247.889,291.309,243.105,281.347,234.943,275.475z"/>
		<path style="fill:none;stroke:#FEFEFC;stroke-width:6;stroke-miterlimit:10;" d="M171.009,165.969
			c0,16.629-13.48,30.108-30.107,30.108c-16.629,0-30.108-13.479-30.108-30.108c0-16.627,13.479-30.106,30.108-30.106
			C157.529,135.863,171.009,149.342,171.009,165.969z"/>
		
			<line style="fill:none;stroke:#FEFEFC;stroke-width:6;stroke-miterlimit:10;" x1="140.731" y1="137.394" x2="140.731" y2="194.546"/>
		
			<line style="fill:none;stroke:#FEFEFC;stroke-width:6;stroke-miterlimit:10;" x1="111.645" y1="166.225" x2="170.329" y2="166.225"/>
		<path style="fill:#FEFEFC;" d="M69.419,228.608c0,2.185-1.771,3.955-3.955,3.955c-2.185,0-3.955-1.771-3.955-3.955
			c0-2.183,1.771-3.954,3.955-3.954C67.648,224.654,69.419,226.425,69.419,228.608z"/>
		<path style="fill:#FEFEFC;" d="M69.419,244.81c0,2.184-1.771,3.955-3.955,3.955c-2.185,0-3.955-1.771-3.955-3.955
			c0-2.184,1.771-3.955,3.955-3.955C67.648,240.855,69.419,242.626,69.419,244.81z"/>
		<path style="fill:#FEFEFC;" d="M69.419,261.013c0,2.183-1.771,3.954-3.955,3.954c-2.185,0-3.955-1.771-3.955-3.954
			c0-2.185,1.771-3.955,3.955-3.955C67.648,257.058,69.419,258.828,69.419,261.013z"/>
		<path style="fill:#FEFEFC;" d="M222.761,228.608c0,2.185-1.771,3.955-3.954,3.955c-2.185,0-3.955-1.771-3.955-3.955
			c0-2.183,1.771-3.954,3.955-3.954C220.99,224.654,222.761,226.425,222.761,228.608z"/>
		<path style="fill:#FEFEFC;" d="M222.761,244.81c0,2.184-1.771,3.955-3.954,3.955c-2.185,0-3.955-1.771-3.955-3.955
			c0-2.184,1.771-3.955,3.955-3.955C220.99,240.855,222.761,242.626,222.761,244.81z"/>
		<path style="fill:#FEFEFC;" d="M222.761,261.013c0,2.183-1.771,3.954-3.954,3.954c-2.185,0-3.955-1.771-3.955-3.954
			c0-2.185,1.771-3.955,3.955-3.955C220.99,257.058,222.761,258.828,222.761,261.013z"/>
		<g>
			<path style="fill:#7E4C13;" d="M77.376,120.171c0,1.295-1.05,2.344-2.344,2.344c-1.294,0-2.344-1.049-2.344-2.344
				c0-1.294,1.05-2.344,2.344-2.344C76.326,117.828,77.376,118.877,77.376,120.171z"/>
			<circle style="fill:#7E4C13;" cx="68.525" cy="141.221" r="2.344"/>
			<circle style="fill:#7E4C13;" cx="49.389" cy="146.58" r="2.344"/>
			<path style="fill:#7E4C13;" d="M93.577,118.002c0,1.295-1.05,2.344-2.344,2.344c-1.294,0-2.344-1.049-2.344-2.344
				c0-1.293,1.05-2.344,2.344-2.344C92.527,115.658,93.577,116.709,93.577,118.002z"/>
			<path style="fill:#7E4C13;" d="M95.363,97.336c0,1.294-1.05,2.344-2.344,2.344c-1.294,0-2.344-1.05-2.344-2.344
				c0-1.294,1.05-2.344,2.344-2.344C94.313,94.992,95.363,96.042,95.363,97.336z"/>
			<path style="fill:#7E4C13;" d="M109.907,93.764c0,1.294-1.05,2.344-2.344,2.344c-1.294,0-2.344-1.05-2.344-2.344
				c0-1.294,1.05-2.344,2.344-2.344C108.857,91.419,109.907,92.47,109.907,93.764z"/>
			<path style="fill:#7E4C13;" d="M117.051,71.312c0,1.294-1.05,2.344-2.344,2.344c-1.294,0-2.344-1.05-2.344-2.344
				c0-1.294,1.05-2.344,2.344-2.344C116.001,68.967,117.051,70.017,117.051,71.312z"/>
			<path style="fill:#7E4C13;" d="M130.318,69.271c0,1.294-1.05,2.344-2.344,2.344c-1.294,0-2.344-1.05-2.344-2.344
				c0-1.295,1.05-2.344,2.344-2.344C129.269,66.926,130.318,67.976,130.318,69.271z"/>
		</g>
		<g>
			<path style="fill:#7E4C13;" d="M204.938,119.067c0,1.294,1.05,2.344,2.344,2.344c1.294,0,2.344-1.05,2.344-2.344
				c0-1.294-1.05-2.344-2.344-2.344C205.988,116.723,204.938,117.773,204.938,119.067z"/>
			<path style="fill:#7E4C13;" d="M211.444,140.117c0,1.294,1.05,2.344,2.344,2.344c1.294,0,2.344-1.05,2.344-2.344
				c0-1.294-1.05-2.344-2.344-2.344C212.494,137.773,211.444,138.823,211.444,140.117z"/>
			<path style="fill:#7E4C13;" d="M230.58,145.475c0,1.294,1.05,2.344,2.344,2.344c1.294,0,2.344-1.05,2.344-2.344
				c0-1.294-1.05-2.344-2.344-2.344C231.63,143.13,230.58,144.181,230.58,145.475z"/>
			<path style="fill:#7E4C13;" d="M188.736,116.898c0,1.295,1.05,2.344,2.344,2.344c1.294,0,2.344-1.05,2.344-2.344
				c0-1.293-1.05-2.344-2.344-2.344C189.786,114.554,188.736,115.605,188.736,116.898z"/>
			<path style="fill:#7E4C13;" d="M186.95,96.231c0,1.295,1.05,2.344,2.344,2.344c1.294,0,2.344-1.05,2.344-2.344
				c0-1.293-1.05-2.344-2.344-2.344C188.001,93.887,186.95,94.938,186.95,96.231z"/>
			<path style="fill:#7E4C13;" d="M172.407,92.66c0,1.294,1.05,2.344,2.344,2.344c1.294,0,2.344-1.05,2.344-2.344
				c0-1.294-1.05-2.344-2.344-2.344C173.457,90.315,172.407,91.366,172.407,92.66z"/>
			<path style="fill:#7E4C13;" d="M165.263,70.206c0,1.295,1.049,2.344,2.344,2.344c1.294,0,2.344-1.05,2.344-2.344
				c0-1.293-1.05-2.344-2.344-2.344C166.313,67.862,165.263,68.913,165.263,70.206z"/>
			<path style="fill:#7E4C13;" d="M151.995,68.166c0,1.294,1.05,2.344,2.344,2.344c1.294,0,2.344-1.05,2.344-2.344
				c0-1.294-1.05-2.344-2.344-2.344C153.045,65.822,151.995,66.872,151.995,68.166z"/>
		</g>
		<path style="fill:#7E4C13;" d="M138.653,52.517c0,1.293-1.05,2.344-2.344,2.344c-1.294,0-2.344-1.051-2.344-2.344
			c0-1.294,1.05-2.344,2.344-2.344C137.603,50.173,138.653,51.223,138.653,52.517z"/>
		<g>
			<path style="fill:none;stroke:#FEFEFC;stroke-width:6;stroke-linecap:round;stroke-linejoin:round;stroke-miterlimit:10;" d="
				M111.39,199.904c0,0-8.419-29.341-25.004-27.555c-16.585,1.786-9.951,26.28,7.144,15.308"/>
			<path style="fill:#FEFEFC;" d="M102.714,202.456c0,2.254-1.828,4.082-4.082,4.082s-4.082-1.828-4.082-4.082
				c0-2.254,1.828-4.083,4.082-4.083S102.714,200.202,102.714,202.456z"/>
		</g>
		<g>
			<path style="fill:none;stroke:#FEFEFC;stroke-width:6;stroke-linecap:round;stroke-linejoin:round;stroke-miterlimit:10;" d="
				M170.961,199.904c0,0,8.42-29.341,25.004-27.555c16.585,1.786,9.951,26.28-7.144,15.308"/>
			<path style="fill:#FEFEFC;" d="M179.636,202.456c0,2.254,1.828,4.082,4.083,4.082c2.254,0,4.082-1.828,4.082-4.082
				c0-2.254-1.828-4.083-4.082-4.083C181.464,198.374,179.636,200.202,179.636,202.456z"/>
		</g>
		<g>
			<path style="fill:#CC3207;" d="M147.493,119.789c0,3.593-2.913,6.506-6.506,6.506c-3.594,0-6.506-2.913-6.506-6.506
				c0-3.594,2.913-6.506,6.506-6.506C144.58,113.282,147.493,116.195,147.493,119.789z"/>
			<path style="fill:#FEFEFC;" d="M140.987,116.472c0,1.374-1.114,2.487-2.488,2.487c-1.374,0-2.487-1.113-2.487-2.487
				c0-1.374,1.114-2.487,2.487-2.487C139.873,113.985,140.987,115.098,140.987,116.472z"/>
		</g>
		<g>
			<path style="fill:#CC3207;" d="M126.826,126.678c0,3.594-2.913,6.506-6.506,6.506c-3.594,0-6.506-2.913-6.506-6.506
				c0-3.593,2.913-6.506,6.506-6.506C123.913,120.171,126.826,123.085,126.826,126.678z"/>
			<path style="fill:#FEFEFC;" d="M120.32,123.361c0,1.374-1.114,2.487-2.488,2.487c-1.374,0-2.488-1.113-2.488-2.487
				c0-1.375,1.114-2.488,2.488-2.488C119.206,120.873,120.32,121.986,120.32,123.361z"/>
		</g>
		<g>
			<path style="fill:#CC3207;" d="M168.415,126.678c0,3.594-2.913,6.506-6.506,6.506c-3.594,0-6.506-2.913-6.506-6.506
				c0-3.593,2.913-6.506,6.506-6.506C165.502,120.171,168.415,123.085,168.415,126.678z"/>
			<path style="fill:#FEFEFC;" d="M161.909,123.361c0,1.374-1.114,2.487-2.488,2.487c-1.374,0-2.487-1.113-2.487-2.487
				c0-1.375,1.113-2.488,2.487-2.488C160.795,120.873,161.909,121.986,161.909,123.361z"/>
		</g>
	</g>
	<g>
		<rect x="307.09" y="63.023" style="fill:#AA712B;" width="46.933" height="72.092"/>
		<polygon style="fill:#7E4C13;" points="557.88,284.461 293.704,284.461 293.704,129.148 424.824,58.991 557.88,129.148 		"/>
		<polygon style="opacity:0.5;fill:#AA712B;" points="307.09,98.541 307.09,114.972 354.022,105.742 354.022,64.433 307.09,68.573 
			307.09,74.313 343.861,74.313 343.861,79.474 		"/>
		<path style="fill:#AA712B;" d="M506.439,232.22l-83.317-84.202l-77.57,84.256c-1.875,1.591-3.069,3.961-3.069,6.613v45.735
			c0,4.788,3.883,8.671,8.673,8.671h149.74c4.789,0,8.673-3.883,8.673-8.671v-45.735C509.568,236.206,508.35,233.811,506.439,232.22
			z"/>
		<path style="opacity:0.5;fill:#AA712B;" d="M506.439,232.22l-81.809-82.678c-1.464,0.147-2.895,0.612-4.19,1.388l-74.89,81.344
			c-1.875,1.591-3.069,3.961-3.069,6.613v25.418c0.01-0.011,0.022-0.02,0.032-0.032l83.511-90.088l83.511,90.088
			c0.01,0.012,0.021,0.021,0.032,0.031v-25.417C509.568,236.206,508.35,233.811,506.439,232.22z"/>
		<path style="fill:#F9F0DC;" d="M420.227,182.612c0,2.672-2.166,4.839-4.838,4.839l0,0c-2.673,0-4.839-2.167-4.839-4.839v-15.241
			c0-2.672,2.166-4.838,4.839-4.838l0,0c2.672,0,4.838,2.166,4.838,4.838V182.612z"/>
		<path style="fill:#F9F0DC;" d="M459.419,204.627c0,2.672-2.166,4.839-4.839,4.839l0,0c-2.672,0-4.838-2.167-4.838-4.839v-15.241
			c0-2.672,2.166-4.838,4.838-4.838l0,0c2.673,0,4.839,2.166,4.839,4.838V204.627z"/>
		<path style="fill:#F9F0DC;" d="M361.199,247.931c0,2.672-2.166,4.838-4.838,4.838l0,0c-2.673,0-4.839-2.166-4.839-4.838v-15.241
			c0-2.672,2.166-4.838,4.839-4.838l0,0c2.672,0,4.838,2.166,4.838,4.838V247.931z"/>
		<path style="fill:#F9F0DC;" d="M385.875,212.61c0,2.672-2.166,4.839-4.838,4.839l0,0c-2.673,0-4.839-2.167-4.839-4.839v-15.241
			c0-2.672,2.166-4.838,4.839-4.838l0,0c2.672,0,4.838,2.166,4.838,4.838V212.61z"/>
		<path style="fill:#F9F0DC;" d="M442.242,175.597c0,2.672-2.165,4.838-4.838,4.838l0,0c-2.673,0-4.839-2.166-4.839-4.838v-15.241
			c0-2.672,2.166-4.838,4.839-4.838l0,0c2.673,0,4.838,2.166,4.838,4.838V175.597z"/>
		<path style="fill:#F9F0DC;" d="M482.401,218.9c0,2.672-2.166,4.838-4.839,4.838l0,0c-2.672,0-4.838-2.166-4.838-4.838v-15.241
			c0-2.672,2.166-4.838,4.838-4.838l0,0c2.673,0,4.839,2.166,4.839,4.838V218.9z"/>
		<path style="fill:#F9F0DC;" d="M505.142,252.769c0,2.673-2.166,4.839-4.838,4.839l0,0c-2.673,0-4.839-2.166-4.839-4.839v-15.24
			c0-2.672,2.166-4.839,4.839-4.839l0,0c2.672,0,4.838,2.167,4.838,4.839V252.769z"/>
		<path style="fill:#FEFEFC;" d="M524.438,238.846L433.84,141.11c-2.1-2.267-4.995-3.353-7.859-3.238
			c-2.835-0.088-5.691,0.996-7.77,3.238l-90.599,97.735c-3.814,4.115-3.571,10.545,0.545,14.359
			c1.955,1.813,4.433,2.709,6.903,2.709c2.73,0,5.453-1.094,7.454-3.253l83.511-90.089l83.511,90.089
			c2.001,2.159,4.724,3.253,7.454,3.253c2.471,0,4.949-0.896,6.904-2.709C528.01,249.391,528.254,242.961,524.438,238.846z"/>
		<path style="fill:#F9F0DC;" d="M523.894,241.351c-1.955,1.813-4.434,2.709-6.904,2.709c-2.73,0-5.453-1.093-7.454-3.253
			l-83.511-90.089l-83.511,90.089c-2.001,2.16-4.724,3.253-7.454,3.253c-2.471,0-4.948-0.896-6.903-2.709
			c-0.507-0.469-0.953-0.979-1.342-1.518c-2.95,4.102-2.459,9.85,1.342,13.372c1.955,1.813,4.433,2.709,6.903,2.709
			c2.73,0,5.453-1.094,7.454-3.253l83.511-90.089l83.511,90.089c2.001,2.159,4.724,3.253,7.454,3.253
			c2.471,0,4.949-0.896,6.904-2.709c3.801-3.522,4.291-9.27,1.341-13.372C524.847,240.372,524.4,240.882,523.894,241.351z"/>
		<path style="fill:#7E4C13;" d="M457.797,283.332v-51.61c0-16.032-12.997-29.03-29.03-29.03h-5.483
			c-16.033,0-29.03,12.998-29.03,29.03v51.61H457.797z"/>
		<path style="fill:#FEFEFC;" d="M448.505,224.625c-4.999-7.025-13.2-11.612-22.479-11.612c-9.278,0-17.48,4.587-22.479,11.612
			H448.505z"/>
		<rect x="423.606" y="208.256" style="fill:#7E4C13;" width="4.838" height="23.95"/>
		<path style="fill:#FEFEFC;" d="M412.962,248.898c0,2.939-2.384,5.322-5.322,5.322c-2.939,0-5.322-2.383-5.322-5.322
			c0-2.939,2.383-5.322,5.322-5.322C410.578,243.576,412.962,245.959,412.962,248.898z"/>
		<path style="fill:#CC3207;" d="M352.249,232.085c0,1.136-0.921,2.057-2.057,2.057l0,0c-1.136,0-2.057-0.921-2.057-2.057v-6.895
			c0-1.136,0.921-2.057,2.057-2.057l0,0c1.136,0,2.057,0.921,2.057,2.057V232.085z"/>
		<path style="fill:#CC3207;" d="M392.165,186.362c0,1.136-0.92,2.056-2.056,2.056l0,0c-1.137,0-2.057-0.92-2.057-2.056v-6.895
			c0-1.137,0.92-2.057,2.057-2.057l0,0c1.136,0,2.056,0.92,2.056,2.057V186.362z"/>
		<path style="fill:#CC3207;" d="M512.036,240.976c0,1.136-0.92,2.057-2.056,2.057l0,0c-1.136,0-2.057-0.921-2.057-2.057v-6.895
			c0-1.136,0.921-2.057,2.057-2.057l0,0c1.136,0,2.056,0.921,2.056,2.057V240.976z"/>
		<path style="fill:#CC3207;" d="M457,184.185c0,1.136-0.921,2.057-2.057,2.057l0,0c-1.136,0-2.057-0.921-2.057-2.057v-6.895
			c0-1.136,0.921-2.057,2.057-2.057l0,0c1.136,0,2.057,0.921,2.057,2.057V184.185z"/>
		<polygon style="opacity:0.5;fill:#AA712B;" points="293.704,129.148 293.704,147.719 425.792,77.044 557.88,147.719 
			557.88,129.148 424.824,58.991 		"/>
		<path style="fill:#CC3207;" d="M339.646,242.48c1.13-0.104,2.132,0.727,2.236,1.857l0,0c0.105,1.132-0.727,2.133-1.857,2.237
			l-6.866,0.637c-1.13,0.105-2.132-0.727-2.236-1.857l0,0c-0.105-1.132,0.727-2.133,1.857-2.237L339.646,242.48z"/>
		<path style="fill:#F9F0DC;" d="M382.973,99.392c0,2.673-2.166,4.839-4.839,4.839l0,0c-2.672,0-4.838-2.166-4.838-4.839v-15.24
			c0-2.672,2.166-4.839,4.838-4.839l0,0c2.673,0,4.839,2.167,4.839,4.839V99.392z"/>
		<path style="fill:#F9F0DC;" d="M535.543,124.552c0,2.672-2.166,4.838-4.838,4.838l0,0c-2.673,0-4.839-2.166-4.839-4.838v-15.241
			c0-2.672,2.166-4.838,4.839-4.838l0,0c2.672,0,4.838,2.166,4.838,4.838V124.552z"/>
		<path style="fill:#F9F0DC;" d="M482.966,96.489c0,2.672-2.166,4.838-4.839,4.838l0,0c-2.673,0-4.838-2.166-4.838-4.838V81.248
			c0-2.672,2.165-4.839,4.838-4.839l0,0c2.673,0,4.839,2.167,4.839,4.839V96.489z"/>
		<path style="fill:#F9F0DC;" d="M329.428,123.584c0,2.672-2.166,4.838-4.838,4.838l0,0c-2.673,0-4.839-2.166-4.839-4.838v-15.241
			c0-2.672,2.166-4.838,4.839-4.838l0,0c2.672,0,4.838,2.166,4.838,4.838V123.584z"/>
		<path style="fill:#F9F0DC;" d="M411.681,106.568c0,2.673-2.166,4.839-4.839,4.839l0,0c-2.672,0-4.838-2.166-4.838-4.839V69.636
			c0-2.672,2.166-4.838,4.838-4.838l0,0c2.673,0,4.839,2.166,4.839,4.838V106.568z"/>
		<path style="fill:#F9F0DC;" d="M509.738,125.922c0,2.673-2.166,4.839-4.839,4.839l0,0c-2.672,0-4.838-2.166-4.838-4.839V88.989
			c0-2.672,2.166-4.838,4.838-4.838l0,0c2.673,0,4.839,2.166,4.839,4.838V125.922z"/>
		<path style="fill:#F9F0DC;" d="M353.942,118.423c0,2.673-2.166,4.839-4.839,4.839l0,0c-2.673,0-4.838-2.166-4.838-4.839v-15.24
			c0-2.672,2.165-4.839,4.838-4.839l0,0c2.673,0,4.839,2.167,4.839,4.839V118.423z"/>
		<path style="fill:#F9F0DC;" d="M449.097,83.909c0,2.673-2.166,4.839-4.838,4.839l0,0c-2.673,0-4.839-2.166-4.839-4.839v-15.24
			c0-2.672,2.166-4.839,4.839-4.839l0,0c2.672,0,4.838,2.167,4.838,4.839V83.909z"/>
		<path style="fill:#CC3207;" d="M496.651,221.917c1.131-0.105,2.133,0.727,2.237,1.858l0,0c0.104,1.131-0.727,2.132-1.858,2.237
			l-6.865,0.636c-1.13,0.104-2.132-0.727-2.236-1.857l0,0c-0.105-1.131,0.727-2.133,1.857-2.237L496.651,221.917z"/>
		<rect x="288.704" y="122.374" style="fill:#FEFEFC;" width="20.644" height="161.925"/>
		<g>
			<defs>
				
					<rect id="SVGID_00000110444443813302224480000002420356576329543351_" x="288.704" y="122.374" width="20.644" height="161.925"/>
			</defs>
			<clipPath id="SVGID_00000049901419935421070860000005884530828955279240_">
				<use xlink:href="#SVGID_00000110444443813302224480000002420356576329543351_"  style="overflow:visible;"/>
			</clipPath>
			<g style="clip-path:url(#SVGID_00000049901419935421070860000005884530828955279240_);">
				<g>
					<path style="fill:#CC3207;" d="M280.322,162.788c-6.58,0-10.989-1.154-11.259-1.227l2.493-9.351
						c1.278,0.333,31.524,7.78,49.685-25.081l8.469,4.681c-11.394,20.617-27.215,27.641-38.482,29.901
						C287.232,162.515,283.52,162.788,280.322,162.788z"/>
				</g>
				<g>
					<path style="fill:#CC3207;" d="M282.58,194.076c-6.58,0-10.989-1.154-11.259-1.227l2.492-9.351
						c1.279,0.333,31.525,7.781,49.686-25.08l8.469,4.68c-11.394,20.617-27.215,27.641-38.482,29.902
						C289.489,193.803,285.778,194.076,282.58,194.076z"/>
				</g>
				<g>
					<path style="fill:#CC3207;" d="M282.58,225.364c-6.58,0-10.989-1.154-11.259-1.227l2.492-9.35
						c1.279,0.333,31.525,7.78,49.686-25.081l8.469,4.681c-11.394,20.617-27.215,27.64-38.482,29.901
						C289.489,225.092,285.778,225.364,282.58,225.364z"/>
				</g>
				<g>
					<path style="fill:#CC3207;" d="M279.51,253.628c-6.457-1.265-10.563-3.244-10.813-3.366l4.242-8.698
						c1.191,0.573,29.444,13.69,53.578-15.071l7.412,6.22c-15.142,18.045-32.017,21.899-43.508,21.955
						C286.344,254.686,282.649,254.242,279.51,253.628z"/>
				</g>
				<g>
					<path style="fill:#CC3207;" d="M279.51,278.465c-6.457-1.264-10.563-3.243-10.813-3.366l4.242-8.697
						c1.191,0.572,29.444,13.689,53.578-15.072l7.412,6.22c-15.142,18.046-32.017,21.899-43.508,21.955
						C286.344,279.523,282.649,279.079,279.51,278.465z"/>
				</g>
			</g>
		</g>
		<rect x="546.106" y="122.374" style="fill:#FEFEFC;" width="20.645" height="161.925"/>
		<g>
			<defs>
				
					<rect id="SVGID_00000181052804798412863610000001866291592547050138_" x="546.106" y="122.374" width="20.645" height="161.925"/>
			</defs>
			<clipPath id="SVGID_00000011032318638981211330000002965600410715815314_">
				<use xlink:href="#SVGID_00000181052804798412863610000001866291592547050138_"  style="overflow:visible;"/>
			</clipPath>
			<g style="clip-path:url(#SVGID_00000011032318638981211330000002965600410715815314_);">
				<g>
					<path style="fill:#CC3207;" d="M537.725,162.788c-6.579,0-10.989-1.154-11.259-1.227l2.492-9.351
						c1.279,0.333,31.525,7.78,49.686-25.081l8.469,4.681c-11.394,20.617-27.216,27.641-38.482,29.901
						C544.634,162.515,540.923,162.788,537.725,162.788z"/>
				</g>
				<g>
					<path style="fill:#CC3207;" d="M539.982,194.076c-6.579,0-10.989-1.154-11.259-1.227l2.492-9.351
						c1.279,0.333,31.525,7.781,49.686-25.08l8.469,4.68c-11.393,20.617-27.214,27.641-38.481,29.902
						C546.893,193.803,543.181,194.076,539.982,194.076z"/>
				</g>
				<g>
					<path style="fill:#CC3207;" d="M539.982,225.364c-6.579,0-10.989-1.154-11.259-1.227l2.492-9.35
						c1.279,0.333,31.525,7.78,49.686-25.081l8.469,4.681c-11.393,20.617-27.214,27.64-38.481,29.901
						C546.893,225.092,543.181,225.364,539.982,225.364z"/>
				</g>
				<g>
					<path style="fill:#CC3207;" d="M536.913,253.628c-6.457-1.265-10.563-3.244-10.813-3.366l4.242-8.698
						c1.19,0.573,29.443,13.69,53.578-15.071l7.412,6.22c-15.142,18.045-32.017,21.899-43.509,21.955
						C543.747,254.686,540.052,254.242,536.913,253.628z"/>
				</g>
				<g>
					<path style="fill:#CC3207;" d="M536.913,278.465c-6.457-1.264-10.563-3.243-10.813-3.366l4.242-8.697
						c1.19,0.572,29.443,13.689,53.578-15.072l7.412,6.22c-15.142,18.046-32.017,21.899-43.509,21.955
						C543.747,279.523,540.052,279.079,536.913,278.465z"/>
				</g>
			</g>
		</g>
		<path style="fill:#CC3207;" d="M365.435,214.026c-1.067,0.388-2.247-0.163-2.634-1.23l0,0c-0.388-1.068,0.162-2.247,1.23-2.635
			l6.481-2.354c1.067-0.388,2.247,0.163,2.635,1.23l0,0c0.388,1.068-0.164,2.247-1.23,2.635L365.435,214.026z"/>
		<path style="fill:#CC3207;" d="M406.077,167.094c-1.067,0.389-2.247-0.163-2.635-1.23l0,0c-0.387-1.068,0.163-2.247,1.23-2.635
			l6.481-2.354c1.067-0.388,2.247,0.163,2.635,1.23l0,0c0.387,1.068-0.164,2.248-1.23,2.635L406.077,167.094z"/>
		<path style="fill:#CC3207;" d="M473.331,203.382c-1.067,0.388-2.247-0.163-2.635-1.23l0,0c-0.387-1.068,0.163-2.247,1.23-2.635
			l6.48-2.354c1.068-0.388,2.248,0.163,2.635,1.23l0,0c0.388,1.068-0.163,2.247-1.23,2.635L473.331,203.382z"/>
		<path style="fill:#CC3207;" d="M428.352,151.056c-0.878-0.72-1.008-2.015-0.289-2.894l0,0c0.72-0.88,2.014-1.01,2.894-0.29
			l5.337,4.365c0.88,0.719,1.009,2.015,0.29,2.894l0,0c-0.72,0.879-2.015,1.009-2.894,0.29L428.352,151.056z"/>
		
			<line style="fill:none;stroke:#FEFEFC;stroke-width:5;stroke-linecap:round;stroke-miterlimit:10;" x1="349.346" y1="269.945" x2="387.81" y2="269.945"/>
		
			<line style="fill:none;stroke:#FEFEFC;stroke-width:5;stroke-linecap:round;stroke-miterlimit:10;" x1="464.741" y1="269.945" x2="503.206" y2="269.945"/>
		<g>
			<path style="fill:#FEFEFC;" d="M584.981,289.782c0,6.68-5.415,12.097-12.096,12.097h-293.69c-6.68,0-12.096-5.417-12.096-12.097
				l0,0c0-6.68,5.415-12.096,12.096-12.096h293.69C579.566,277.686,584.981,283.103,584.981,289.782L584.981,289.782z"/>
			<path style="fill:#F9F0DC;" d="M577.704,278.772c0.212,0.895,0.336,1.825,0.336,2.786c0,6.68-5.416,12.096-12.096,12.096h-293.69
				c-1.78,0-3.465-0.393-4.987-1.085c1.26,5.335,6.04,9.311,11.76,9.311h293.69c6.68,0,12.096-5.417,12.096-12.097
				C584.813,284.883,581.894,280.673,577.704,278.772z"/>
		</g>
		<path style="fill:#FEFEFC;" d="M581.296,123.743l-148.96-79.702c-2.083-1.114-4.352-1.521-6.541-1.311
			c-2.189-0.213-4.462,0.195-6.547,1.311l-148.96,79.702c-5.622,3.007-7.74,10.002-4.732,15.623c2.08,3.888,6.067,6.1,10.188,6.1
			c1.838,0,3.702-0.439,5.436-1.367l144.613-77.377l144.614,77.377c1.734,0.928,3.598,1.367,5.435,1.367
			c4.12,0,8.107-2.213,10.186-6.1C589.037,133.745,586.917,126.75,581.296,123.743z"/>
		<path style="fill:#F9F0DC;" d="M586.028,130.012c-2.079,3.888-6.066,6.1-10.186,6.1c-1.838,0-3.701-0.439-5.435-1.367
			L425.792,57.368l-144.613,77.376c-1.734,0.928-3.598,1.367-5.436,1.367c-4.121,0-8.108-2.212-10.188-6.1
			c-0.135-0.253-0.249-0.512-0.363-0.771c-1.391,3.141-1.382,6.862,0.363,10.125c2.08,3.888,6.067,6.1,10.188,6.1
			c1.838,0,3.702-0.439,5.436-1.367l144.613-77.377l144.614,77.377c1.734,0.928,3.598,1.367,5.435,1.367
			c4.12,0,8.107-2.213,10.186-6.1c1.747-3.263,1.755-6.983,0.363-10.124C586.277,129.5,586.164,129.759,586.028,130.012z"/>
		<g>
			<path style="fill:#FEFEFC;" d="M370.473,177.935c0,2.673-2.166,4.839-4.838,4.839h-35.32c-2.673,0-4.839-2.166-4.839-4.839
				v-36.046c0-2.672,2.166-4.838,4.839-4.838h35.32c2.672,0,4.838,2.166,4.838,4.838V177.935z"/>
			<rect x="345.071" y="131.003" style="fill:#7E4C13;" width="5.08" height="60.237"/>
			<rect x="317.009" y="158.581" style="fill:#7E4C13;" width="60.238" height="5.081"/>
		</g>
		<g>
			<path style="fill:#FEFEFC;" d="M528.931,177.935c0,2.673-2.166,4.839-4.839,4.839h-35.32c-2.673,0-4.839-2.166-4.839-4.839
				v-36.046c0-2.672,2.166-4.838,4.839-4.838h35.32c2.673,0,4.839,2.166,4.839,4.838V177.935z"/>
			<rect x="503.528" y="131.003" style="fill:#7E4C13;" width="5.08" height="60.237"/>
			<rect x="475.466" y="158.581" style="fill:#7E4C13;" width="60.238" height="5.081"/>
		</g>
		<path style="fill:none;stroke:#FEFEFC;stroke-width:6;stroke-linecap:round;stroke-linejoin:round;stroke-miterlimit:10;" d="
			M379.989,160.436c0,0,35.158-18.709,27.417-33.869c-6.349-12.433-21.935,0.968-13.226,9.355"/>
		<path style="fill:none;stroke:#FEFEFC;stroke-width:6;stroke-linecap:round;stroke-linejoin:round;stroke-miterlimit:10;" d="
			M471.595,160.436c0,0-35.159-18.709-27.418-33.869c6.349-12.433,21.935,0.968,13.225,9.355"/>
		<path style="fill:#F9F0DC;" d="M436.919,122.052c0,5.878-4.766,10.643-10.643,10.643c-5.879,0-10.645-4.766-10.645-10.643
			c0-5.879,4.766-10.645,10.645-10.645C432.153,111.407,436.919,116.173,436.919,122.052z"/>
		<path style="fill:#FEFEFC;" d="M428.372,117.536c0,2.672-2.166,4.838-4.839,4.838c-2.672,0-4.838-2.166-4.838-4.838
			c0-2.672,2.166-4.838,4.838-4.838C426.206,112.698,428.372,114.864,428.372,117.536z"/>
		<g>
			<path style="fill:#CC3207;" d="M438.631,44.687c0,6.769-5.488,12.256-12.258,12.256c-6.77,0-12.258-5.487-12.258-12.256
				c0-6.771,5.488-12.258,12.258-12.258C433.143,32.429,438.631,37.916,438.631,44.687z"/>
			<path style="fill:#FEFEFC;" d="M428.788,39.486c0,3.077-2.494,5.571-5.572,5.571c-3.077,0-5.571-2.494-5.571-5.571
				c0-3.077,2.494-5.571,5.571-5.571C426.294,33.915,428.788,36.409,428.788,39.486z"/>
		</g>
		<g>
			<circle style="fill:#CC3207;" cx="464.499" cy="77.216" r="5.355"/>
			<path style="fill:#FEFEFC;" d="M465.554,74.945c0,1.344-1.09,2.433-2.434,2.433c-1.345,0-2.434-1.089-2.434-2.433
				c0-1.345,1.089-2.435,2.434-2.435C464.464,72.511,465.554,73.601,465.554,74.945z"/>
		</g>
		<g>
			<path style="fill:#CC3207;" d="M513.722,91.408c0,2.957-2.397,5.354-5.354,5.354s-5.354-2.398-5.354-5.354
				c0-2.956,2.397-5.354,5.354-5.354S513.722,88.452,513.722,91.408z"/>
			<path style="fill:#FEFEFC;" d="M509.422,89.138c0,1.344-1.09,2.434-2.434,2.434c-1.345,0-2.435-1.09-2.435-2.434
				c0-1.344,1.09-2.434,2.435-2.434C508.332,86.704,509.422,87.794,509.422,89.138z"/>
		</g>
		<g>
			<circle style="fill:#CC3207;" cx="552.234" cy="124.632" r="5.354"/>
			<path style="fill:#FEFEFC;" d="M553.289,122.361c0,1.344-1.089,2.434-2.433,2.434c-1.345,0-2.435-1.09-2.435-2.434
				c0-1.345,1.09-2.434,2.435-2.434C552.2,119.928,553.289,121.017,553.289,122.361z"/>
		</g>
		<g>
			<path style="fill:#CC3207;" d="M402.438,61.41c0,2.957-2.397,5.354-5.354,5.354c-2.957,0-5.355-2.397-5.355-5.354
				c0-2.957,2.398-5.355,5.355-5.355C400.041,56.056,402.438,58.453,402.438,61.41z"/>
			<path style="fill:#FEFEFC;" d="M398.139,59.14c0,1.344-1.09,2.433-2.434,2.433c-1.345,0-2.435-1.089-2.435-2.433
				c0-1.345,1.09-2.435,2.435-2.435C397.049,56.705,398.139,57.795,398.139,59.14z"/>
		</g>
		<g>
			<circle style="fill:#CC3207;" cx="358.699" cy="92.054" r="5.354"/>
			<path style="fill:#FEFEFC;" d="M359.754,89.783c0,1.344-1.09,2.433-2.434,2.433c-1.345,0-2.435-1.089-2.435-2.433
				c0-1.345,1.09-2.435,2.435-2.435C358.664,87.349,359.754,88.438,359.754,89.783z"/>
		</g>
		<g>
			<circle style="fill:#CC3207;" cx="326.442" cy="99.149" r="5.354"/>
			<circle style="fill:#FEFEFC;" cx="325.064" cy="96.879" r="2.434"/>
		</g>
		<g>
			<path style="fill:#CC3207;" d="M297.606,127.535c0,2.957-2.397,5.354-5.354,5.354c-2.957,0-5.354-2.397-5.354-5.354
				c0-2.957,2.397-5.354,5.354-5.354C295.208,122.181,297.606,124.578,297.606,127.535z"/>
			<path style="fill:#FEFEFC;" d="M293.306,125.264c0,1.345-1.089,2.434-2.434,2.434c-1.345,0-2.434-1.089-2.434-2.434
				c0-1.344,1.089-2.434,2.434-2.434C292.217,122.83,293.306,123.92,293.306,125.264z"/>
		</g>
		<g>
			<circle style="fill:#FEFEFC;" cx="328.379" cy="195.271" r="3.226"/>
			<path style="fill:#FEFEFC;" d="M343.86,195.271c0,1.781-1.443,3.226-3.225,3.226c-1.781,0-3.225-1.444-3.225-3.226
				c0-1.781,1.444-3.226,3.225-3.226C342.417,192.046,343.86,193.49,343.86,195.271z"/>
			<path style="fill:#FEFEFC;" d="M357.408,195.271c0,1.781-1.444,3.226-3.226,3.226c-1.781,0-3.225-1.444-3.225-3.226
				c0-1.781,1.443-3.226,3.225-3.226C355.964,192.046,357.408,193.49,357.408,195.271z"/>
		</g>
		<g>
			<path style="fill:#FEFEFC;" d="M502.56,195.271c0,1.781-1.443,3.226-3.225,3.226c-1.781,0-3.225-1.444-3.225-3.226
				c0-1.781,1.444-3.226,3.225-3.226C501.117,192.046,502.56,193.49,502.56,195.271z"/>
			<path style="fill:#FEFEFC;" d="M514.817,195.271c0,1.781-1.443,3.226-3.225,3.226c-1.782,0-3.226-1.444-3.226-3.226
				c0-1.781,1.443-3.226,3.226-3.226C513.374,192.046,514.817,193.49,514.817,195.271z"/>
			<path style="fill:#FEFEFC;" d="M528.365,195.271c0,1.781-1.444,3.226-3.226,3.226c-1.781,0-3.226-1.444-3.226-3.226
				c0-1.781,1.444-3.226,3.226-3.226C526.921,192.046,528.365,193.49,528.365,195.271z"/>
		</g>
		<path style="fill:#FEFEFC;" d="M363.699,63.991c0,2.672-2.166,4.838-4.839,4.838H300.8c-2.672,0-4.838-2.166-4.838-4.838v-5.807
			c0-2.672,2.167-4.838,4.838-4.838h58.061c2.673,0,4.839,2.166,4.839,4.838V63.991z"/>
		<path style="fill:#F9F0DC;" d="M358.86,53.347v4.838c0,2.672-2.166,4.839-4.838,4.839h-58.061v0.968
			c0,2.672,2.167,4.838,4.838,4.838h58.061c2.673,0,4.839-2.166,4.839-4.838v-5.807C363.699,55.513,361.533,53.347,358.86,53.347z"
			/>
	</g>
	<g>
		<g>
			<polygon style="fill:#CC3207;" points="36.878,424.045 77.378,376.045 140.378,376.045 140.378,425.045 			"/>
			<rect x="36.378" y="431.545" style="fill:#7E4C13;" width="88" height="121"/>
			<rect x="36.378" y="431.545" style="opacity:0.5;fill:#AA712B;" width="88" height="11.75"/>
			<path style="fill:#F9F0DC;" d="M52.878,451.045c0,2.623-2.126,4.75-4.75,4.75l0,0c-2.624,0-4.75-2.127-4.75-4.75v-16.75
				c0-2.623,2.126-4.75,4.75-4.75l0,0c2.624,0,4.75,2.127,4.75,4.75V451.045z"/>
			<path style="fill:#F9F0DC;" d="M71.878,440.295c0,2.623-2.126,4.75-4.75,4.75l0,0c-2.623,0-4.75-2.127-4.75-4.75v-16.75
				c0-2.623,2.127-4.75,4.75-4.75l0,0c2.624,0,4.75,2.127,4.75,4.75V440.295z"/>
			<path style="fill:#F9F0DC;" d="M107.878,439.045c0,2.623-2.126,4.75-4.75,4.75l0,0c-2.623,0-4.75-2.127-4.75-4.75v-12.336
				c0-2.623,2.127-4.75,4.75-4.75l0,0c2.624,0,4.75,2.127,4.75,4.75V439.045z"/>
			<path style="fill:#FEFEFC;" d="M134.378,427.545c0,5.247-4.253,9.5-9.5,9.5h-95.5c-5.247,0-9.5-4.253-9.5-9.5l0,0
				c0-5.247,4.253-9.5,9.5-9.5h95.5C130.124,418.045,134.378,422.298,134.378,427.545L134.378,427.545z"/>
			<path style="fill:#F9F0DC;" d="M130.211,431.378h-95.5c-5.247,0-9.5-4.253-9.5-9.5c0-1.091,0.193-2.134,0.531-3.109
				c-3.442,1.428-5.865,4.817-5.865,8.776c0,5.247,4.253,9.5,9.5,9.5h95.5c4.156,0,7.68-2.673,8.969-6.391
				C132.727,431.119,131.499,431.378,130.211,431.378z"/>
			<path style="fill:#AC742F;" d="M53.545,543.544c0,3.958-3.208,7.167-7.167,7.167l0,0c-3.958,0-7.167-3.209-7.167-7.167v-10.332
				c0-3.958,3.209-7.167,7.167-7.167l0,0c3.958,0,7.167,3.209,7.167,7.167V543.544z"/>
			<path style="fill:#AC742F;" d="M81.878,543.544c0,3.958-3.209,7.167-7.167,7.167l0,0c-3.958,0-7.167-3.209-7.167-7.167v-10.332
				c0-3.958,3.209-7.167,7.167-7.167l0,0c3.958,0,7.167,3.209,7.167,7.167V543.544z"/>
			<path style="fill:#CD360C;" d="M67.878,543.544c0,3.958-3.208,7.167-7.167,7.167l0,0c-3.958,0-7.167-3.209-7.167-7.167v-10.332
				c0-3.958,3.208-7.167,7.167-7.167l0,0c3.958,0,7.167,3.209,7.167,7.167V543.544z"/>
			<path style="fill:#AC742F;" d="M110.545,543.544c0,3.958-3.208,7.167-7.166,7.167l0,0c-3.959,0-7.167-3.209-7.167-7.167v-10.332
				c0-3.958,3.208-7.167,7.167-7.167l0,0c3.958,0,7.166,3.209,7.166,7.167V543.544z"/>
			<path style="fill:#CD360C;" d="M96.211,543.544c0,3.958-3.208,7.167-7.166,7.167l0,0c-3.959,0-7.167-3.209-7.167-7.167v-10.332
				c0-3.958,3.208-7.167,7.167-7.167l0,0c3.958,0,7.166,3.209,7.166,7.167V543.544z"/>
			<path style="fill:#FEFEFC;" d="M103.706,480.379c0,1.869-2.401,3.478-2.751,5.246c-0.36,1.82,1.235,4.225,0.541,5.9
				c-0.707,1.705-3.543,2.273-4.558,3.787c-1.021,1.527-0.468,4.363-1.762,5.658c-1.295,1.293-4.13,0.738-5.657,1.762
				c-1.515,1.014-2.082,3.85-3.786,4.555c-1.676,0.695-4.079-0.9-5.9-0.541c-1.768,0.35-3.377,2.752-5.247,2.752
				c-1.869,0-3.479-2.402-5.247-2.752c-1.82-0.359-4.225,1.236-5.9,0.541c-1.704-0.707-2.271-3.541-3.787-4.557
				c-1.526-1.021-4.362-0.467-5.656-1.762c-1.295-1.295-0.74-4.131-1.763-5.656c-1.014-1.516-3.85-2.084-4.557-3.787
				c-0.694-1.676,0.902-4.08,0.542-5.9c-0.35-1.768-2.752-3.377-2.752-5.246c0-1.871,2.402-3.48,2.752-5.246
				c0.36-1.822-1.236-4.227-0.541-5.902c0.706-1.703,3.542-2.271,4.557-3.787c1.022-1.525,0.468-4.361,1.763-5.656
				c1.294-1.295,4.13-0.74,5.656-1.762c1.515-1.014,2.082-3.85,3.787-4.557c1.675-0.695,4.079,0.902,5.9,0.541
				c1.767-0.35,3.377-2.752,5.246-2.752c1.87,0,3.479,2.402,5.247,2.752c1.821,0.361,4.226-1.236,5.9-0.541
				c1.705,0.707,2.272,3.543,3.787,4.557c1.527,1.022,4.362,0.469,5.657,1.762c1.294,1.295,0.74,4.131,1.762,5.658
				c1.015,1.514,3.85,2.082,4.557,3.787c0.695,1.676-0.901,4.078-0.541,5.9C101.305,476.898,103.706,478.508,103.706,480.379z"/>
			<circle style="fill:#CC3207;" cx="74.586" cy="480.379" r="20.5"/>
			<rect x="72.086" y="456.504" style="fill:#FEFEFC;" width="5" height="47.75"/>
			<rect x="50.711" y="477.879" style="fill:#FEFEFC;" width="47.75" height="5"/>
			<circle style="fill:#FEFEFC;" cx="46.128" cy="531.378" r="2.25"/>
			<circle style="fill:#FEFEFC;" cx="60.378" cy="531.378" r="2.25"/>
			<circle style="fill:#FEFEFC;" cx="74.628" cy="531.378" r="2.25"/>
			<circle style="fill:#FEFEFC;" cx="88.878" cy="531.378" r="2.25"/>
			<circle style="fill:#FEFEFC;" cx="103.128" cy="531.378" r="2.25"/>
			
				<line style="fill:none;stroke:#FEFEFC;stroke-width:4;stroke-linecap:round;stroke-linejoin:round;stroke-miterlimit:10;" x1="65.044" y1="413.71" x2="85.711" y2="387.043"/>
			
				<line style="fill:none;stroke:#FEFEFC;stroke-width:4;stroke-linecap:round;stroke-linejoin:round;stroke-miterlimit:10;" x1="85.044" y1="413.377" x2="92.711" y2="401.043"/>
			<path style="fill:none;stroke:#FEFEFC;stroke-width:4;stroke-linecap:round;stroke-linejoin:round;stroke-miterlimit:10;" d="
				M75.128,517.045c-7.25,6-26,4.5-26.75-3c-0.75-7.5,9-6,8,1"/>
			<path style="fill:none;stroke:#FEFEFC;stroke-width:4;stroke-linecap:round;stroke-linejoin:round;stroke-miterlimit:10;" d="
				M75.087,517.045c7.25,6,26,4.5,26.75-3c0.75-7.5-9-6-8,1"/>
			
				<polyline style="fill:none;stroke:#FEFEFC;stroke-width:4;stroke-linecap:round;stroke-linejoin:round;stroke-miterlimit:10;" points="
				40.044,420.713 77.378,376.045 130.711,376.045 			"/>
		</g>
		<g>
			<polygon style="fill:#CC3207;" points="301.045,424.045 260.545,376.045 197.545,376.045 197.545,425.045 			"/>
			<rect x="213.545" y="431.545" style="fill:#7E4C13;" width="88" height="121"/>
			<rect x="213.545" y="431.545" style="opacity:0.5;fill:#AA712B;" width="88" height="11.75"/>
			<path style="fill:#F9F0DC;" d="M285.045,451.045c0,2.623,2.127,4.75,4.75,4.75l0,0c2.624,0,4.75-2.127,4.75-4.75v-16.75
				c0-2.623-2.126-4.75-4.75-4.75l0,0c-2.623,0-4.75,2.127-4.75,4.75V451.045z"/>
			<path style="fill:#F9F0DC;" d="M266.045,440.295c0,2.623,2.126,4.75,4.75,4.75l0,0c2.624,0,4.75-2.127,4.75-4.75v-16.75
				c0-2.623-2.126-4.75-4.75-4.75l0,0c-2.624,0-4.75,2.127-4.75,4.75V440.295z"/>
			<path style="fill:#F9F0DC;" d="M230.045,439.045c0,2.623,2.127,4.75,4.75,4.75l0,0c2.624,0,4.75-2.127,4.75-4.75v-12.336
				c0-2.623-2.126-4.75-4.75-4.75l0,0c-2.623,0-4.75,2.127-4.75,4.75V439.045z"/>
			<path style="fill:#FEFEFC;" d="M203.545,427.545c0,5.247,4.253,9.5,9.5,9.5h95.5c5.247,0,9.5-4.253,9.5-9.5l0,0
				c0-5.247-4.253-9.5-9.5-9.5h-95.5C207.798,418.045,203.545,422.298,203.545,427.545L203.545,427.545z"/>
			<path style="fill:#F9F0DC;" d="M207.712,431.378h95.5c5.246,0,9.5-4.253,9.5-9.5c0-1.091-0.193-2.134-0.531-3.109
				c3.441,1.428,5.864,4.817,5.864,8.776c0,5.247-4.253,9.5-9.5,9.5h-95.5c-4.156,0-7.68-2.673-8.969-6.391
				C205.196,431.119,206.423,431.378,207.712,431.378z"/>
			<path style="fill:#AC742F;" d="M284.378,543.544c0,3.958,3.209,7.167,7.167,7.167l0,0c3.958,0,7.167-3.209,7.167-7.167v-10.332
				c0-3.958-3.209-7.167-7.167-7.167l0,0c-3.958,0-7.167,3.209-7.167,7.167V543.544z"/>
			<path style="fill:#AC742F;" d="M256.044,543.544c0,3.958,3.208,7.167,7.167,7.167l0,0c3.958,0,7.167-3.209,7.167-7.167v-10.332
				c0-3.958-3.208-7.167-7.167-7.167l0,0c-3.958,0-7.167,3.209-7.167,7.167V543.544z"/>
			<path style="fill:#CD360C;" d="M270.045,543.544c0,3.958,3.208,7.167,7.167,7.167l0,0c3.958,0,7.168-3.209,7.168-7.167v-10.332
				c0-3.958-3.209-7.167-7.168-7.167l0,0c-3.958,0-7.167,3.209-7.167,7.167V543.544z"/>
			<path style="fill:#AC742F;" d="M227.378,543.544c0,3.958,3.208,7.167,7.166,7.167l0,0c3.959,0,7.167-3.209,7.167-7.167v-10.332
				c0-3.958-3.208-7.167-7.167-7.167l0,0c-3.958,0-7.166,3.209-7.166,7.167V543.544z"/>
			<path style="fill:#CD360C;" d="M241.712,543.544c0,3.958,3.208,7.167,7.166,7.167l0,0c3.959,0,7.167-3.209,7.167-7.167v-10.332
				c0-3.958-3.208-7.167-7.167-7.167l0,0c-3.958,0-7.166,3.209-7.166,7.167V543.544z"/>
			<path style="fill:#FEFEFC;" d="M234.217,480.379c0,1.869,2.401,3.478,2.751,5.246c0.36,1.82-1.235,4.225-0.541,5.9
				c0.707,1.705,3.543,2.273,4.558,3.787c1.021,1.527,0.468,4.363,1.762,5.658c1.295,1.293,4.13,0.738,5.657,1.762
				c1.515,1.014,2.082,3.85,3.786,4.555c1.676,0.695,4.079-0.9,5.9-0.541c1.768,0.35,3.377,2.752,5.247,2.752
				c1.869,0,3.48-2.402,5.247-2.752c1.82-0.359,4.225,1.236,5.9,0.541c1.704-0.707,2.271-3.541,3.787-4.557
				c1.526-1.021,4.362-0.467,5.656-1.762c1.295-1.295,0.74-4.131,1.763-5.656c1.014-1.516,3.85-2.084,4.557-3.787
				c0.694-1.676-0.902-4.08-0.542-5.9c0.35-1.768,2.752-3.377,2.752-5.246c0-1.871-2.402-3.48-2.752-5.246
				c-0.36-1.822,1.236-4.227,0.541-5.902c-0.706-1.703-3.542-2.271-4.557-3.787c-1.022-1.525-0.468-4.361-1.763-5.656
				c-1.294-1.295-4.13-0.74-5.656-1.762c-1.515-1.014-2.082-3.85-3.787-4.557c-1.675-0.695-4.079,0.902-5.9,0.541
				c-1.767-0.35-3.377-2.752-5.246-2.752c-1.87,0-3.479,2.402-5.247,2.752c-1.821,0.361-4.225-1.236-5.9-0.541
				c-1.705,0.707-2.272,3.543-3.787,4.557c-1.527,1.022-4.362,0.469-5.657,1.762c-1.294,1.295-0.74,4.131-1.762,5.658
				c-1.015,1.514-3.85,2.082-4.557,3.787c-0.695,1.676,0.901,4.078,0.541,5.9C236.618,476.898,234.217,478.508,234.217,480.379z"/>
			<circle style="fill:#CC3207;" cx="263.337" cy="480.379" r="20.5"/>
			<rect x="260.837" y="456.504" style="fill:#FEFEFC;" width="5" height="47.75"/>
			<rect x="239.462" y="477.879" style="fill:#FEFEFC;" width="47.75" height="5"/>
			<circle style="fill:#FEFEFC;" cx="291.795" cy="531.378" r="2.25"/>
			<circle style="fill:#FEFEFC;" cx="277.545" cy="531.378" r="2.25"/>
			<circle style="fill:#FEFEFC;" cx="263.295" cy="531.378" r="2.25"/>
			<circle style="fill:#FEFEFC;" cx="249.045" cy="531.378" r="2.25"/>
			<circle style="fill:#FEFEFC;" cx="234.795" cy="531.378" r="2.25"/>
			
				<line style="fill:none;stroke:#FEFEFC;stroke-width:4;stroke-linecap:round;stroke-linejoin:round;stroke-miterlimit:10;" x1="272.878" y1="413.71" x2="252.211" y2="387.043"/>
			
				<line style="fill:none;stroke:#FEFEFC;stroke-width:4;stroke-linecap:round;stroke-linejoin:round;stroke-miterlimit:10;" x1="252.878" y1="413.377" x2="245.211" y2="401.043"/>
			<path style="fill:none;stroke:#FEFEFC;stroke-width:4;stroke-linecap:round;stroke-linejoin:round;stroke-miterlimit:10;" d="
				M262.795,517.045c7.25,6,26,4.5,26.75-3c0.75-7.5-9-6-8,1"/>
			<path style="fill:none;stroke:#FEFEFC;stroke-width:4;stroke-linecap:round;stroke-linejoin:round;stroke-miterlimit:10;" d="
				M262.836,517.045c-7.25,6-26,4.5-26.75-3c-0.75-7.5,9-6,8,1"/>
			
				<polyline style="fill:none;stroke:#FEFEFC;stroke-width:4;stroke-linecap:round;stroke-linejoin:round;stroke-miterlimit:10;" points="
				297.878,420.713 260.545,376.045 207.212,376.045 			"/>
		</g>
		<polygon style="fill:#AA712B;" points="223.645,562.711 114.312,562.711 114.312,395.377 168.333,355.045 223.645,395.377 		"/>
		<path style="fill:#7E4C13;" d="M200.981,547.376c0,7.76-6.291,14.05-14.05,14.05h-35.905c-7.76,0-14.05-6.29-14.05-14.05v-84.619
			c0-7.76,6.29-14.05,14.05-14.05h35.905c7.759,0,14.05,6.29,14.05,14.05V547.376z"/>
		<path style="fill:none;stroke:#FEFEFC;stroke-width:4;stroke-miterlimit:10;" d="M200.981,547.376c0,7.76-6.291,14.05-14.05,14.05
			h-35.905c-7.76,0-14.05-6.29-14.05-14.05v-84.619c0-7.76,6.29-14.05,14.05-14.05h35.905c7.759,0,14.05,6.29,14.05,14.05V547.376z"
			/>
		<path style="fill:#FEFEFC;" d="M191.878,540.045c0,3.85-3.15,7-7,7h-32.25c-3.85,0-7-3.15-7-7v-72.5c0-3.85,3.15-7,7-7h32.25
			c3.85,0,7,3.15,7,7V540.045z"/>
		<path style="opacity:0.5;fill:#AA712B;" d="M168.667,356.891c-1.142-0.037-2.293,0.109-3.406,0.448l-50.948,38.038v24.632
			c1.035-0.344,2.034-0.853,2.956-1.54l51.398-38.25l51.398,38.25c1.107,0.823,2.324,1.39,3.581,1.723v-24.814l-52.481-38.268
			C170.339,356.938,169.5,356.863,168.667,356.891z"/>
		<path style="fill:#F9F0DC;" d="M146.878,397.795c0,2.623-2.126,4.75-4.75,4.75l0,0c-2.624,0-4.75-2.127-4.75-4.75v-16.75
			c0-2.623,2.126-4.75,4.75-4.75l0,0c2.624,0,4.75,2.127,4.75,4.75V397.795z"/>
		<path style="fill:#F9F0DC;" d="M196.878,399.295c0,2.623-2.126,4.75-4.75,4.75l0,0c-2.624,0-4.75-2.127-4.75-4.75v-16.75
			c0-2.623,2.126-4.75,4.75-4.75l0,0c2.624,0,4.75,2.127,4.75,4.75V399.295z"/>
		<path style="fill:#F9F0DC;" d="M130.128,401.045c0,2.623-2.126,4.75-4.75,4.75l0,0c-2.623,0-4.75-2.127-4.75-4.75v-16.75
			c0-2.623,2.127-4.75,4.75-4.75l0,0c2.624,0,4.75,2.127,4.75,4.75V401.045z"/>
		<path style="fill:#F9F0DC;" d="M162.378,376.045c0,2.623-2.126,4.75-4.75,4.75l0,0c-2.624,0-4.75-2.127-4.75-4.75v-16.75
			c0-2.623,2.126-4.75,4.75-4.75l0,0c2.624,0,4.75,2.127,4.75,4.75V376.045z"/>
		<path style="fill:#F9F0DC;" d="M217.628,402.795c0,2.623-2.126,4.75-4.75,4.75l0,0c-2.624,0-4.75-2.127-4.75-4.75v-16.75
			c0-2.623,2.126-4.75,4.75-4.75l0,0c2.624,0,4.75,2.127,4.75,4.75V402.795z"/>
		<path style="fill:#FEFEFC;" d="M232.914,389.288l-57.333-42.667c-1.982-1.474-4.312-2.138-6.602-2.064
			c-2.29-0.074-4.621,0.59-6.602,2.064l-57.333,42.667c-4.652,3.463-5.617,10.04-2.155,14.692c2.061,2.77,5.226,4.232,8.432,4.232
			c2.179,0,4.378-0.677,6.26-2.077l51.398-38.25l51.398,38.25c1.882,1.4,4.081,2.077,6.261,2.077c3.205,0,6.37-1.463,8.432-4.232
			C238.531,399.328,237.566,392.751,232.914,389.288z"/>
		<path style="fill:#F9F0DC;" d="M226.638,394.88c-2.18,0-4.378-0.677-6.261-2.077l-51.398-38.25l-51.398,38.25
			c-1.882,1.4-4.081,2.077-6.26,2.077c-3.045,0-6.042-1.335-8.102-3.841c-3.006,3.641-3.274,8.984-0.33,12.941
			c2.061,2.77,5.226,4.232,8.432,4.232c2.179,0,4.378-0.677,6.26-2.077l51.398-38.25l51.398,38.25
			c1.882,1.4,4.081,2.077,6.261,2.077c3.205,0,6.37-1.463,8.432-4.232c2.944-3.957,2.676-9.3-0.33-12.941
			C232.679,393.545,229.683,394.88,226.638,394.88z"/>
		<circle style="fill:#AA712B;" cx="158.628" cy="505.795" r="6.75"/>
		<circle style="fill:#FEFEFC;" cx="156.128" cy="503.795" r="3.375"/>
		<g>
			<path style="fill:none;stroke:#FEFEFC;stroke-width:4;stroke-linecap:round;stroke-linejoin:round;stroke-miterlimit:10;" d="
				M168.937,439.712c0,0-12.47-27.921-27-22.333c-15.167,5.833-2.333,24.501,7.667,15.667"/>
			<path style="fill:none;stroke:#FEFEFC;stroke-width:4;stroke-linecap:round;stroke-linejoin:round;stroke-miterlimit:10;" d="
				M169.128,439.712c0,0,12.47-27.921,27-22.333c15.167,5.833,2.333,24.501-7.667,15.667"/>
		</g>
		<polygon style="fill:#FEFEFC;" points="167.968,390.295 155.248,405.935 169.051,421.962 181.465,406.321 		"/>
		<g>
			<circle style="fill:#FEFEFC;" cx="122.128" cy="425.545" r="2.25"/>
			<circle style="fill:#FEFEFC;" cx="122.128" cy="436.045" r="2.25"/>
			<circle style="fill:#FEFEFC;" cx="122.128" cy="446.545" r="2.25"/>
			<circle style="fill:#FEFEFC;" cx="122.128" cy="457.045" r="2.25"/>
			<circle style="fill:#FEFEFC;" cx="122.128" cy="467.545" r="2.25"/>
			<circle style="fill:#FEFEFC;" cx="122.128" cy="478.045" r="2.25"/>
			<circle style="fill:#FEFEFC;" cx="122.128" cy="488.545" r="2.25"/>
			<circle style="fill:#FEFEFC;" cx="122.128" cy="499.045" r="2.25"/>
			<circle style="fill:#FEFEFC;" cx="122.128" cy="509.545" r="2.25"/>
			<circle style="fill:#FEFEFC;" cx="122.128" cy="520.045" r="2.25"/>
			<circle style="fill:#FEFEFC;" cx="122.128" cy="530.545" r="2.25"/>
		</g>
		<g>
			<circle style="fill:#FEFEFC;" cx="216.128" cy="425.545" r="2.25"/>
			<circle style="fill:#FEFEFC;" cx="216.128" cy="436.045" r="2.25"/>
			<circle style="fill:#FEFEFC;" cx="216.128" cy="446.545" r="2.25"/>
			<circle style="fill:#FEFEFC;" cx="216.128" cy="457.045" r="2.25"/>
			<circle style="fill:#FEFEFC;" cx="216.128" cy="467.545" r="2.25"/>
			<circle style="fill:#FEFEFC;" cx="216.128" cy="478.045" r="2.25"/>
			<circle style="fill:#FEFEFC;" cx="216.128" cy="488.545" r="2.25"/>
			<circle style="fill:#FEFEFC;" cx="216.128" cy="499.045" r="2.25"/>
			<circle style="fill:#FEFEFC;" cx="216.128" cy="509.545" r="2.25"/>
			<circle style="fill:#FEFEFC;" cx="216.128" cy="520.045" r="2.25"/>
			<circle style="fill:#FEFEFC;" cx="216.128" cy="530.545" r="2.25"/>
		</g>
		<g>
			<path style="fill:#FEFEFC;" d="M302.792,539.972c-2.625,0-5.05,0.831-7.043,2.234c-1.995-1.403-4.42-2.234-7.043-2.234
				c-2.625,0-5.05,0.831-7.044,2.234c-1.994-1.403-4.419-2.234-7.043-2.234c-2.624,0-5.049,0.831-7.043,2.234
				c-1.994-1.403-4.419-2.234-7.043-2.234c-2.624,0-5.049,0.831-7.043,2.234c-1.994-1.403-4.419-2.234-7.042-2.234
				c-2.624,0-5.049,0.831-7.043,2.234c-1.994-1.403-4.419-2.234-7.042-2.234c-2.624,0-5.049,0.831-7.043,2.234
				c-1.994-1.403-4.419-2.234-7.042-2.234c-2.624,0-5.049,0.831-7.043,2.234c-1.994-1.403-4.419-2.234-7.042-2.234
				c-2.624,0-5.049,0.831-7.043,2.234c-1.994-1.403-4.419-2.234-7.042-2.234c-2.624,0-5.049,0.831-7.043,2.234
				c-1.994-1.403-4.419-2.234-7.042-2.234c-2.624,0-5.049,0.831-7.043,2.234c-1.994-1.403-4.419-2.234-7.043-2.234
				c-2.624,0-5.048,0.831-7.042,2.234c-1.994-1.403-4.419-2.234-7.043-2.234c-2.624,0-5.048,0.831-7.042,2.234
				c-1.994-1.403-4.419-2.234-7.043-2.234c-2.624,0-5.049,0.831-7.042,2.234c-1.994-1.403-4.419-2.234-7.043-2.234
				c-2.623,0-5.049,0.831-7.042,2.234c-1.994-1.403-4.419-2.234-7.043-2.234c-2.624,0-5.049,0.831-7.043,2.234
				c-1.994-1.403-4.42-2.234-7.043-2.234s-5.049,0.831-7.043,2.234c-1.994-1.403-4.419-2.234-7.043-2.234
				c-2.624,0-5.049,0.831-7.043,2.234c-1.994-1.403-4.419-2.234-7.042-2.234c-2.623,0-5.049,0.831-7.043,2.234
				c-1.994-1.403-4.419-2.234-7.042-2.234c-2.624,0-5.049,0.831-7.043,2.234c-1.994-1.403-4.419-2.234-7.042-2.234
				c-6.771,0-12.26,5.488-12.26,12.259c0,6.771,5.489,12.26,12.26,12.26c2.624,0,5.049-0.831,7.042-2.234
				c1.994,1.403,4.419,2.234,7.043,2.234c2.624,0,5.049-0.831,7.042-2.234c1.994,1.403,4.419,2.234,7.043,2.234
				c2.624,0,5.049-0.831,7.042-2.234c1.994,1.403,4.419,2.234,7.043,2.234c2.624,0,5.049-0.831,7.043-2.234
				c1.994,1.403,4.419,2.234,7.043,2.234s5.049-0.831,7.043-2.234c1.994,1.403,4.419,2.234,7.043,2.234
				c2.623,0,5.049-0.831,7.043-2.234c1.994,1.403,4.419,2.234,7.042,2.234c2.624,0,5.049-0.831,7.043-2.234
				c1.994,1.403,4.419,2.234,7.042,2.234c2.624,0,5.049-0.831,7.043-2.234c1.994,1.403,4.419,2.234,7.042,2.234
				c2.624,0,5.049-0.831,7.043-2.234c1.994,1.403,4.419,2.234,7.042,2.234c2.624,0,5.049-0.831,7.043-2.234
				c1.994,1.403,4.419,2.234,7.043,2.234c2.624,0,5.048-0.831,7.042-2.234c1.994,1.403,4.419,2.234,7.043,2.234
				c2.624,0,5.048-0.831,7.042-2.234c1.994,1.403,4.419,2.234,7.043,2.234c2.624,0,5.048-0.831,7.042-2.234
				c1.994,1.403,4.419,2.234,7.043,2.234c2.624,0,5.048-0.831,7.042-2.234c1.994,1.403,4.419,2.234,7.043,2.234
				c2.624,0,5.049-0.831,7.042-2.234c1.994,1.403,4.419,2.234,7.043,2.234c2.624,0,5.049-0.831,7.042-2.234
				c1.994,1.403,4.419,2.234,7.043,2.234c2.624,0,5.049-0.831,7.043-2.234c1.994,1.403,4.419,2.234,7.043,2.234
				c2.624,0,5.049-0.831,7.043-2.234c1.994,1.403,4.419,2.234,7.044,2.234c2.623,0,5.048-0.831,7.043-2.234
				c1.993,1.403,4.418,2.234,7.043,2.234c6.77,0,12.259-5.488,12.259-12.26C315.051,545.46,309.561,539.972,302.792,539.972z"/>
			<path style="fill:#FEFEFC;" d="M325.354,560.229c0,4.055-3.287,7.342-7.342,7.342H19.945c-4.054,0-7.341-3.287-7.341-7.342l0,0
				c0-4.055,3.287-7.342,7.341-7.342h298.068C322.067,552.888,325.354,556.175,325.354,560.229L325.354,560.229z"/>
			<path style="fill:#F9F0DC;" d="M319.436,553.028c-0.057,4.008-3.317,7.239-7.336,7.239H14.032c-0.487,0-0.963-0.05-1.424-0.141
				c-0.001,0.035-0.005,0.067-0.005,0.102c0,4.055,3.287,7.342,7.341,7.342h298.068c4.055,0,7.342-3.287,7.342-7.342
				C325.354,556.662,322.81,553.692,319.436,553.028z"/>
		</g>
	</g>
	<g>
		<rect x="372.277" y="338.905" style="fill:#AA712B;" width="39" height="78.333"/>
		<path style="opacity:0.5;fill:#AA712B;" d="M372.277,393.718v19.613l1.517,3.907h10.324c7.343-4.042,18.151-10.03,27.159-15.181
			v-59.521c-9.363-0.063-28.745-0.192-39-0.258v8.293h32.661v7.334L372.277,393.718z"/>
		<path style="fill:#AA712B;" d="M536.234,415.686l-83.317-84.202l-77.571,84.255c-1.875,1.592-3.068,3.962-3.068,6.614v132.341
			c0,4.789,3.883,8.671,8.672,8.671H530.69c4.79,0,8.672-3.882,8.672-8.671V422.353
			C539.362,419.673,538.144,417.276,536.234,415.686z"/>
		<path style="opacity:0.5;fill:#AA712B;" d="M536.234,415.686l-83.317-84.202l-77.571,84.255c-1.875,1.592-3.068,3.962-3.068,6.614
			v21.929c1.738-0.539,3.359-1.533,4.67-2.979l78.872-87.079l78.872,87.079c1.311,1.447,2.933,2.441,4.671,2.979v-21.929
			C539.362,419.673,538.144,417.276,536.234,415.686z"/>
		<g>
			<path style="fill:none;stroke:#FEFEFC;stroke-width:4;stroke-linecap:round;stroke-linejoin:round;stroke-miterlimit:10;" d="
				M497.939,509.903c0,2.762,2.238,5,5,5h22.333c2.762,0,5-2.238,5-5v-48.667c0-2.762-2.238-5-5-5h-22.333c-2.762,0-5,2.238-5,5
				V509.903z"/>
			
				<line style="fill:none;stroke:#FEFEFC;stroke-width:4;stroke-linecap:round;stroke-linejoin:round;stroke-miterlimit:10;" x1="515.272" y1="456.238" x2="515.272" y2="514.238"/>
			
				<line style="fill:none;stroke:#FEFEFC;stroke-width:4;stroke-linecap:round;stroke-linejoin:round;stroke-miterlimit:10;" x1="529.606" y1="474.571" x2="498.272" y2="474.571"/>
			
				<line style="fill:none;stroke:#FEFEFC;stroke-width:4;stroke-linecap:round;stroke-linejoin:round;stroke-miterlimit:10;" x1="529.606" y1="498.571" x2="498.272" y2="498.571"/>
		</g>
		<path style="fill:#F9F0DC;" d="M381.31,443.569c0,2.623,2.127,4.75,4.75,4.75l0,0c2.624,0,4.75-2.127,4.75-4.75v-33.082
			c0-2.623-2.126-4.75-4.75-4.75l0,0c-2.623,0-4.75,2.127-4.75,4.75V443.569z"/>
		<path style="fill:#F9F0DC;" d="M427.977,381.902c0,2.623,2.127,4.75,4.75,4.75l0,0c2.624,0,4.75-2.127,4.75-4.75V348.82
			c0-2.623-2.126-4.75-4.75-4.75l0,0c-2.623,0-4.75,2.127-4.75,4.75V381.902z"/>
		<path style="fill:#F9F0DC;" d="M483.977,392.569c0,2.623,2.127,4.75,4.75,4.75l0,0c2.624,0,4.75-2.127,4.75-4.75v-33.082
			c0-2.623-2.126-4.75-4.75-4.75l0,0c-2.623,0-4.75,2.127-4.75,4.75V392.569z"/>
		<path style="fill:#F9F0DC;" d="M401.31,403.902c0,2.623,2.127,4.75,4.75,4.75l0,0c2.624,0,4.75-2.127,4.75-4.75v-23.666
			c0-2.623-2.126-4.75-4.75-4.75l0,0c-2.623,0-4.75,2.127-4.75,4.75V403.902z"/>
		<path style="fill:#F9F0DC;" d="M448.31,349.569c0,2.623,2.127,4.75,4.75,4.75l0,0c2.624,0,4.75-2.127,4.75-4.75v-23.666
			c0-2.623-2.126-4.75-4.75-4.75l0,0c-2.623,0-4.75,2.127-4.75,4.75V349.569z"/>
		<path style="fill:#F9F0DC;" d="M517.644,433.569c0,2.623,2.127,4.75,4.75,4.75l0,0c2.624,0,4.75-2.127,4.75-4.75v-23.666
			c0-2.623-2.126-4.75-4.75-4.75l0,0c-2.623,0-4.75,2.127-4.75,4.75V433.569z"/>
		<path style="fill:#F9F0DC;" d="M501.977,402.569c0,2.623,2.127,4.75,4.75,4.75l0,0c2.624,0,4.75-2.127,4.75-4.75v-23.666
			c0-2.623-2.126-4.75-4.75-4.75l0,0c-2.623,0-4.75,2.127-4.75,4.75V402.569z"/>
		<path style="fill:#7E4C13;" d="M486.604,553.904V442.237c0-16.384-13.282-29.666-29.667-29.666
			c-16.384,0-29.666,13.282-29.666,29.666v111.667H486.604z"/>
		<rect x="553.938" y="489.238" style="fill:#7E4C13;" width="7.333" height="66.666"/>
		<path style="fill:none;stroke:#FEFEFC;stroke-width:4;stroke-linecap:round;stroke-linejoin:round;stroke-miterlimit:10;" d="
			M486.604,553.904V442.237c0-16.384-13.282-29.666-29.667-29.666c-16.384,0-29.666,13.282-29.666,29.666v111.667H486.604z"/>
		<path style="fill:#FEFEFC;" d="M581.938,557.071c0,5.799-4.701,10.5-10.5,10.5h-207c-5.799,0-10.5-4.701-10.5-10.5l0,0
			c0-5.799,4.701-10.5,10.5-10.5h207C577.237,546.571,581.938,551.273,581.938,557.071L581.938,557.071z"/>
		<path style="fill:#F9F0DC;" d="M575.871,547.563c0.255,0.904,0.4,1.855,0.4,2.842c0,5.799-4.701,10.5-10.5,10.5h-207
			c-1.586,0-3.085-0.362-4.433-0.992c1.24,4.416,5.287,7.658,10.1,7.658h207c5.799,0,10.5-4.701,10.5-10.5
			C581.938,552.858,579.452,549.235,575.871,547.563z"/>
		<path style="fill:#FEFEFC;" d="M526.604,533.238c-9.242,0-17.498,4.188-23,10.761c-5.502-6.573-13.758-10.761-23-10.761
			c-9.242,0-17.498,4.188-23,10.761c-5.502-6.573-13.758-10.761-23-10.761s-17.498,4.188-23,10.761
			c-5.502-6.573-13.758-10.761-23-10.761c-11.239,0-21.029,6.185-26.168,15.333h46h6.336h39.664h6.336h39.664h6.336h46
			C547.634,539.423,537.844,533.238,526.604,533.238z"/>
		<circle style="fill:#FEFEFC;" cx="557.771" cy="476.404" r="29.625"/>
		<g>
			<defs>
				<circle id="SVGID_00000065753330967664493850000000588080417088517044_" cx="557.771" cy="476.404" r="25.833"/>
			</defs>
			<clipPath id="SVGID_00000075154140729021338690000010342968092604062141_">
				<use xlink:href="#SVGID_00000065753330967664493850000000588080417088517044_"  style="overflow:visible;"/>
			</clipPath>
			<g style="clip-path:url(#SVGID_00000075154140729021338690000010342968092604062141_);">
				<path style="fill:#CC3207;" d="M557.771,476.071c0,0-12.5-25-35.375-19c12.375-15.625,40.75-18.125,40.75-18.125
					S572.271,459.571,557.771,476.071z"/>
				<path style="fill:#CC3207;" d="M557.771,476.071c0,0-25,12.5-19,35.375c-15.625-12.375-18.125-40.75-18.125-40.75
					S541.271,461.571,557.771,476.071z"/>
				<path style="fill:#CC3207;" d="M557.771,476.071c0,0,12.5,25,35.375,19c-12.375,15.625-40.75,18.125-40.75,18.125
					S543.271,492.571,557.771,476.071z"/>
				<path style="fill:#CC3207;" d="M557.771,476.071c0,0,25-12.5,19-35.375c15.625,12.375,18.125,40.75,18.125,40.75
					S574.271,490.571,557.771,476.071z"/>
			</g>
		</g>
		<path style="opacity:0.5;fill:#E2D5BA;" d="M572.068,450.455c4.213,4.597,6.786,10.722,6.786,17.449
			c0,14.268-11.565,25.833-25.833,25.833c-11.808,0-21.757-7.924-24.84-18.741c-0.021,0.467-0.035,0.936-0.035,1.408
			c0,16.362,13.263,29.625,29.625,29.625s29.625-13.263,29.625-29.625C587.396,465.228,581.206,455.501,572.068,450.455z"/>
		<path style="fill:#FEFEFC;" d="M550.271,415.525l-86.577-95.587c-1.994-2.2-4.706-3.354-7.456-3.441
			c-0.105-0.006-0.209,0.001-0.314,0c-0.176-0.001-0.353-0.008-0.529,0c-2.747,0.09-5.457,1.244-7.447,3.441l-86.578,95.587
			c-3.896,4.302-3.568,10.948,0.734,14.844c2.011,1.823,4.535,2.721,7.051,2.721c2.865,0,5.719-1.164,7.793-3.454l78.872-87.079
			l78.872,87.079c2.075,2.291,4.929,3.454,7.793,3.454c2.516,0,5.041-0.898,7.053-2.721
			C553.838,426.474,554.168,419.827,550.271,415.525z"/>
		<path style="fill:#F9F0DC;" d="M549.537,420.048c-2.012,1.822-4.537,2.721-7.053,2.721c-2.864,0-5.718-1.164-7.793-3.455
			l-78.872-87.078l-78.872,87.078c-2.074,2.291-4.928,3.455-7.793,3.455c-2.516,0-5.04-0.898-7.051-2.721
			c-0.859-0.779-1.554-1.67-2.094-2.628c-2.365,4.184-1.618,9.588,2.094,12.949c2.011,1.823,4.535,2.721,7.051,2.721
			c2.865,0,5.719-1.164,7.793-3.454l78.872-87.079l78.872,87.079c2.075,2.291,4.929,3.454,7.793,3.454
			c2.516,0,5.041-0.898,7.053-2.721c3.711-3.361,4.457-8.766,2.092-12.949C551.09,418.378,550.396,419.269,549.537,420.048z"/>
		<g>
			<path style="fill:#CC3207;" d="M420.271,541.212c0,4.996-4.051,9.047-9.048,9.047c-4.997,0-9.048-4.051-9.048-9.047
				c0-4.997,4.051-9.048,9.048-9.048C416.221,532.164,420.271,536.215,420.271,541.212z"/>
			<path style="fill:#FEFEFC;" d="M413.006,537.374c0,2.27-1.841,4.111-4.112,4.111c-2.271,0-4.112-1.841-4.112-4.111
				c0-2.272,1.841-4.113,4.112-4.113C411.165,533.261,413.006,535.102,413.006,537.374z"/>
		</g>
		<g>
			<path style="fill:#CC3207;" d="M466.271,541.212c0,4.996-4.051,9.047-9.048,9.047c-4.997,0-9.048-4.051-9.048-9.047
				c0-4.997,4.051-9.048,9.048-9.048C462.221,532.164,466.271,536.215,466.271,541.212z"/>
			<path style="fill:#FEFEFC;" d="M459.006,537.374c0,2.27-1.841,4.111-4.112,4.111c-2.271,0-4.112-1.841-4.112-4.111
				c0-2.272,1.841-4.113,4.112-4.113C457.165,533.261,459.006,535.102,459.006,537.374z"/>
		</g>
		<g>
			<path style="fill:#CC3207;" d="M512.271,541.212c0,4.996-4.051,9.047-9.048,9.047c-4.997,0-9.048-4.051-9.048-9.047
				c0-4.997,4.051-9.048,9.048-9.048C508.221,532.164,512.271,536.215,512.271,541.212z"/>
			<path style="fill:#FEFEFC;" d="M505.006,537.374c0,2.27-1.841,4.111-4.112,4.111c-2.271,0-4.112-1.841-4.112-4.111
				c0-2.272,1.841-4.113,4.112-4.113C503.165,533.261,505.006,535.102,505.006,537.374z"/>
		</g>
		<g>
			<path style="fill:#CC3207;" d="M562.938,541.212c0,4.996-4.051,9.047-9.048,9.047c-4.997,0-9.048-4.051-9.048-9.047
				c0-4.997,4.051-9.048,9.048-9.048C558.887,532.164,562.938,536.215,562.938,541.212z"/>
			<path style="fill:#FEFEFC;" d="M555.672,537.374c0,2.27-1.841,4.111-4.112,4.111c-2.271,0-4.112-1.841-4.112-4.111
				c0-2.272,1.841-4.113,4.112-4.113C553.831,533.261,555.672,535.102,555.672,537.374z"/>
		</g>
		<g>
			<path style="fill:#CC3207;" d="M374.271,541.212c0,4.996-4.051,9.047-9.048,9.047c-4.997,0-9.048-4.051-9.048-9.047
				c0-4.997,4.051-9.048,9.048-9.048C370.221,532.164,374.271,536.215,374.271,541.212z"/>
			<path style="fill:#FEFEFC;" d="M367.006,537.374c0,2.27-1.841,4.111-4.112,4.111c-2.271,0-4.112-1.841-4.112-4.111
				c0-2.272,1.841-4.113,4.112-4.113C365.165,533.261,367.006,535.102,367.006,537.374z"/>
		</g>
		<path style="fill:#FEFEFC;" d="M454.016,497.321v-47.595c0-2.853-2.311-5.164-5.163-5.164c-2.852,0-5.164,2.311-5.164,5.164
			v47.595H454.016z"/>
		<path style="fill:#FEFEFC;" d="M469.266,497.321v-47.595c0-2.853-2.311-5.164-5.163-5.164c-2.852,0-5.164,2.311-5.164,5.164
			v47.595H469.266z"/>
		<path style="fill:#FEFEFC;" d="M440.271,437.571h32c0,0-4.333-14-16.333-14S440.271,437.571,440.271,437.571z"/>
		<circle style="fill:#AA712B;" cx="435.855" cy="481.238" r="4.083"/>
		<circle style="fill:#7E4C13;" cx="385.604" cy="389.573" r="3"/>
		<circle style="fill:#7E4C13;" cx="444.271" cy="342.907" r="3"/>
		<circle style="fill:#7E4C13;" cx="495.938" cy="362.573" r="3"/>
		<circle style="fill:#7E4C13;" cx="535.271" cy="417.906" r="3"/>
		<circle style="fill:#AA712B;" cx="410.938" cy="378.907" r="3"/>
		<circle style="fill:#AA712B;" cx="456.731" cy="323.244" r="3"/>
		<circle style="fill:#AA712B;" cx="501.064" cy="383.91" r="3"/>
		<circle style="fill:#CC3207;" cx="421.27" cy="349.907" r="3"/>
		<circle style="fill:#CC3207;" cx="475.938" cy="353.241" r="3"/>
		<circle style="fill:#CC3207;" cx="521.938" cy="392.908" r="3"/>
		<circle style="fill:#CC3207;" cx="374.27" cy="417.907" r="3"/>
		<path style="fill:#FEFEFC;" d="M418.938,338.738c0,3.774-3.06,6.834-6.833,6.834h-41c-3.774,0-6.834-3.06-6.834-6.834l0,0
			c0-3.773,3.06-6.833,6.834-6.833h41C415.879,331.905,418.938,334.965,418.938,338.738L418.938,338.738z"/>
		<path style="fill:#F9F0DC;" d="M414.871,332.493c0.039,0.299,0.067,0.602,0.067,0.912c0,3.774-3.06,6.834-6.833,6.834h-41
			c-0.985,0-1.92-0.213-2.766-0.588c0.447,3.342,3.302,5.921,6.766,5.921h41c3.773,0,6.833-3.06,6.833-6.834
			C418.938,335.95,417.266,333.556,414.871,332.493z"/>
		<g>
			<path style="fill:none;stroke:#FEFEFC;stroke-width:4;stroke-linecap:round;stroke-linejoin:round;stroke-miterlimit:10;" d="
				M414.271,509.903c0,2.762-2.238,5-5,5h-22.333c-2.762,0-5-2.238-5-5v-48.667c0-2.762,2.238-5,5-5h22.333c2.762,0,5,2.238,5,5
				V509.903z"/>
			
				<line style="fill:none;stroke:#FEFEFC;stroke-width:4;stroke-linecap:round;stroke-linejoin:round;stroke-miterlimit:10;" x1="396.938" y1="456.238" x2="396.938" y2="514.238"/>
			
				<line style="fill:none;stroke:#FEFEFC;stroke-width:4;stroke-linecap:round;stroke-linejoin:round;stroke-miterlimit:10;" x1="382.604" y1="474.571" x2="413.938" y2="474.571"/>
			
				<line style="fill:none;stroke:#FEFEFC;stroke-width:4;stroke-linecap:round;stroke-linejoin:round;stroke-miterlimit:10;" x1="382.604" y1="498.571" x2="413.938" y2="498.571"/>
		</g>
		<path style="fill:#CC3207;" d="M454.813,397.904c0,0-3.917-14.333-16.417-14.333c0,15.25,0,26.5,0,26.5
			S451.23,410.737,454.813,397.904z"/>
		<path style="fill:#CC3207;" d="M457.897,397.904c0,0,3.917-14.333,16.417-14.333c0,15.25,0,26.5,0,26.5
			S461.48,410.737,457.897,397.904z"/>
		<circle style="fill:#CC3207;" cx="456.355" cy="397.821" r="5.25"/>
		<circle style="fill:#FEFEFC;" cx="455.396" cy="396.446" r="2.895"/>
		<g>
			<path style="fill:#FEFEFC;" d="M450.575,396.091c-0.253,0.716-1.908,0.784-3.699,0.152c-1.79-0.632-3.036-1.725-2.783-2.441
				c0.253-0.716,1.908-0.784,3.699-0.152C449.582,394.281,450.828,395.374,450.575,396.091z"/>
			<path style="fill:#FEFEFC;" d="M450.752,398.755c0.267,0.429-0.386,1.317-1.458,1.986c-1.072,0.667-2.159,0.86-2.427,0.431
				c-0.266-0.429,0.387-1.317,1.459-1.985C449.398,398.519,450.484,398.325,450.752,398.755z"/>
		</g>
		<g>
			<path style="fill:#FEFEFC;" d="M461.796,396.091c0.253,0.716,1.908,0.784,3.699,0.152c1.79-0.632,3.036-1.725,2.783-2.441
				c-0.253-0.716-1.908-0.784-3.699-0.152C462.789,394.281,461.543,395.374,461.796,396.091z"/>
			<path style="fill:#FEFEFC;" d="M461.619,398.755c-0.267,0.429,0.386,1.317,1.458,1.986c1.072,0.667,2.159,0.86,2.427,0.431
				c0.266-0.429-0.387-1.317-1.459-1.985C462.973,398.519,461.887,398.325,461.619,398.755z"/>
		</g>
		<g>
			<circle style="fill:#FEFEFC;" cx="380.021" cy="523.821" r="2"/>
			<circle style="fill:#FEFEFC;" cx="387.521" cy="523.821" r="2"/>
			<circle style="fill:#FEFEFC;" cx="395.021" cy="523.821" r="2"/>
			<circle style="fill:#FEFEFC;" cx="402.521" cy="523.821" r="2"/>
			<circle style="fill:#FEFEFC;" cx="410.021" cy="523.821" r="2"/>
			<circle style="fill:#FEFEFC;" cx="417.521" cy="523.821" r="2"/>
		</g>
		<g>
			<circle style="fill:#FEFEFC;" cx="495.021" cy="523.821" r="2"/>
			<circle style="fill:#FEFEFC;" cx="502.521" cy="523.821" r="2"/>
			<circle style="fill:#FEFEFC;" cx="510.021" cy="523.821" r="2"/>
			<circle style="fill:#FEFEFC;" cx="517.521" cy="523.821" r="2"/>
			<circle style="fill:#FEFEFC;" cx="525.021" cy="523.821" r="2"/>
			<circle style="fill:#FEFEFC;" cx="532.521" cy="523.821" r="2"/>
		</g>
		<g>
			<path style="fill:none;stroke:#FEFEFC;stroke-width:4;stroke-linecap:round;stroke-linejoin:round;stroke-miterlimit:10;" d="
				M403.771,447.321c14.5-3,20.25-24.25,8.5-27.75s-13.75,14.75-4.25,12.5"/>
			
				<circle style="fill:none;stroke:#FEFEFC;stroke-width:4;stroke-linecap:round;stroke-linejoin:round;stroke-miterlimit:10;" cx="425.146" cy="411.696" r="6.125"/>
		</g>
		<g>
			<path style="fill:none;stroke:#FEFEFC;stroke-width:4;stroke-linecap:round;stroke-linejoin:round;stroke-miterlimit:10;" d="
				M510.131,447.321c-14.5-3-20.25-24.25-8.5-27.75c11.75-3.5,13.75,14.75,4.25,12.5"/>
			
				<circle style="fill:none;stroke:#FEFEFC;stroke-width:4;stroke-linecap:round;stroke-linejoin:round;stroke-miterlimit:10;" cx="488.756" cy="411.696" r="6.125"/>
		</g>
	</g>
</g>
</svg>
