<svg width="499" height="546" viewBox="0 0 499 546" fill="none" xmlns="http://www.w3.org/2000/svg">
<path d="M249.883 1.62991C246.819 -0.635089 241.906 -0.0500698 239.909 3.89993C238.641 6.40693 239.206 10.0619 239.206 12.7669C239.206 13.6799 239.206 14.5949 239.206 15.5089C235.024 11.4509 230.85 7.36392 226.459 3.56692C223.496 1.00192 218.724 1.88492 217.641 5.94992C217.006 8.32792 218.266 10.2529 219.894 11.7869C223.461 15.1519 227.027 18.5149 230.594 21.8799C233.464 24.5869 236.336 27.2949 239.206 30.0029C239.206 32.9559 239.206 35.9099 239.206 38.8629C230.944 30.4999 222.683 22.1359 214.419 13.7729C214.071 13.4199 213.736 13.0399 213.367 12.7059C210.609 10.2229 205.875 10.9409 204.695 14.7479C203.677 18.0299 205.84 20.0249 207.877 22.0879C213.742 28.0209 219.605 33.9559 225.469 39.8909C230.049 44.5259 234.627 49.1589 239.206 53.7939C239.206 54.5339 239.206 55.2759 239.206 56.0169C228.294 47.0039 217.384 37.9889 206.473 28.9749C204.951 27.7169 203.458 26.4069 201.898 25.1949C196.325 20.8629 189.896 28.5569 195.153 33.2099C201.041 38.4229 207.315 43.2579 213.376 48.2669C217.508 51.6819 221.639 55.0949 225.771 58.5099C214.691 58.4069 203.609 58.3049 192.528 58.2029C191.675 58.1949 190.786 58.1449 189.953 58.3729C186.443 59.3379 185.018 63.6579 187.143 66.5449C188.948 68.9949 191.8 68.7019 194.467 68.7269C202.728 68.8019 210.988 68.8789 219.25 68.9539C225.71 69.0139 232.168 69.0739 238.628 69.1319C238.821 69.2919 239.013 69.4499 239.206 69.6099C239.206 76.9119 239.206 84.2129 239.206 91.5129C232.604 85.2379 226.026 78.9329 219.314 72.7809C218.586 72.1139 217.887 71.4809 216.934 71.1209C214.197 70.0879 210.956 71.5559 210.092 74.4109C209.2 77.3629 210.9 79.2809 212.825 81.0959C217.753 85.7429 222.68 90.3889 227.607 95.0359C231.474 98.6809 235.34 102.326 239.205 105.973C239.205 111.838 239.205 117.703 239.205 123.568C227.235 111.451 215.265 99.3359 203.295 87.2199C202.56 86.4749 201.85 85.6819 201.078 84.9749C198.582 82.6979 194.473 82.6579 192.646 85.8769C190.391 89.8499 193.883 92.6489 196.354 95.1489C204.314 103.204 212.274 111.261 220.234 119.316C226.557 125.714 232.881 132.114 239.204 138.514C239.204 141.174 239.204 143.836 239.204 146.497C223.349 133.397 207.494 120.299 191.639 107.199C189.534 105.461 187.474 103.639 185.311 101.971C183.579 100.636 181.506 100.101 179.449 101.101C176.891 102.344 175.749 105.523 177.016 108.091C177.584 109.243 178.469 109.913 179.419 110.698C188.266 118.006 197.112 125.313 205.959 132.621C212.191 137.769 218.422 142.916 224.654 148.064C213.014 147.957 201.374 147.849 189.734 147.742C188.846 147.734 187.959 147.725 187.071 147.717C187.049 147.52 187.018 147.322 186.968 147.12C186.418 144.88 184.303 143.168 181.991 143.125C179.238 143.073 177.871 144.757 176.953 146.813C174.711 146.58 172.571 146.921 171.24 149.333C170.122 151.356 170.547 154.045 172.21 155.64C172.36 155.785 172.517 155.912 172.675 156.028C172.238 156.801 171.802 157.573 171.365 158.346C165.638 168.481 159.911 178.614 154.185 188.749C152.843 180.777 151.5 172.807 150.158 164.836C148.251 153.521 146.346 142.206 144.441 130.891C144.236 129.676 144.098 128.574 143.384 127.506C141.794 125.126 138.471 124.524 136.114 126.118C134.219 127.4 133.647 129.463 133.937 131.631C134.3 134.338 134.847 137.033 135.3 139.724C138.717 160.006 142.133 180.286 145.55 200.566C143.245 199.236 140.942 197.904 138.637 196.574C136.257 187.897 133.877 179.222 131.497 170.546C128.5 159.624 125.503 148.704 122.508 137.783C121.576 134.393 120.9 129.97 116.331 129.936C112.631 129.908 110.611 133.486 111.334 136.786C111.559 137.809 111.892 138.819 112.169 139.828C116.677 156.253 121.186 172.678 125.694 189.103C120.614 186.17 115.534 183.238 110.456 180.305C109.231 175.135 108.008 169.963 106.783 164.793C105.223 158.203 103.663 151.611 102.103 145.021C101.493 142.446 100.683 140.014 97.68 139.311C94.776 138.631 91.883 140.704 91.41 143.591C91.245 144.596 91.443 145.518 91.658 146.483C93.63 155.371 95.801 164.221 97.935 173.075C91.612 169.425 85.288 165.775 78.965 162.123C78.923 161.876 78.882 161.63 78.84 161.383C82.018 155.76 85.197 150.136 88.375 144.513C92.44 137.32 96.505 130.128 100.57 122.935C101.882 120.613 103.562 118.292 102.342 115.503C100.905 112.22 96.452 111.293 93.862 113.85C93.247 114.458 92.845 115.253 92.425 115.995C86.973 125.643 81.522 135.292 76.068 144.938C75.178 139.653 74.288 134.368 73.397 129.081C72.09 121.328 71.038 113.478 69.468 105.773C68.066 98.8929 58.19 100.613 59.155 107.605C59.425 109.563 59.814 111.51 60.142 113.458C62.492 127.415 64.842 141.371 67.194 155.326C66.552 154.956 65.909 154.584 65.267 154.214C63.544 147.932 61.819 141.649 60.095 135.367C57.888 127.32 55.68 119.275 53.472 111.229C52.705 108.434 52.059 105.564 48.707 104.804C44.82 103.924 41.832 107.662 42.604 111.294C42.707 111.779 42.869 112.259 43.001 112.737C46.113 124.074 49.224 135.41 52.338 146.749C49.78 145.272 47.221 143.796 44.665 142.319C43.755 138.479 42.845 134.639 41.935 130.799C40.805 126.027 39.675 121.256 38.545 116.486C38.03 114.309 36.995 112.256 34.617 111.616C30.555 110.521 27.404 114.213 28.144 118.061C29.237 123.761 30.689 129.421 32.112 135.071C31.32 134.614 30.53 134.158 29.739 133.701C27.396 132.348 24.512 130.029 21.707 129.874C17.289 129.631 14.325 133.592 14.755 137.377C11.262 138.897 9.31297 143.444 11.733 147.149C13.27 149.501 16.72 150.839 19.061 152.192C19.853 152.649 20.644 153.105 21.436 153.562C15.829 155.155 10.203 156.727 4.71899 158.63C1.01599 159.915 -0.60398 164.488 2.37402 167.458C4.11702 169.198 6.41403 169.068 8.55603 168.426C13.253 167.019 17.949 165.613 22.648 164.206C26.428 163.073 30.208 161.941 33.988 160.808C36.546 162.285 39.103 163.761 41.661 165.238C30.288 168.211 18.913 171.185 7.539 174.16C7.059 174.285 6.56199 174.385 6.08899 174.538C2.55899 175.685 0.815969 180.143 3.52197 183.068C5.85397 185.59 8.66399 184.715 11.469 183.981C19.541 181.871 27.612 179.759 35.684 177.649C41.986 176.001 48.289 174.352 54.591 172.704C55.234 173.074 55.876 173.446 56.518 173.816C43.256 178.759 29.995 183.701 16.733 188.643C14.883 189.333 13.001 189.971 11.171 190.716C4.63302 193.376 8.08102 202.789 14.741 200.564C22.199 198.071 29.523 195.056 36.891 192.311C41.915 190.439 46.938 188.568 51.959 186.698C46.331 196.243 40.701 205.788 35.072 215.335C34.639 216.07 34.15 216.815 33.932 217.65C33.012 221.173 36.042 224.567 39.604 224.168C42.629 223.83 43.799 221.215 45.154 218.918C49.351 211.801 53.548 204.685 57.744 197.568C61.024 192.003 64.306 186.44 67.586 180.875C67.821 180.788 68.056 180.7 68.289 180.613C74.612 184.263 80.936 187.915 87.259 191.565C78.524 194.145 69.776 196.69 61.091 199.425C60.149 199.723 59.251 200.012 58.465 200.657C56.2 202.51 55.851 206.054 57.891 208.227C60.003 210.477 62.515 209.962 65.049 209.204C71.536 207.259 78.024 205.316 84.511 203.371C89.601 201.846 94.691 200.321 99.781 198.796C104.861 201.728 109.941 204.661 115.019 207.594C98.541 211.902 82.062 216.211 65.584 220.519C64.572 220.782 63.531 220.999 62.532 221.316C59.312 222.339 57.224 225.878 59.097 229.069C61.41 233.007 65.58 231.382 68.982 230.492C79.937 227.627 90.894 224.76 101.85 221.895C110.553 219.618 119.257 217.342 127.96 215.065C130.265 216.395 132.57 217.727 134.875 219.057C115.603 226.239 96.332 233.419 77.06 240.6C74.5 241.553 71.893 242.428 69.368 243.467C67.345 244.299 65.845 245.827 65.681 248.109C65.479 250.946 67.661 253.524 70.519 253.711C71.801 253.794 72.822 253.364 73.977 252.933C84.729 248.926 95.482 244.918 106.234 240.911C113.807 238.088 121.382 235.266 128.956 232.443C123.043 242.47 117.13 252.496 111.218 262.523C110.766 263.288 110.316 264.051 109.865 264.816C109.683 264.736 109.495 264.666 109.297 264.608C107.082 263.965 104.542 264.94 103.348 266.921C101.926 269.279 102.701 271.303 104.023 273.128C102.701 274.953 101.926 276.976 103.348 279.336C104.541 281.316 107.081 282.291 109.297 281.649C109.495 281.591 109.683 281.519 109.865 281.439C110.317 282.204 110.767 282.969 111.218 283.734C117.13 293.761 123.043 303.787 128.956 313.814C121.383 310.991 113.808 308.167 106.234 305.344C95.482 301.337 84.729 297.331 73.977 293.322C72.822 292.892 71.8 292.46 70.519 292.545C67.661 292.732 65.479 295.308 65.681 298.147C65.844 300.429 67.344 301.955 69.368 302.787C71.893 303.827 74.5 304.7 77.06 305.654C96.332 312.836 115.603 320.017 134.875 327.199C132.57 328.529 130.265 329.859 127.96 331.191C119.257 328.914 110.553 326.638 101.85 324.361C90.893 321.494 79.937 318.629 68.982 315.763C65.581 314.873 61.41 313.248 59.097 317.188C57.223 320.38 59.312 323.918 62.532 324.94C63.53 325.257 64.572 325.473 65.584 325.738C82.062 330.046 98.541 334.355 115.019 338.663C109.941 341.595 104.861 344.528 99.781 347.461C94.691 345.934 89.601 344.409 84.511 342.884C78.024 340.941 71.536 338.996 65.049 337.052C62.514 336.292 60.002 335.779 57.891 338.027C55.851 340.202 56.199 343.744 58.465 345.599C59.251 346.244 60.15 346.532 61.091 346.829C69.776 349.566 78.524 352.111 87.259 354.689C80.936 358.341 74.612 361.991 68.289 365.641C68.056 365.554 67.821 365.468 67.586 365.379C64.306 359.816 61.024 354.251 57.744 348.687C53.548 341.57 49.351 334.454 45.154 327.337C43.799 325.039 42.629 322.424 39.604 322.085C36.042 321.687 33.012 325.082 33.932 328.603C34.15 329.44 34.639 330.185 35.072 330.92C40.7 340.465 46.331 350.012 51.959 359.557C46.937 357.685 41.914 355.814 36.891 353.942C29.523 351.197 22.199 348.182 14.741 345.69C8.08102 343.463 4.63302 352.878 11.171 355.538C13.001 356.281 14.883 356.92 16.733 357.61C29.995 362.553 43.256 367.495 56.518 372.437C55.876 372.809 55.235 373.179 54.591 373.55C48.289 371.902 41.986 370.253 35.684 368.605C27.612 366.493 19.541 364.383 11.469 362.272C8.66399 361.539 5.85397 360.664 3.52197 363.185C0.814969 366.112 2.55899 370.57 6.08899 371.717C6.56199 371.87 7.059 371.97 7.539 372.095C18.912 375.068 30.287 378.042 41.661 381.015C39.103 382.492 36.546 383.968 33.988 385.445C30.208 384.313 26.428 383.18 22.648 382.049C17.949 380.642 13.253 379.236 8.55603 377.829C6.41503 377.187 4.11802 377.057 2.37402 378.796C-0.60398 381.768 1.01599 386.341 4.71899 387.626C10.202 389.528 15.829 391.101 21.436 392.693C20.644 393.151 19.853 393.608 19.061 394.065C16.719 395.417 13.269 396.755 11.733 399.107C9.31297 402.812 11.261 407.359 14.755 408.879C14.325 412.664 17.288 416.626 21.707 416.382C24.512 416.227 27.395 413.909 29.739 412.557C30.531 412.1 31.321 411.642 32.112 411.185C30.689 416.837 29.237 422.495 28.144 428.195C27.404 432.045 30.556 435.735 34.617 434.642C36.995 434 38.03 431.947 38.545 429.772C39.675 425 40.805 420.23 41.935 415.459C42.845 411.619 43.755 407.779 44.665 403.939C47.221 402.462 49.78 400.986 52.338 399.509C49.225 410.846 46.113 422.182 43.001 433.519C42.869 433.997 42.708 434.477 42.604 434.964C41.832 438.594 44.821 442.334 48.707 441.452C52.059 440.694 52.705 437.822 53.472 435.027C55.68 426.982 57.889 418.935 60.095 410.89C61.818 404.607 63.543 398.325 65.267 392.043C65.909 391.671 66.552 391.301 67.194 390.93C64.842 404.887 62.492 418.843 60.142 432.798C59.814 434.746 59.425 436.695 59.155 438.651C58.19 445.643 68.067 447.364 69.468 440.484C71.038 432.777 72.09 424.927 73.397 417.174C74.288 411.889 75.178 406.602 76.068 401.317C81.521 410.965 86.973 420.612 92.425 430.26C92.845 431.003 93.247 431.798 93.862 432.405C96.452 434.963 100.905 434.037 102.342 430.753C103.562 427.963 101.882 425.641 100.57 423.32C96.505 416.128 92.44 408.935 88.375 401.743C85.197 396.12 82.018 390.496 78.84 384.871C78.882 384.624 78.923 384.378 78.965 384.131C85.288 380.481 91.612 376.829 97.935 373.179C95.802 382.034 93.63 390.882 91.658 399.771C91.443 400.736 91.245 401.658 91.41 402.663C91.883 405.551 94.777 407.625 97.68 406.944C100.683 406.239 101.493 403.807 102.103 401.232C103.663 394.642 105.223 388.052 106.783 381.462C108.008 376.29 109.231 371.12 110.456 365.95C115.534 363.017 120.614 360.083 125.694 357.152C121.186 373.575 116.677 390 112.169 406.425C111.892 407.435 111.559 408.445 111.334 409.467C110.611 412.767 112.631 416.345 116.331 416.319C120.899 416.286 121.576 411.862 122.508 408.471C125.503 397.551 128.5 386.629 131.497 375.708C133.877 367.033 136.257 358.356 138.637 349.68C140.942 348.35 143.245 347.02 145.55 345.688C142.133 365.97 138.717 386.25 135.3 406.53C134.847 409.223 134.3 411.918 133.937 414.625C133.647 416.793 134.219 418.855 136.114 420.137C138.47 421.732 141.794 421.13 143.384 418.749C144.098 417.682 144.236 416.581 144.441 415.364C146.346 404.049 148.251 392.734 150.158 381.419C151.5 373.449 152.843 365.477 154.185 357.507C159.912 367.64 165.638 377.775 171.365 387.909C171.801 388.682 172.238 389.456 172.675 390.227C172.517 390.345 172.36 390.472 172.21 390.615C170.547 392.212 170.122 394.898 171.24 396.923C172.572 399.333 174.712 399.675 176.953 399.443C177.871 401.5 179.238 403.181 181.991 403.13C184.303 403.087 186.418 401.375 186.968 399.135C187.018 398.935 187.05 398.735 187.071 398.538C187.959 398.531 188.846 398.523 189.734 398.515C201.374 398.407 213.014 398.3 224.654 398.192C218.422 403.34 212.191 408.489 205.959 413.635C197.112 420.943 188.266 428.252 179.419 435.558C178.469 436.343 177.584 437.013 177.016 438.166C175.749 440.733 176.891 443.913 179.449 445.156C181.506 446.156 183.579 445.619 185.311 444.284C187.474 442.616 189.534 440.796 191.639 439.056C207.494 425.958 223.349 412.858 239.204 399.759C239.204 402.421 239.204 405.081 239.204 407.742C232.881 414.14 226.557 420.54 220.234 426.94C212.274 434.995 204.314 443.05 196.354 451.105C193.882 453.607 190.391 456.405 192.646 460.377C194.473 463.597 198.581 463.557 201.078 461.279C201.85 460.574 202.56 459.779 203.295 459.036C215.265 446.919 227.235 434.803 239.205 422.686C239.205 428.551 239.205 434.418 239.205 440.283C235.34 443.928 231.473 447.573 227.607 451.22C222.68 455.865 217.754 460.512 212.825 465.158C210.9 466.973 209.2 468.891 210.092 471.845C210.955 474.698 214.197 476.168 216.934 475.135C217.887 474.775 218.586 474.142 219.314 473.473C226.026 467.321 232.604 461.016 239.206 454.741C239.206 462.043 239.206 469.344 239.206 476.644C239.013 476.804 238.821 476.964 238.628 477.122C232.168 477.182 225.71 477.242 219.25 477.3C210.988 477.377 202.728 477.452 194.467 477.528C191.8 477.551 188.948 477.258 187.143 479.71C185.018 482.595 186.443 486.915 189.953 487.88C190.786 488.108 191.675 488.058 192.528 488.052C203.61 487.949 214.691 487.847 225.771 487.745C221.639 491.158 217.508 494.573 213.376 497.987C207.314 502.995 201.041 507.83 195.153 513.044C189.896 517.699 196.325 525.392 201.898 521.059C203.458 519.847 204.951 518.537 206.473 517.279C217.385 508.266 228.295 499.252 239.206 490.237C239.206 490.979 239.206 491.72 239.206 492.462C234.628 497.095 230.05 501.73 225.469 506.364C219.606 512.299 213.742 518.234 207.877 524.169C205.84 526.231 203.677 528.227 204.695 531.509C205.875 535.314 210.608 536.034 213.367 533.549C213.735 533.217 214.07 532.837 214.419 532.484C222.683 524.121 230.944 515.757 239.206 507.394C239.206 510.347 239.206 513.301 239.206 516.254C236.336 518.961 233.464 521.669 230.594 524.377C227.027 527.74 223.461 531.105 219.894 534.469C218.266 536.004 217.006 537.927 217.641 540.307C218.724 544.372 223.496 545.255 226.459 542.69C230.849 538.892 235.024 534.805 239.206 530.747C239.206 531.662 239.206 532.575 239.206 533.489C239.206 536.194 238.641 539.851 239.909 542.357C241.906 546.305 246.819 546.89 249.883 544.625C252.944 546.89 257.858 546.305 259.856 542.357C261.124 539.85 260.558 536.194 260.558 533.489C260.558 532.576 260.558 531.662 260.558 530.747C264.741 534.805 268.917 538.892 273.305 542.69C276.27 545.255 281.042 544.372 282.125 540.307C282.758 537.927 281.498 536.004 279.872 534.469C276.305 531.106 272.739 527.741 269.172 524.377C266.301 521.669 263.43 518.96 260.559 516.254C260.559 513.301 260.559 510.347 260.559 507.394C268.822 515.757 277.084 524.121 285.346 532.484C285.694 532.837 286.029 533.217 286.399 533.549C289.157 536.034 293.889 535.314 295.069 531.509C296.087 528.227 293.926 526.231 291.887 524.169C286.024 518.234 280.159 512.299 274.295 506.364C269.717 501.731 265.138 497.096 260.558 492.462C260.558 491.72 260.558 490.979 260.558 490.237C271.47 499.252 282.381 508.265 293.291 517.279C294.814 518.537 296.308 519.847 297.868 521.059C303.44 525.392 309.868 517.699 304.611 513.044C298.723 507.831 292.451 502.996 286.389 497.987C282.256 494.574 278.124 491.159 273.992 487.745C285.074 487.847 296.154 487.948 307.235 488.052C308.088 488.059 308.978 488.109 309.812 487.88C313.322 486.915 314.747 482.595 312.62 479.71C310.815 477.258 307.965 477.552 305.297 477.528C297.037 477.451 288.775 477.376 280.514 477.3C274.056 477.242 267.596 477.182 261.137 477.122C260.944 476.964 260.75 476.804 260.557 476.644C260.557 469.344 260.557 462.042 260.557 454.741C267.159 461.016 273.737 467.321 280.449 473.473C281.177 474.141 281.877 474.775 282.829 475.135C285.566 476.168 288.809 474.698 289.671 471.845C290.564 468.892 288.863 466.973 286.938 465.158C282.011 460.511 277.083 455.865 272.156 451.22C268.289 447.573 264.424 443.928 260.558 440.283C260.558 434.418 260.558 428.551 260.558 422.686C272.528 434.803 284.5 446.919 296.47 459.036C297.205 459.779 297.913 460.574 298.687 461.279C301.182 463.557 305.29 463.597 307.119 460.377C309.374 456.405 305.881 453.607 303.411 451.105C295.451 443.05 287.491 434.995 279.531 426.94C273.208 420.54 266.883 414.14 260.559 407.742C260.559 405.08 260.559 402.42 260.559 399.759C276.414 412.857 292.269 425.957 308.124 439.056C310.231 440.796 312.291 442.616 314.452 444.284C316.185 445.619 318.257 446.156 320.315 445.156C322.873 443.913 324.013 440.733 322.747 438.166C322.179 437.013 321.295 436.343 320.344 435.558C311.497 428.251 302.652 420.943 293.806 413.635C287.574 408.488 281.343 403.34 275.111 398.192C286.751 398.3 298.389 398.407 310.029 398.515C310.918 398.523 311.806 398.532 312.692 398.538C312.714 398.735 312.745 398.935 312.795 399.135C313.345 401.375 315.46 403.087 317.772 403.13C320.527 403.182 321.892 401.5 322.812 399.443C325.052 399.675 327.192 399.333 328.525 396.923C329.643 394.898 329.217 392.211 327.553 390.615C327.403 390.472 327.248 390.345 327.088 390.227C327.525 389.455 327.961 388.682 328.398 387.909C334.125 377.776 339.851 367.641 345.578 357.507C346.921 365.477 348.263 373.449 349.606 381.419C351.511 392.734 353.416 404.049 355.323 415.364C355.526 416.581 355.665 417.682 356.378 418.749C357.97 421.131 361.293 421.732 363.648 420.137C365.543 418.855 366.117 416.794 365.825 414.625C365.462 411.918 364.915 409.223 364.462 406.53C361.045 386.25 357.629 365.97 354.212 345.688C356.517 347.02 358.822 348.35 361.125 349.68C363.505 358.357 365.887 367.033 368.267 375.708C371.262 386.63 374.258 397.551 377.255 408.471C378.185 411.863 378.862 416.286 383.43 416.319C387.132 416.346 389.152 412.767 388.427 409.467C388.202 408.445 387.869 407.435 387.592 406.425C383.084 390 378.575 373.575 374.067 357.152C379.147 360.084 384.227 363.017 389.307 365.95C390.53 371.12 391.755 376.29 392.979 381.462C394.539 388.052 396.099 394.642 397.659 401.232C398.269 403.807 399.079 406.239 402.084 406.944C404.985 407.624 407.879 405.551 408.354 402.663C408.518 401.658 408.319 400.736 408.106 399.771C406.135 390.883 403.963 382.034 401.829 373.179C408.152 376.829 414.474 380.481 420.797 384.131C420.839 384.378 420.88 384.624 420.922 384.871C417.744 390.496 414.565 396.119 411.387 401.743C407.322 408.935 403.257 416.128 399.194 423.32C397.881 425.642 396.201 427.963 397.421 430.753C398.858 434.036 403.311 434.963 405.901 432.405C406.516 431.798 406.918 431.003 407.337 430.26C412.789 420.612 418.242 410.965 423.694 401.317C424.584 406.602 425.476 411.889 426.366 417.174C427.673 424.927 428.724 432.777 430.294 440.484C431.696 447.364 441.574 445.642 440.607 438.651C440.337 436.694 439.951 434.746 439.622 432.798C437.27 418.843 434.92 404.886 432.569 390.93C433.212 391.302 433.854 391.672 434.496 392.043C436.221 398.325 437.944 404.606 439.668 410.89C441.876 418.935 444.083 426.982 446.291 435.027C447.058 437.822 447.706 440.694 451.056 441.452C454.943 442.334 457.933 438.594 457.159 434.964C457.056 434.477 456.894 433.997 456.762 433.519C453.651 422.182 450.539 410.846 447.427 399.509C449.984 400.986 452.542 402.462 455.101 403.939C456.009 407.779 456.919 411.619 457.829 415.459C458.959 420.231 460.089 425.001 461.219 429.772C461.734 431.947 462.771 434 465.147 434.642C469.21 435.735 472.36 432.045 471.622 428.195C470.527 422.495 469.075 416.837 467.652 411.185C468.444 411.642 469.235 412.1 470.027 412.557C472.369 413.909 475.252 416.227 478.057 416.382C482.477 416.625 485.439 412.664 485.009 408.879C488.502 407.359 490.452 402.812 488.031 399.107C486.494 396.755 483.046 395.417 480.703 394.065C479.911 393.608 479.121 393.152 478.33 392.693C483.935 391.101 489.562 389.528 495.045 387.626C498.748 386.341 500.37 381.768 497.39 378.796C495.647 377.058 493.352 377.188 491.208 377.829C486.511 379.236 481.815 380.642 477.118 382.049C473.338 383.181 469.556 384.314 465.776 385.445C463.219 383.968 460.661 382.492 458.103 381.015C469.478 378.042 480.852 375.068 492.226 372.095C492.706 371.97 493.203 371.87 493.674 371.717C497.204 370.57 498.947 366.112 496.242 363.185C493.909 360.663 491.099 361.538 488.294 362.272C480.224 364.384 472.152 366.494 464.081 368.605C457.778 370.253 451.476 371.902 445.173 373.55C444.531 373.178 443.888 372.808 443.246 372.437C456.508 367.495 469.769 362.554 483.031 357.61C484.883 356.92 486.763 356.282 488.593 355.538C495.131 352.878 491.683 343.463 485.025 345.69C477.565 348.182 470.242 351.197 462.873 353.942C457.85 355.814 452.828 357.685 447.805 359.557C453.435 350.012 459.063 340.465 464.693 330.92C465.126 330.185 465.613 329.44 465.833 328.603C466.752 325.081 463.723 321.686 460.161 322.085C457.136 322.424 455.964 325.038 454.609 327.337C450.412 334.454 446.218 341.57 442.021 348.687C438.739 354.25 435.459 359.815 432.178 365.379C431.943 365.467 431.71 365.554 431.475 365.641C425.152 361.991 418.828 358.341 412.505 354.689C421.24 352.111 429.99 349.566 438.673 346.829C439.615 346.532 440.513 346.244 441.302 345.599C443.565 343.744 443.913 340.202 441.873 338.027C439.763 335.779 437.252 336.292 434.716 337.052C428.228 338.995 421.741 340.94 415.253 342.884C410.163 344.409 405.073 345.934 399.983 347.461C394.905 344.528 389.825 341.594 384.745 338.663C401.223 334.355 417.702 330.046 434.18 325.738C435.192 325.473 436.235 325.256 437.232 324.94C440.452 323.918 442.542 320.38 440.667 317.188C438.354 313.248 434.184 314.873 430.784 315.763C419.827 318.63 408.871 321.495 397.916 324.361C389.213 326.638 380.508 328.914 371.804 331.191C369.499 329.859 367.196 328.529 364.891 327.199C384.163 320.017 403.434 312.836 422.706 305.654C425.264 304.701 427.871 303.827 430.398 302.787C432.42 301.955 433.921 300.429 434.083 298.147C434.287 295.309 432.103 292.732 429.246 292.545C427.964 292.46 426.941 292.892 425.786 293.322C415.034 297.33 404.282 301.337 393.531 305.344C385.956 308.167 378.383 310.991 370.808 313.814C376.721 303.787 382.635 293.761 388.548 283.734C388.998 282.969 389.45 282.204 389.9 281.439C390.082 281.519 390.27 281.591 390.468 281.649C392.683 282.291 395.223 281.316 396.416 279.336C397.838 276.976 397.064 274.953 395.743 273.128C397.065 271.303 397.838 269.28 396.416 266.921C395.223 264.939 392.683 263.964 390.468 264.608C390.27 264.666 390.081 264.736 389.9 264.816C389.45 264.051 388.998 263.288 388.548 262.523C382.635 252.496 376.721 242.47 370.808 232.443C378.383 235.266 385.956 238.088 393.531 240.911C404.283 244.918 415.034 248.926 425.786 252.933C426.941 253.365 427.964 253.795 429.246 253.711C432.103 253.524 434.286 250.946 434.083 248.109C433.921 245.827 432.42 244.299 430.398 243.467C427.871 242.429 425.265 241.554 422.706 240.6C403.434 233.418 384.163 226.238 364.891 219.057C367.196 217.727 369.499 216.395 371.804 215.065C380.507 217.342 389.212 219.618 397.916 221.895C408.871 224.76 419.828 227.627 430.784 230.492C434.184 231.382 438.354 233.007 440.667 229.069C442.542 225.877 440.452 222.339 437.232 221.316C436.236 220.999 435.192 220.783 434.18 220.519C417.702 216.211 401.223 211.902 384.745 207.594C389.825 204.661 394.905 201.727 399.983 198.796C405.073 200.321 410.163 201.846 415.253 203.371C421.741 205.316 428.228 207.259 434.716 209.204C437.251 209.962 439.763 210.477 441.873 208.227C443.913 206.054 443.565 202.51 441.302 200.657C440.513 200.012 439.615 199.724 438.673 199.425C429.99 196.69 421.24 194.145 412.505 191.565C418.828 187.915 425.152 184.263 431.475 180.613C431.71 180.7 431.943 180.788 432.178 180.875C435.46 186.44 438.74 192.003 442.021 197.568C446.218 204.685 450.413 211.801 454.609 218.918C455.964 221.215 457.136 223.83 460.161 224.168C463.723 224.566 466.751 221.173 465.833 217.65C465.613 216.815 465.126 216.07 464.693 215.335C459.063 205.788 453.435 196.243 447.805 186.698C452.828 188.568 457.85 190.44 462.873 192.311C470.241 195.056 477.565 198.071 485.025 200.564C491.683 202.789 495.132 193.376 488.593 190.716C486.763 189.971 484.883 189.333 483.031 188.643C469.769 183.701 456.508 178.76 443.246 173.816C443.888 173.446 444.531 173.074 445.173 172.704C451.476 174.352 457.778 176.001 464.081 177.649C472.153 179.759 480.224 181.871 488.294 183.981C491.099 184.714 493.909 185.589 496.242 183.068C498.947 180.143 497.204 175.685 493.674 174.538C493.202 174.385 492.706 174.285 492.226 174.16C480.851 171.185 469.478 168.212 458.103 165.238C460.661 163.761 463.22 162.285 465.776 160.808C469.556 161.941 473.338 163.073 477.118 164.206C481.814 165.613 486.511 167.019 491.208 168.426C493.352 169.068 495.646 169.198 497.39 167.458C500.37 164.488 498.748 159.915 495.045 158.63C489.562 156.727 483.935 155.155 478.33 153.562C479.122 153.105 479.912 152.649 480.703 152.192C483.046 150.839 486.495 149.5 488.031 147.149C490.453 143.444 488.503 138.897 485.009 137.377C485.439 133.592 482.477 129.63 478.057 129.874C475.252 130.029 472.369 132.347 470.027 133.701C469.235 134.158 468.444 134.614 467.652 135.071C469.075 129.421 470.527 123.761 471.622 118.061C472.36 114.213 469.21 110.521 465.147 111.616C462.77 112.256 461.734 114.309 461.219 116.486C460.089 121.256 458.959 126.028 457.829 130.799C456.919 134.639 456.009 138.479 455.101 142.319C452.542 143.796 449.984 145.272 447.427 146.749C450.539 135.411 453.651 124.074 456.762 112.737C456.894 112.259 457.055 111.779 457.159 111.294C457.932 107.662 454.942 103.924 451.056 104.804C447.706 105.564 447.058 108.434 446.291 111.229C444.083 119.276 441.876 127.321 439.668 135.367C437.944 141.649 436.221 147.932 434.496 154.214C433.854 154.584 433.213 154.956 432.569 155.326C434.921 141.371 437.271 127.414 439.622 113.458C439.951 111.51 440.337 109.563 440.607 107.605C441.574 100.613 431.695 98.8929 430.294 105.773C428.724 113.478 427.672 121.328 426.366 129.081C425.476 134.368 424.585 139.653 423.694 144.938C418.242 135.291 412.789 125.643 407.337 115.995C406.917 115.253 406.515 114.458 405.901 113.85C403.311 111.293 398.857 112.22 397.421 115.503C396.201 118.291 397.881 120.613 399.194 122.935C403.257 130.128 407.322 137.32 411.387 144.513C414.565 150.136 417.744 155.76 420.922 161.383C420.88 161.63 420.839 161.876 420.797 162.123C414.474 165.775 408.152 169.425 401.829 173.075C403.962 164.222 406.134 155.372 408.106 146.483C408.319 145.518 408.518 144.596 408.354 143.591C407.879 140.704 404.986 138.631 402.084 139.311C399.079 140.014 398.269 142.446 397.659 145.021C396.099 151.611 394.539 158.203 392.979 164.793C391.756 169.963 390.531 175.135 389.307 180.305C384.227 183.238 379.147 186.17 374.067 189.103C378.575 172.678 383.084 156.253 387.592 139.828C387.869 138.82 388.202 137.81 388.427 136.786C389.152 133.486 387.132 129.908 383.43 129.936C378.862 129.969 378.185 134.393 377.255 137.783C374.258 148.705 371.262 159.625 368.267 170.546C365.887 179.223 363.505 187.898 361.125 196.574C358.822 197.904 356.517 199.236 354.212 200.566C357.629 180.286 361.045 160.006 364.462 139.724C364.915 137.032 365.462 134.337 365.825 131.631C366.117 129.463 365.543 127.399 363.648 126.118C361.293 124.525 357.97 125.126 356.378 127.506C355.665 128.574 355.526 129.676 355.323 130.891C353.417 142.206 351.511 153.521 349.606 164.836C348.263 172.808 346.921 180.778 345.578 188.749C339.851 178.614 334.125 168.481 328.398 158.346C327.961 157.573 327.525 156.801 327.088 156.028C327.248 155.911 327.403 155.785 327.553 155.64C329.217 154.045 329.643 151.357 328.525 149.333C327.192 146.921 325.052 146.58 322.812 146.813C321.892 144.756 320.527 143.073 317.772 143.125C315.46 143.168 313.345 144.88 312.795 147.12C312.745 147.322 312.713 147.52 312.692 147.717C311.805 147.725 310.917 147.734 310.029 147.742C298.389 147.849 286.751 147.957 275.111 148.064C281.343 142.916 287.574 137.769 293.806 132.621C302.653 125.313 311.498 118.006 320.344 110.698C321.296 109.913 322.179 109.243 322.747 108.091C324.014 105.523 322.874 102.344 320.315 101.101C318.257 100.101 316.185 100.636 314.452 101.971C312.29 103.639 310.23 105.461 308.124 107.199C292.269 120.299 276.414 133.397 260.559 146.497C260.559 143.835 260.559 141.174 260.559 138.514C266.882 132.114 273.207 125.714 279.531 119.316C287.491 111.261 295.451 103.204 303.411 95.1489C305.881 92.6489 309.374 89.8509 307.119 85.8769C305.291 82.6589 301.182 82.6989 298.687 84.9749C297.914 85.6819 297.205 86.4749 296.47 87.2199C284.5 99.3369 272.528 111.452 260.558 123.568C260.558 117.703 260.558 111.838 260.558 105.973C264.425 102.326 268.29 98.6809 272.156 95.0359C277.083 90.3889 282.011 85.7429 286.938 81.0959C288.863 79.2809 290.565 77.3629 289.671 74.4109C288.809 71.5559 285.566 70.0879 282.829 71.1209C281.877 71.4809 281.177 72.1139 280.449 72.7809C273.737 78.9329 267.159 85.2379 260.557 91.5129C260.557 84.2129 260.557 76.9109 260.557 69.6099C260.75 69.4499 260.944 69.2919 261.137 69.1319C267.595 69.0739 274.055 69.0139 280.514 68.9539C288.776 68.8789 297.037 68.8019 305.297 68.7269C307.966 68.7019 310.816 68.9949 312.62 66.5449C314.747 63.6579 313.322 59.3379 309.812 58.3729C308.979 58.1449 308.089 58.1949 307.235 58.2029C296.153 58.3049 285.073 58.4059 273.992 58.5099C278.124 55.0949 282.255 51.6819 286.389 48.2669C292.451 43.2589 298.722 38.4239 304.611 33.2099C309.868 28.5569 303.439 20.8629 297.868 25.1949C296.308 26.4069 294.815 27.7169 293.291 28.9749C282.381 37.9879 271.469 47.0029 260.558 56.0169C260.558 55.2749 260.558 54.5339 260.558 53.7939C265.138 49.1589 269.717 44.5259 274.295 39.8909C280.158 33.9559 286.023 28.0209 291.887 22.0879C293.925 20.0249 296.087 18.0299 295.069 14.7479C293.889 10.9409 289.157 10.2229 286.399 12.7059C286.029 13.0389 285.694 13.4189 285.346 13.7729C277.085 22.1359 268.823 30.4999 260.559 38.8629C260.559 35.9099 260.559 32.9559 260.559 30.0029C263.431 27.2949 266.301 24.5859 269.172 21.8799C272.739 18.5149 276.305 15.1519 279.872 11.7869C281.499 10.2539 282.759 8.32892 282.125 5.94992C281.042 1.88492 276.27 1.00192 273.305 3.56692C268.917 7.36392 264.742 11.4499 260.558 15.5089C260.558 14.5959 260.558 13.6809 260.558 12.7669C260.558 10.0619 261.125 6.40693 259.856 3.89993C257.858 -0.0500698 252.945 -0.635089 249.883 1.62991ZM208.288 158.412C212.063 169.16 215.84 179.909 219.617 190.657C219.912 191.497 220.207 192.335 220.5 193.174C218.825 193.911 217.183 194.717 215.583 195.607C212.516 191.41 209.451 187.212 206.384 183.014C200.596 175.089 194.809 167.162 189.021 159.237C188.774 158.9 188.529 158.564 188.283 158.227C194.478 158.284 200.671 158.342 206.866 158.399C207.34 158.402 207.813 158.407 208.288 158.412ZM129.735 251.793C140.932 253.896 152.128 256.001 163.327 258.105C164.201 258.268 165.074 258.433 165.947 258.597C165.747 260.419 165.625 262.244 165.597 264.074C160.427 264.631 155.259 265.186 150.09 265.742C140.334 266.792 130.575 267.842 120.817 268.892C120.403 268.935 119.988 268.98 119.575 269.025C122.72 263.69 125.867 258.353 129.013 253.018C129.253 252.61 129.495 252.202 129.735 251.793ZM171.33 366.513C178.752 357.868 186.172 349.223 193.592 340.578C194.172 339.903 194.751 339.228 195.329 338.555C196.806 339.637 198.326 340.655 199.897 341.597C197.794 346.35 195.69 351.105 193.589 355.859C189.619 364.834 185.649 373.811 181.679 382.786C181.511 383.168 181.342 383.548 181.174 383.929C178.126 378.536 175.079 373.144 172.031 367.751C171.796 367.338 171.563 366.925 171.33 366.513ZM291.478 387.85C287.701 377.102 283.925 366.352 280.148 355.603C279.853 354.765 279.56 353.926 279.265 353.086C280.942 352.349 282.582 351.543 284.184 350.653C287.249 354.851 290.315 359.05 293.38 363.246C299.168 371.173 304.957 379.098 310.745 387.024C310.99 387.359 311.235 387.696 311.482 388.032C305.289 387.975 299.094 387.919 292.901 387.862C292.425 387.858 291.951 387.855 291.478 387.85ZM370.03 294.468C358.834 292.363 347.637 290.26 336.44 288.156C335.567 287.991 334.692 287.826 333.818 287.663C334.018 285.843 334.14 284.018 334.17 282.186C339.338 281.631 344.507 281.074 349.675 280.518C359.434 279.468 369.19 278.42 378.948 277.37C379.363 277.325 379.776 277.28 380.191 277.237C377.044 282.572 373.898 287.907 370.753 293.244C370.511 293.652 370.271 294.06 370.03 294.468ZM328.435 179.748C321.015 188.393 313.595 197.038 306.173 205.683C305.595 206.356 305.015 207.031 304.436 207.706C302.959 206.623 301.439 205.604 299.869 204.663C301.971 199.91 304.074 195.156 306.177 190.401C310.145 181.426 314.116 172.451 318.085 163.474C318.253 163.094 318.422 162.712 318.592 162.332C321.639 167.724 324.687 173.117 327.734 178.509C327.968 178.923 328.201 179.335 328.435 179.748ZM292.9 158.398C299.093 158.341 305.288 158.283 311.481 158.226C311.234 158.563 310.989 158.899 310.744 159.236C304.956 167.161 299.167 175.088 293.379 183.013C290.314 187.211 287.247 191.41 284.183 195.606C282.581 194.716 280.941 193.909 279.264 193.173C279.559 192.335 279.852 191.496 280.147 190.656C283.924 179.908 287.7 169.159 291.477 158.411C291.951 158.407 292.425 158.402 292.9 158.398ZM172.03 178.51C175.078 173.118 178.125 167.725 181.173 162.333C181.341 162.713 181.51 163.095 181.678 163.475C185.648 172.452 189.618 181.427 193.588 190.402C195.69 195.157 197.793 199.91 199.896 204.664C198.324 205.606 196.804 206.624 195.328 207.707C194.75 207.032 194.171 206.357 193.591 205.684C186.171 197.039 178.751 188.394 171.329 179.749C171.563 179.335 171.796 178.923 172.03 178.51ZM129.013 293.243C125.867 287.906 122.72 282.571 119.575 277.236C119.988 277.279 120.403 277.324 120.817 277.369C130.575 278.419 140.334 279.467 150.09 280.517C155.258 281.074 160.427 281.63 165.597 282.185C165.625 284.017 165.747 285.842 165.947 287.662C165.074 287.825 164.201 287.99 163.327 288.155C152.129 290.258 140.932 292.362 129.735 294.467C129.495 294.06 129.253 293.652 129.013 293.243ZM206.867 387.863C200.672 387.92 194.478 387.976 188.284 388.033C188.53 387.696 188.775 387.36 189.022 387.025C194.81 379.098 200.597 371.173 206.385 363.247C209.452 359.05 212.517 354.852 215.584 350.654C217.184 351.544 218.825 352.351 220.501 353.087C220.207 353.927 219.912 354.765 219.618 355.604C215.841 366.352 212.064 377.102 208.289 387.851C207.813 387.855 207.34 387.858 206.867 387.863ZM327.735 367.75C324.688 373.143 321.64 378.535 318.593 383.928C318.423 383.546 318.254 383.166 318.086 382.785C314.116 373.81 310.146 364.833 306.178 355.858C304.075 351.105 301.971 346.35 299.87 341.596C301.44 340.654 302.96 339.636 304.437 338.554C305.015 339.227 305.595 339.902 306.174 340.577C313.596 349.222 321.016 357.867 328.436 366.512C328.201 366.925 327.968 367.338 327.735 367.75ZM370.753 253.018C373.898 258.353 377.045 263.69 380.191 269.025C379.776 268.98 379.363 268.935 378.948 268.892C369.19 267.842 359.433 266.792 349.675 265.742C344.507 265.185 339.338 264.63 334.17 264.074C334.14 262.244 334.018 260.419 333.818 258.597C334.691 258.434 335.567 258.269 336.44 258.105C347.637 256.002 358.834 253.897 370.03 251.793C370.271 252.202 370.511 252.61 370.753 253.018ZM237.505 158.68C238.072 159.148 238.64 159.617 239.207 160.085C239.207 169.163 239.207 178.24 239.207 187.318C239.207 187.748 239.207 188.178 239.207 188.608C235.651 188.851 232.119 189.415 228.669 190.31C225.069 180.062 221.468 169.813 217.868 159.565C217.743 159.208 217.618 158.852 217.491 158.495C223.463 158.55 229.435 158.605 235.406 158.66C236.105 158.667 236.805 158.673 237.505 158.68ZM144.576 226.625C145.266 226.367 145.954 226.11 146.644 225.853C154.506 230.391 162.367 234.931 170.229 239.47C170.601 239.685 170.974 239.9 171.346 240.115C169.778 243.318 168.501 246.657 167.551 250.093C156.874 248.086 146.2 246.081 135.524 244.075C135.152 244.005 134.781 243.935 134.409 243.865C137.442 238.722 140.476 233.577 143.509 228.433C143.865 227.83 144.22 227.227 144.576 226.625ZM156.955 341.075C157.077 340.35 157.198 339.625 157.322 338.898C165.182 334.36 173.044 329.821 180.905 325.281C181.278 325.066 181.65 324.851 182.023 324.636C184.013 327.596 186.265 330.371 188.765 332.913C181.69 341.155 174.617 349.396 167.542 357.64C167.295 357.927 167.049 358.213 166.802 358.5C163.864 353.302 160.925 348.102 157.987 342.903C157.643 342.295 157.298 341.685 156.955 341.075ZM262.26 387.582C261.693 387.114 261.127 386.644 260.558 386.175C260.558 377.098 260.558 368.02 260.558 358.943C260.558 358.511 260.558 358.081 260.558 357.651C264.117 357.408 267.646 356.846 271.098 355.949C274.698 366.197 278.298 376.446 281.898 386.694C282.025 387.051 282.15 387.407 282.275 387.764C276.303 387.709 270.332 387.654 264.36 387.599C263.66 387.595 262.96 387.588 262.26 387.582ZM355.19 319.637C354.5 319.894 353.81 320.15 353.12 320.407C345.26 315.869 337.398 311.33 329.537 306.79C329.164 306.575 328.792 306.36 328.419 306.145C329.987 302.943 331.266 299.605 332.216 296.168C342.891 298.173 353.566 300.18 364.243 302.186C364.613 302.254 364.985 302.324 365.356 302.394C362.323 307.539 359.289 312.682 356.258 317.827C355.9 318.43 355.545 319.033 355.19 319.637ZM342.811 205.185C342.688 205.912 342.566 206.637 342.444 207.362C334.583 211.902 326.721 216.44 318.859 220.979C318.487 221.194 318.114 221.409 317.742 221.624C315.752 218.666 313.5 215.889 310.999 213.349C318.074 205.106 325.149 196.864 332.224 188.622C332.471 188.335 332.716 188.047 332.962 187.76C335.9 192.96 338.839 198.158 341.777 203.357C342.123 203.967 342.467 204.577 342.811 205.185ZM264.36 158.66C270.332 158.605 276.303 158.55 282.275 158.495C282.15 158.852 282.025 159.208 281.898 159.565C278.298 169.813 274.698 180.062 271.098 190.31C267.646 189.415 264.117 188.852 260.558 188.608C260.558 188.178 260.558 187.748 260.558 187.318C260.558 178.24 260.558 169.163 260.558 160.085C261.126 159.617 261.693 159.148 262.26 158.68C262.96 158.673 263.66 158.667 264.36 158.66ZM157.986 203.357C160.924 198.159 163.863 192.96 166.801 187.76C167.048 188.047 167.294 188.335 167.541 188.622C174.616 196.864 181.689 205.105 188.764 213.349C186.264 215.889 184.012 218.666 182.022 221.624C181.649 221.409 181.277 221.194 180.904 220.979C173.042 216.441 165.181 211.902 157.321 207.362C157.198 206.637 157.076 205.912 156.954 205.185C157.298 204.577 157.643 203.967 157.986 203.357ZM143.51 317.828C140.477 312.683 137.443 307.54 134.41 302.395C134.782 302.325 135.153 302.255 135.525 302.187C146.2 300.18 156.875 298.174 167.552 296.169C168.502 299.606 169.779 302.944 171.347 306.146C170.975 306.361 170.602 306.576 170.23 306.791C162.368 311.331 154.507 315.869 146.645 320.408C145.955 320.151 145.267 319.895 144.577 319.638C144.22 319.033 143.865 318.43 143.51 317.828ZM235.405 387.6C229.434 387.655 223.462 387.71 217.49 387.765C217.617 387.408 217.742 387.052 217.867 386.695C221.467 376.447 225.068 366.198 228.668 355.95C232.118 356.847 235.65 357.408 239.206 357.652C239.206 358.082 239.206 358.512 239.206 358.944C239.206 368.021 239.206 377.099 239.206 386.176C238.639 386.644 238.071 387.114 237.504 387.583C236.805 387.588 236.105 387.595 235.405 387.6ZM341.778 342.903C338.84 348.101 335.901 353.301 332.963 358.5C332.717 358.213 332.471 357.927 332.225 357.64C325.15 349.397 318.075 341.155 311 332.913C313.501 330.371 315.753 327.596 317.743 324.636C318.115 324.851 318.488 325.066 318.86 325.281C326.722 329.821 334.584 334.359 342.445 338.898C342.567 339.625 342.688 340.35 342.812 341.075C342.467 341.685 342.123 342.295 341.778 342.903ZM356.256 228.433C359.288 233.576 362.321 238.721 365.354 243.865C364.983 243.935 364.611 244.005 364.241 244.075C353.564 246.082 342.889 248.087 332.214 250.093C331.264 246.656 329.986 243.318 328.417 240.115C328.79 239.9 329.162 239.685 329.535 239.47C337.397 234.932 345.258 230.392 353.118 225.853C353.808 226.11 354.498 226.366 355.188 226.625C355.545 227.227 355.9 227.83 356.256 228.433ZM216.653 215.575C217.221 215.067 217.801 214.575 218.391 214.093C221.278 218.046 224.163 221.998 227.05 225.951C227.135 226.066 227.22 226.183 227.305 226.299C226.755 226.957 226.247 227.649 225.767 228.361C224.567 227.283 223.368 226.204 222.168 225.126C222.501 226.704 222.836 228.283 223.17 229.861C222.313 229.919 221.462 230.014 220.615 230.161C220.557 230.029 220.498 229.898 220.442 229.766C218.46 225.291 216.48 220.814 214.501 216.339C215.213 216.07 215.93 215.813 216.653 215.575ZM283.111 215.575C283.836 215.813 284.553 216.07 285.264 216.34C283.284 220.815 281.304 225.292 279.324 229.767C279.266 229.899 279.207 230.03 279.149 230.162C278.304 230.015 277.45 229.92 276.594 229.862C276.929 228.284 277.262 226.705 277.597 225.127C276.397 226.205 275.197 227.284 273.997 228.362C273.519 227.65 273.01 226.959 272.46 226.3C272.543 226.183 272.628 226.067 272.713 225.952C275.6 221.999 278.486 218.047 281.371 214.094C281.963 214.575 282.545 215.067 283.111 215.575ZM316.341 273.13C316.498 273.877 316.634 274.625 316.756 275.377C311.889 275.9 307.023 276.424 302.158 276.947C302.015 276.962 301.871 276.977 301.728 276.992C301.433 276.187 301.088 275.4 300.711 274.63C302.244 274.13 303.778 273.63 305.311 273.13C303.778 272.63 302.244 272.13 300.711 271.632C301.088 270.86 301.433 270.075 301.728 269.269C301.871 269.284 302.015 269.301 302.158 269.316C307.023 269.839 311.89 270.361 316.756 270.884C316.635 271.635 316.498 272.385 316.341 273.13ZM283.111 330.685C282.544 331.193 281.963 331.687 281.373 332.167C278.488 328.215 275.601 324.262 272.715 320.31C272.63 320.193 272.545 320.077 272.462 319.96C273.012 319.302 273.52 318.612 273.999 317.898C275.199 318.976 276.399 320.055 277.599 321.133C277.264 319.555 276.931 317.978 276.596 316.4C277.453 316.342 278.306 316.247 279.151 316.098C279.209 316.23 279.268 316.361 279.326 316.493C281.306 320.97 283.286 325.445 285.266 329.921C284.553 330.192 283.836 330.448 283.111 330.685ZM216.653 330.685C215.93 330.448 215.213 330.192 214.5 329.922C216.48 325.445 218.46 320.97 220.441 316.494C220.498 316.362 220.556 316.231 220.614 316.099C221.461 316.247 222.312 316.342 223.169 316.401C222.836 317.979 222.501 319.556 222.167 321.134C223.367 320.056 224.566 318.977 225.766 317.899C226.246 318.612 226.754 319.302 227.304 319.961C227.219 320.078 227.134 320.194 227.049 320.311C224.162 324.263 221.277 328.216 218.39 332.168C217.801 331.687 217.221 331.193 216.653 330.685ZM183.425 273.13C183.267 272.385 183.132 271.635 183.01 270.883C187.877 270.36 192.742 269.838 197.608 269.315C197.751 269.3 197.895 269.283 198.038 269.268C198.333 270.075 198.676 270.86 199.055 271.631C197.52 272.129 195.987 272.629 194.453 273.129C195.986 273.629 197.52 274.129 199.055 274.629C198.677 275.399 198.334 276.186 198.038 276.991C197.895 276.976 197.751 276.961 197.608 276.946C192.741 276.423 187.876 275.899 183.01 275.376C183.131 274.625 183.267 273.877 183.425 273.13ZM226.708 210.843C226.358 210.361 226.006 209.881 225.656 209.401C225.813 209.323 225.968 209.253 226.123 209.178C226.318 209.733 226.513 210.288 226.708 210.843ZM184.353 262.057C183.761 262.12 183.17 262.184 182.578 262.247C182.59 262.072 182.606 261.904 182.618 261.73C183.196 261.838 183.775 261.947 184.353 262.057ZM207.526 324.343C207.286 324.888 207.046 325.431 206.804 325.975C206.659 325.878 206.521 325.78 206.377 325.682C206.761 325.237 207.143 324.79 207.526 324.343ZM273.056 335.418C273.408 335.898 273.758 336.378 274.108 336.858C273.953 336.936 273.798 337.006 273.641 337.083C273.446 336.528 273.251 335.973 273.056 335.418ZM315.413 284.205C316.003 284.142 316.595 284.078 317.186 284.013C317.176 284.188 317.159 284.356 317.146 284.53C316.568 284.422 315.99 284.313 315.413 284.205ZM292.238 221.917C292.478 221.374 292.72 220.83 292.96 220.285C293.107 220.382 293.243 220.48 293.388 220.578C293.005 221.025 292.621 221.47 292.238 221.917ZM273.641 209.178C273.798 209.253 273.953 209.323 274.108 209.401C273.758 209.881 273.408 210.361 273.056 210.843C273.251 210.288 273.446 209.733 273.641 209.178ZM206.378 220.578C206.521 220.48 206.66 220.381 206.805 220.285C207.047 220.83 207.287 221.373 207.527 221.917C207.143 221.47 206.761 221.025 206.378 220.578ZM182.618 284.53C182.606 284.357 182.59 284.188 182.578 284.013C183.17 284.078 183.761 284.141 184.353 284.205C183.775 284.313 183.196 284.422 182.618 284.53ZM226.123 337.083C225.968 337.006 225.813 336.936 225.656 336.858C226.006 336.378 226.358 335.898 226.708 335.418C226.513 335.973 226.318 336.528 226.123 337.083ZM293.388 325.682C293.243 325.78 293.106 325.879 292.96 325.975C292.72 325.432 292.478 324.888 292.238 324.343C292.621 324.79 293.005 325.237 293.388 325.682ZM317.146 261.73C317.159 261.903 317.176 262.072 317.186 262.247C316.594 262.184 316.003 262.12 315.413 262.057C315.99 261.947 316.568 261.838 317.146 261.73ZM239.206 218.59C239.024 218.643 238.841 218.695 238.661 218.753C237.208 214.62 235.756 210.488 234.304 206.355C235.933 205.992 237.552 205.733 239.206 205.58C239.206 209.917 239.206 214.253 239.206 218.59ZM197.311 255.107C197.266 255.29 197.219 255.475 197.179 255.66C192.874 254.852 188.569 254.042 184.264 253.233C184.762 251.641 185.349 250.108 186.044 248.601C189.8 250.77 193.556 252.938 197.311 255.107ZM207.988 309.647C208.125 309.777 208.261 309.91 208.401 310.039C205.548 313.362 202.694 316.686 199.843 320.009C198.713 318.781 197.68 317.507 196.72 316.152C200.476 313.983 204.231 311.815 207.988 309.647ZM260.558 327.67C260.741 327.617 260.923 327.565 261.105 327.508C262.557 331.64 264.008 335.773 265.46 339.905C263.832 340.27 262.212 340.528 260.558 340.68C260.558 336.343 260.558 332.007 260.558 327.67ZM302.453 291.155C302.498 290.97 302.545 290.787 302.586 290.6C306.891 291.41 311.194 292.218 315.5 293.027C315.001 294.62 314.415 296.152 313.721 297.66C309.965 295.492 306.21 293.323 302.453 291.155ZM291.778 236.615C291.64 236.483 291.505 236.352 291.365 236.223C294.217 232.9 297.07 229.576 299.923 226.251C301.051 227.479 302.086 228.753 303.045 230.109C299.29 232.278 295.533 234.447 291.778 236.615ZM260.558 205.58C262.211 205.733 263.831 205.992 265.46 206.355C264.008 210.488 262.557 214.62 261.105 218.753C260.923 218.695 260.742 218.643 260.558 218.59C260.558 214.253 260.558 209.917 260.558 205.58ZM196.72 230.11C197.68 228.753 198.713 227.48 199.843 226.252C202.695 229.577 205.548 232.9 208.401 236.224C208.261 236.352 208.124 236.484 207.988 236.616C204.231 234.447 200.476 232.278 196.72 230.11ZM186.045 297.66C185.35 296.152 184.763 294.62 184.265 293.027C188.57 292.219 192.875 291.41 197.18 290.6C197.22 290.787 197.267 290.97 197.312 291.155C193.556 293.323 189.8 295.492 186.045 297.66ZM239.206 340.68C237.553 340.528 235.933 340.27 234.304 339.905C235.756 335.773 237.207 331.64 238.661 327.508C238.841 327.565 239.024 327.616 239.206 327.67C239.206 332.007 239.206 336.343 239.206 340.68ZM303.045 316.152C302.087 317.507 301.052 318.78 299.923 320.009C297.07 316.686 294.217 313.362 291.365 310.039C291.505 309.911 291.64 309.777 291.778 309.647C295.533 311.815 299.29 313.983 303.045 316.152ZM313.721 248.602C314.414 250.109 315.001 251.642 315.5 253.234C311.195 254.042 306.891 254.852 302.586 255.661C302.544 255.476 302.498 255.291 302.453 255.108C306.21 252.938 309.965 250.77 313.721 248.602ZM205.996 197.117C206.018 197.147 206.039 197.175 206.059 197.205C206.844 198.28 207.631 199.355 208.414 200.43C208.299 200.522 208.183 200.613 208.067 200.707C207.93 200.76 207.792 200.815 207.655 200.869C207.117 199.652 206.577 198.434 206.038 197.217C206.025 197.183 206.011 197.15 205.996 197.117ZM293.77 197.117C293.755 197.15 293.74 197.184 293.725 197.217C293.187 198.434 292.648 199.652 292.11 200.869C291.972 200.816 291.835 200.761 291.697 200.707C291.582 200.614 291.467 200.522 291.351 200.43C292.136 199.355 292.921 198.28 293.706 197.205C293.726 197.175 293.748 197.147 293.77 197.117ZM337.655 273.13C337.62 273.135 337.584 273.138 337.547 273.142C336.224 273.285 334.901 273.427 333.577 273.569C333.555 273.424 333.534 273.277 333.51 273.131C333.534 272.986 333.555 272.839 333.577 272.693C334.901 272.835 336.224 272.978 337.547 273.12C337.583 273.123 337.62 273.127 337.655 273.13ZM293.77 349.143C293.748 349.115 293.727 349.085 293.705 349.055C292.92 347.98 292.135 346.905 291.35 345.83C291.467 345.738 291.581 345.647 291.696 345.555C291.834 345.5 291.971 345.447 292.109 345.392C292.647 346.61 293.186 347.827 293.724 349.044C293.74 349.077 293.755 349.11 293.77 349.143ZM205.996 349.143C206.011 349.11 206.024 349.076 206.039 349.043C206.577 347.826 207.117 346.61 207.656 345.391C207.793 345.446 207.931 345.499 208.068 345.554C208.183 345.646 208.3 345.737 208.415 345.829C207.632 346.904 206.845 347.979 206.06 349.054C206.04 349.085 206.018 349.115 205.996 349.143ZM162.11 273.13C162.147 273.127 162.182 273.123 162.218 273.118C163.541 272.976 164.865 272.833 166.19 272.691C166.21 272.838 166.232 272.984 166.255 273.129C166.232 273.276 166.21 273.422 166.19 273.567C164.865 273.425 163.542 273.284 162.218 273.14C162.181 273.138 162.146 273.135 162.11 273.13Z" fill="white"/>
</svg>
